G04 Layer_Physical_Order=2*
G04 Layer_Color=16711680*
%FSLAX44Y44*%
%MOMM*%
G71*
G01*
G75*
%ADD11R,1.1120X1.8034*%
%ADD18C,1.0000*%
%ADD21C,0.5000*%
%ADD22C,0.4000*%
%ADD24C,1.8000*%
%ADD25R,1.8000X1.8000*%
%ADD26P,2.5456X4X90.0*%
%ADD27R,1.8000X1.8000*%
%ADD28R,2.0000X2.0000*%
%ADD29R,2.0000X3.0000*%
%ADD30C,1.1684*%
%ADD31C,2.0000*%
%ADD32C,2.1590*%
%ADD33C,1.5000*%
%ADD34C,0.7000*%
%ADD35C,1.2700*%
%ADD36R,1.2080X0.4564*%
G04:AMPARAMS|DCode=37|XSize=1.112mm|YSize=1.8034mm|CornerRadius=0mm|HoleSize=0mm|Usage=FLASHONLY|Rotation=45.000|XOffset=0mm|YOffset=0mm|HoleType=Round|Shape=Rectangle|*
%AMROTATEDRECTD37*
4,1,4,0.2445,-1.0308,-1.0308,0.2445,-0.2445,1.0308,1.0308,-0.2445,0.2445,-1.0308,0.0*
%
%ADD37ROTATEDRECTD37*%

%ADD38R,1.0128X3.2004*%
%ADD39R,0.7000X1.0000*%
%ADD40R,1.3938X0.4826*%
%ADD41R,1.3938X0.5588*%
%ADD42C,1.2000*%
G36*
X871115Y723391D02*
Y526609D01*
X799779Y455272D01*
X798630Y454979D01*
X775979Y477630D01*
X766789Y468441D01*
X765544Y468689D01*
X765217Y469476D01*
X763159Y472159D01*
X760476Y474217D01*
X757352Y475511D01*
X754000Y475953D01*
X750648Y475511D01*
X747523Y474217D01*
X744841Y472159D01*
X742783Y469476D01*
X741488Y466352D01*
X741047Y463000D01*
X741488Y459647D01*
X742783Y456524D01*
X744841Y453841D01*
X747523Y451782D01*
X750648Y450488D01*
X752515Y450243D01*
X752923Y449040D01*
X722931Y419049D01*
X721900Y419813D01*
X722782Y421463D01*
X723754Y424667D01*
X724082Y428000D01*
X723754Y431333D01*
X722782Y434537D01*
X721203Y437490D01*
X719079Y440079D01*
X716490Y442203D01*
X713537Y443782D01*
X710333Y444754D01*
X707000Y445082D01*
X703667Y444754D01*
X700463Y443782D01*
X697510Y442203D01*
X694921Y440079D01*
X692797Y437490D01*
X691218Y434537D01*
X690246Y431333D01*
X689918Y428000D01*
X690246Y424667D01*
X691218Y421463D01*
X692335Y419374D01*
X691574Y418103D01*
X672426D01*
X671665Y419374D01*
X672782Y421463D01*
X673754Y424667D01*
X674082Y428000D01*
X673754Y431333D01*
X672782Y434537D01*
X671203Y437490D01*
X669079Y440079D01*
X666490Y442203D01*
X663537Y443782D01*
X660333Y444754D01*
X657000Y445082D01*
X653667Y444754D01*
X650463Y443782D01*
X647510Y442203D01*
X644921Y440079D01*
X642797Y437490D01*
X641218Y434537D01*
X640246Y431333D01*
X639918Y428000D01*
X640246Y424667D01*
X641218Y421463D01*
X642335Y419374D01*
X641574Y418103D01*
X615426D01*
X614665Y419374D01*
X615782Y421463D01*
X616754Y424667D01*
X617082Y428000D01*
X616754Y431333D01*
X615782Y434537D01*
X614203Y437490D01*
X612079Y440079D01*
X610728Y441188D01*
X611182Y442458D01*
X617544D01*
Y453395D01*
X716237D01*
X718205Y453654D01*
X720040Y454414D01*
X721615Y455622D01*
X774420Y508428D01*
X803490D01*
X804845Y507867D01*
X807033Y507579D01*
X809221Y507867D01*
X811260Y508711D01*
X813011Y510055D01*
X814355Y511806D01*
X815199Y513845D01*
X815487Y516033D01*
X815199Y518221D01*
X814355Y520260D01*
X813011Y522011D01*
X811260Y523355D01*
X809221Y524199D01*
X807033Y524487D01*
X804845Y524199D01*
X803490Y523638D01*
X771270D01*
X769302Y523379D01*
X768752Y523151D01*
X768509Y523223D01*
X767700Y523853D01*
X767590Y524045D01*
X767881Y527000D01*
X767538Y530488D01*
X766520Y533843D01*
X764868Y536934D01*
X762644Y539644D01*
X759934Y541868D01*
X756843Y543520D01*
X753488Y544538D01*
X750000Y544881D01*
X746512Y544538D01*
X743157Y543520D01*
X740066Y541868D01*
X737356Y539644D01*
X735132Y536934D01*
X733480Y533843D01*
X732462Y530488D01*
X732119Y527000D01*
X732462Y523512D01*
X733480Y520157D01*
X735132Y517066D01*
X737356Y514356D01*
X740066Y512132D01*
X743157Y510480D01*
X746512Y509462D01*
X750000Y509119D01*
X752002Y509316D01*
X752579Y508097D01*
X713087Y468605D01*
X617544D01*
Y479542D01*
X602336D01*
Y461008D01*
X602335Y461000D01*
X602336Y460992D01*
Y445798D01*
X601395Y444945D01*
X600000Y445082D01*
X596667Y444754D01*
X593463Y443782D01*
X590510Y442203D01*
X587921Y440079D01*
X585797Y437490D01*
X584218Y434537D01*
X583246Y431333D01*
X582918Y428000D01*
X583246Y424667D01*
X584218Y421463D01*
X585335Y419374D01*
X584574Y418103D01*
X577014D01*
X572060Y423057D01*
Y510000D01*
X571820Y511827D01*
X571115Y513530D01*
X569992Y514992D01*
X568530Y516115D01*
X566827Y516820D01*
X565000Y517060D01*
X556061D01*
X554488Y517537D01*
X551000Y517881D01*
X547512Y517537D01*
X545939Y517060D01*
X516000D01*
X514173Y516820D01*
X512470Y516115D01*
X511007Y514992D01*
X509885Y513530D01*
X509180Y511827D01*
X508940Y510000D01*
Y498705D01*
X507766Y498219D01*
X464992Y540993D01*
X463530Y542114D01*
X461827Y542820D01*
X460000Y543060D01*
X453000D01*
Y549000D01*
Y593000D01*
X419000D01*
Y549000D01*
Y539679D01*
X418885Y539530D01*
X418180Y537827D01*
X417940Y536000D01*
Y498720D01*
X416766Y498234D01*
X378885Y536115D01*
Y723391D01*
X421287Y765793D01*
X422460Y765307D01*
Y761500D01*
X431500D01*
Y770540D01*
X427693D01*
X427207Y771713D01*
X526609Y871115D01*
X723391D01*
X871115Y723391D01*
D02*
G37*
G36*
X513900Y482100D02*
X514730Y481270D01*
X516000Y480000D01*
X516000Y481000D01*
X516000Y481796D01*
Y481796D01*
Y481796D01*
X516000D01*
Y510000D01*
X565000D01*
Y417000D01*
Y415754D01*
X564017Y415000D01*
X500000D01*
X425000Y490000D01*
Y536000D01*
X460000D01*
X513900Y482100D01*
D02*
G37*
G36*
X780868Y437216D02*
X780574Y436068D01*
X723391Y378885D01*
X536115D01*
X508234Y406766D01*
X508720Y407940D01*
X552943D01*
X563442Y397441D01*
X565948Y395518D01*
X568867Y394309D01*
X572000Y393896D01*
X727000D01*
X730133Y394309D01*
X733052Y395518D01*
X735558Y397441D01*
X778100Y439983D01*
X780868Y437216D01*
D02*
G37*
G36*
X496115Y343885D02*
Y150877D01*
X349123Y3885D01*
X151609D01*
X121497Y33997D01*
X94257Y61237D01*
X94743Y62410D01*
X115490D01*
Y85490D01*
X92410D01*
Y64743D01*
X91237Y64257D01*
X57584Y97910D01*
X58110Y99180D01*
X80320D01*
Y122260D01*
X57240D01*
Y100049D01*
X55970Y99523D01*
X21314Y134180D01*
X21880Y135410D01*
X22485Y135410D01*
X44490D01*
Y158490D01*
X21410D01*
Y136574D01*
X21410Y135880D01*
X20180Y135314D01*
X3885Y151609D01*
Y348391D01*
X151609Y496115D01*
X343885D01*
X496115Y343885D01*
D02*
G37*
%LPC*%
G36*
X447540Y754500D02*
X435000D01*
X422460D01*
Y745460D01*
Y720460D01*
X447540D01*
Y725395D01*
X452942D01*
Y721443D01*
X453437D01*
Y705735D01*
X453568Y704739D01*
Y698747D01*
X457275D01*
X457699Y698322D01*
X459274Y697114D01*
X461109Y696354D01*
X463077Y696095D01*
X465045Y696354D01*
X466880Y697114D01*
X468455Y698322D01*
X468780Y698747D01*
X472586D01*
Y708653D01*
X468780D01*
X468647Y708827D01*
Y721443D01*
X469142D01*
Y744557D01*
X452942D01*
Y740605D01*
X447540D01*
Y745460D01*
Y754500D01*
D02*
G37*
G36*
X459577Y693334D02*
X453568D01*
Y691500D01*
X459577D01*
Y693334D01*
D02*
G37*
G36*
Y684500D02*
X453568D01*
Y682666D01*
X459577D01*
Y684500D01*
D02*
G37*
G36*
X499058Y729500D02*
X494458D01*
Y721443D01*
X499058D01*
Y729500D01*
D02*
G37*
G36*
X487458D02*
X482858D01*
Y721443D01*
X487458D01*
Y729500D01*
D02*
G37*
G36*
X504026Y699984D02*
X479702D01*
X479677Y699979D01*
X479652Y699983D01*
X479183Y699880D01*
X478711Y699787D01*
X478690Y699772D01*
X478665Y699767D01*
X478271Y699492D01*
X477871Y699225D01*
X477857Y699204D01*
X477836Y699190D01*
X472250Y693384D01*
X470046D01*
X469796Y693334D01*
X466577D01*
Y688000D01*
Y682666D01*
X469796D01*
X470046Y682616D01*
X472469D01*
X477800Y676848D01*
X477842Y676818D01*
X477871Y676775D01*
X478249Y676522D01*
X478618Y676254D01*
X478668Y676242D01*
X478711Y676213D01*
X479157Y676124D01*
X479600Y676018D01*
X479651Y676026D01*
X479702Y676016D01*
X504026D01*
X505017Y676213D01*
X505857Y676775D01*
X506419Y677615D01*
X506616Y678606D01*
Y697394D01*
X506419Y698385D01*
X505857Y699225D01*
X505017Y699787D01*
X504026Y699984D01*
D02*
G37*
G36*
X505058Y643500D02*
X500458D01*
Y635443D01*
X505058D01*
Y643500D01*
D02*
G37*
G36*
X513000Y631605D02*
X512202Y631500D01*
X508040D01*
Y631540D01*
X505500D01*
Y631501D01*
X505499D01*
Y624798D01*
X505395Y624000D01*
X505499Y623202D01*
Y616499D01*
X505500D01*
Y616460D01*
X508040D01*
Y616500D01*
X509745D01*
X514305Y611940D01*
X514339Y611679D01*
X515235Y609517D01*
X516660Y607660D01*
X518033Y606606D01*
X517336Y605540D01*
X516335Y605540D01*
X515000D01*
Y601500D01*
X517540D01*
Y604307D01*
X517540Y605383D01*
X518517Y606235D01*
X519110Y605989D01*
X520679Y605339D01*
X523000Y605033D01*
X525321Y605339D01*
X527483Y606235D01*
X529340Y607660D01*
X530765Y609517D01*
X531661Y611679D01*
X531967Y614000D01*
X531661Y616321D01*
X530765Y618483D01*
X529340Y620340D01*
X527483Y621765D01*
X525321Y622661D01*
X525060Y622696D01*
X518378Y629378D01*
X517500Y630051D01*
Y631500D01*
X513798D01*
X513000Y631605D01*
D02*
G37*
G36*
X602700Y861041D02*
Y853500D01*
X610241D01*
X609280Y855820D01*
X607430Y858230D01*
X605020Y860080D01*
X602700Y861041D01*
D02*
G37*
G36*
X661540Y861540D02*
X653500D01*
Y853500D01*
X661540D01*
Y861540D01*
D02*
G37*
G36*
X505058Y658557D02*
X500458D01*
Y650500D01*
X505058D01*
Y658557D01*
D02*
G37*
G36*
X493458D02*
X488858D01*
Y650500D01*
X493458D01*
Y658557D01*
D02*
G37*
G36*
X635641Y846500D02*
X628100D01*
Y838959D01*
X630420Y839920D01*
X632830Y841770D01*
X634680Y844180D01*
X635641Y846500D01*
D02*
G37*
G36*
X610241D02*
X602700D01*
Y838959D01*
X605020Y839920D01*
X607430Y841770D01*
X609280Y844180D01*
X610241Y846500D01*
D02*
G37*
G36*
X621100D02*
X613559D01*
X614520Y844180D01*
X616370Y841770D01*
X618780Y839920D01*
X621100Y838959D01*
Y846500D01*
D02*
G37*
G36*
Y861041D02*
X618780Y860080D01*
X616370Y858230D01*
X614520Y855820D01*
X613559Y853500D01*
X621100D01*
Y861041D01*
D02*
G37*
G36*
X595700D02*
X593380Y860080D01*
X590970Y858230D01*
X589120Y855820D01*
X588159Y853500D01*
X595700D01*
Y861041D01*
D02*
G37*
G36*
X646500Y861540D02*
X638460D01*
Y853500D01*
X646500D01*
Y861540D01*
D02*
G37*
G36*
X447540Y770540D02*
X438500D01*
Y761500D01*
X447540D01*
Y770540D01*
D02*
G37*
G36*
X499058Y744557D02*
X494458D01*
Y736500D01*
X499058D01*
Y744557D01*
D02*
G37*
G36*
X487458D02*
X482858D01*
Y736500D01*
X487458D01*
Y744557D01*
D02*
G37*
G36*
X595700Y846500D02*
X588159D01*
X589120Y844180D01*
X590970Y841770D01*
X593380Y839920D01*
X595700Y838959D01*
Y846500D01*
D02*
G37*
G36*
X661540D02*
X653500D01*
Y838460D01*
X661540D01*
Y846500D01*
D02*
G37*
G36*
X646500D02*
X638460D01*
Y838460D01*
X646500D01*
Y846500D01*
D02*
G37*
G36*
X628100Y861041D02*
Y853500D01*
X635641D01*
X634680Y855820D01*
X632830Y858230D01*
X630420Y860080D01*
X628100Y861041D01*
D02*
G37*
G36*
X602100Y496500D02*
X592616D01*
X593952Y493275D01*
X596089Y490489D01*
X598875Y488352D01*
X602100Y487016D01*
Y496500D01*
D02*
G37*
G36*
X640800Y544881D02*
X637312Y544538D01*
X633957Y543520D01*
X630866Y541868D01*
X628156Y539644D01*
X625932Y536934D01*
X624280Y533843D01*
X623262Y530488D01*
X622919Y527000D01*
X623262Y523512D01*
X624280Y520157D01*
X625932Y517066D01*
X628156Y514356D01*
X630866Y512132D01*
X633957Y510480D01*
X637312Y509462D01*
X640800Y509119D01*
X643604Y509395D01*
X644404Y508198D01*
X643680Y506843D01*
X642663Y503488D01*
X642319Y500000D01*
X642663Y496511D01*
X643680Y493157D01*
X645332Y490066D01*
X647556Y487356D01*
X650266Y485132D01*
X653357Y483480D01*
X656712Y482462D01*
X660200Y482119D01*
X663688Y482462D01*
X667043Y483480D01*
X670134Y485132D01*
X672844Y487356D01*
X675068Y490066D01*
X676720Y493157D01*
X677738Y496511D01*
X678081Y500000D01*
X677738Y503488D01*
X676720Y506843D01*
X675068Y509934D01*
X672844Y512644D01*
X670134Y514868D01*
X667043Y516520D01*
X663688Y517537D01*
X660200Y517881D01*
X657396Y517605D01*
X656596Y518802D01*
X657320Y520157D01*
X658337Y523512D01*
X658681Y527000D01*
X658337Y530488D01*
X657320Y533843D01*
X655668Y536934D01*
X653444Y539644D01*
X650734Y541868D01*
X647643Y543520D01*
X644288Y544538D01*
X640800Y544881D01*
D02*
G37*
G36*
X492500Y610104D02*
X491713Y610000D01*
X482000D01*
Y604008D01*
X480809Y601133D01*
X480396Y598000D01*
Y587500D01*
X480809Y584367D01*
X482018Y581448D01*
X483941Y578941D01*
X492786Y570097D01*
X494658Y567657D01*
X497687Y565333D01*
X501214Y563872D01*
X505000Y563373D01*
X508785Y563872D01*
X512312Y565333D01*
X515341Y567657D01*
X517665Y570686D01*
X519127Y574213D01*
X519625Y577999D01*
X519127Y581784D01*
X517665Y585311D01*
X515341Y588340D01*
X514146Y589257D01*
X514554Y590460D01*
X517540D01*
Y594500D01*
X511500D01*
Y598000D01*
X508000D01*
Y605540D01*
X505460D01*
Y601224D01*
X504191Y601133D01*
X503000Y604008D01*
Y610000D01*
X493287D01*
X492500Y610104D01*
D02*
G37*
G36*
X698900Y539984D02*
Y530500D01*
X708384D01*
X707048Y533725D01*
X704911Y536511D01*
X702125Y538648D01*
X698900Y539984D01*
D02*
G37*
G36*
X691900D02*
X688675Y538648D01*
X685889Y536511D01*
X683752Y533725D01*
X682416Y530500D01*
X691900D01*
Y539984D01*
D02*
G37*
G36*
X472000Y677590D02*
X456000D01*
X455009Y677393D01*
X454800Y677253D01*
X453568D01*
Y675793D01*
X453410Y675000D01*
Y662590D01*
X390000D01*
X389009Y662393D01*
X388169Y661831D01*
X387607Y660991D01*
X387410Y660000D01*
Y615000D01*
X387607Y614009D01*
X388169Y613169D01*
X389009Y612607D01*
X390000Y612410D01*
X409000D01*
X409442Y612498D01*
X409889Y612567D01*
X461889Y631567D01*
X461889Y631568D01*
X466370Y633197D01*
X467410Y632468D01*
Y617000D01*
X467607Y616009D01*
X468169Y615169D01*
X469009Y614607D01*
X470000Y614410D01*
X496000D01*
X496991Y614607D01*
X497831Y615169D01*
X498393Y616009D01*
X498482Y616460D01*
X498500D01*
Y616499D01*
X498501D01*
Y616549D01*
X498590Y617000D01*
Y619000D01*
Y624000D01*
Y629000D01*
X498501Y629451D01*
Y631501D01*
X498500D01*
Y631540D01*
X496250D01*
X496000Y631590D01*
X493073D01*
X490393Y634270D01*
X490879Y635443D01*
X493458D01*
Y643500D01*
X488858D01*
Y637341D01*
X488626Y637087D01*
X487588Y636473D01*
X487000Y636590D01*
X475142D01*
Y658557D01*
X474590D01*
Y675000D01*
X474393Y675991D01*
X473831Y676831D01*
X472991Y677393D01*
X472000Y677590D01*
D02*
G37*
G36*
X850000Y637039D02*
X846987Y636643D01*
X844180Y635480D01*
X841770Y633630D01*
X839920Y631220D01*
X838757Y628413D01*
X838360Y625400D01*
X838757Y622388D01*
X839920Y619580D01*
X841770Y617170D01*
X844180Y615320D01*
X846987Y614157D01*
X850000Y613760D01*
X853012Y614157D01*
X855820Y615320D01*
X858230Y617170D01*
X860080Y619580D01*
X861243Y622388D01*
X861639Y625400D01*
X861243Y628413D01*
X860080Y631220D01*
X858230Y633630D01*
X855820Y635480D01*
X853012Y636643D01*
X850000Y637039D01*
D02*
G37*
G36*
X400000Y610840D02*
X396987Y610443D01*
X394180Y609280D01*
X391770Y607430D01*
X389920Y605020D01*
X388757Y602212D01*
X388360Y599200D01*
X388757Y596188D01*
X389920Y593380D01*
X391770Y590970D01*
X394180Y589120D01*
X396987Y587957D01*
X400000Y587560D01*
X403013Y587957D01*
X405820Y589120D01*
X408230Y590970D01*
X410080Y593380D01*
X411243Y596188D01*
X411640Y599200D01*
X411243Y602212D01*
X410080Y605020D01*
X408230Y607430D01*
X405820Y609280D01*
X403013Y610443D01*
X400000Y610840D01*
D02*
G37*
G36*
X602100Y512984D02*
X598875Y511648D01*
X596089Y509511D01*
X593952Y506725D01*
X592616Y503500D01*
X602100D01*
Y512984D01*
D02*
G37*
G36*
X861540Y611540D02*
X838460D01*
Y588460D01*
X841386D01*
Y532568D01*
X799214Y490395D01*
X797132Y492477D01*
X785677Y481021D01*
X791897Y474802D01*
X792117Y474270D01*
X793486Y472486D01*
X795270Y471117D01*
X795802Y470897D01*
X802021Y464677D01*
X813476Y476132D01*
X811395Y478214D01*
X856091Y522909D01*
X857460Y524693D01*
X858320Y526771D01*
X858614Y529000D01*
Y588460D01*
X861540D01*
Y611540D01*
D02*
G37*
G36*
X618584Y496500D02*
X609100D01*
Y487016D01*
X612325Y488352D01*
X615111Y490489D01*
X617248Y493275D01*
X618584Y496500D01*
D02*
G37*
G36*
X708384Y523500D02*
X698900D01*
Y514016D01*
X702125Y515352D01*
X704911Y517489D01*
X707048Y520275D01*
X708384Y523500D01*
D02*
G37*
G36*
X691900D02*
X682416D01*
X683752Y520275D01*
X685889Y517489D01*
X688675Y515352D01*
X691900Y514016D01*
Y523500D01*
D02*
G37*
G36*
X609100Y512984D02*
Y503500D01*
X618584D01*
X617248Y506725D01*
X615111Y509511D01*
X612325Y511648D01*
X609100Y512984D01*
D02*
G37*
%LPD*%
G36*
X504026Y678606D02*
X479702D01*
X473602Y685206D01*
X470046D01*
Y690794D01*
X473352D01*
X479702Y697394D01*
X504026D01*
Y678606D01*
D02*
G37*
G36*
X472000Y656000D02*
Y638000D01*
X461000Y634000D01*
X409000Y615000D01*
X390000D01*
Y660000D01*
X456000D01*
Y675000D01*
X472000D01*
Y656000D01*
D02*
G37*
G36*
X492000Y629000D02*
X496000D01*
Y619000D01*
Y617000D01*
X470000D01*
Y634000D01*
X487000D01*
X492000Y629000D01*
D02*
G37*
%LPC*%
G36*
X283000Y411040D02*
X279988Y410643D01*
X277180Y409480D01*
X274770Y407630D01*
X272920Y405220D01*
X271757Y402413D01*
X271360Y399400D01*
X271757Y396387D01*
X272920Y393580D01*
X274770Y391170D01*
X277180Y389320D01*
X279988Y388157D01*
X283000Y387761D01*
X286012Y388157D01*
X288820Y389320D01*
X291230Y391170D01*
X293080Y393580D01*
X294243Y396387D01*
X294639Y399400D01*
X294243Y402413D01*
X293080Y405220D01*
X291230Y407630D01*
X288820Y409480D01*
X286012Y410643D01*
X283000Y411040D01*
D02*
G37*
G36*
Y385639D02*
X279988Y385243D01*
X277180Y384080D01*
X274770Y382230D01*
X272920Y379820D01*
X271757Y377012D01*
X271360Y374000D01*
X271757Y370987D01*
X272920Y368180D01*
X274770Y365770D01*
X277180Y363920D01*
X279988Y362757D01*
X283000Y362360D01*
X286012Y362757D01*
X288820Y363920D01*
X291230Y365770D01*
X293080Y368180D01*
X294243Y370987D01*
X294639Y374000D01*
X294243Y377012D01*
X293080Y379820D01*
X291230Y382230D01*
X288820Y384080D01*
X286012Y385243D01*
X283000Y385639D01*
D02*
G37*
G36*
X294540Y423530D02*
X284270D01*
Y413260D01*
X294540D01*
Y423530D01*
D02*
G37*
G36*
X281730D02*
X271460D01*
Y413260D01*
X281730D01*
Y423530D01*
D02*
G37*
G36*
X163921Y492561D02*
X160909Y492164D01*
X158101Y491001D01*
X155691Y489151D01*
X153841Y486741D01*
X152678Y483934D01*
X152282Y480921D01*
X152678Y477909D01*
X153841Y475101D01*
X155691Y472691D01*
X158101Y470841D01*
X160909Y469678D01*
X163921Y469282D01*
X164702Y469384D01*
X203395Y430692D01*
Y407692D01*
X203235Y407483D01*
X202339Y405321D01*
X202033Y403000D01*
X202339Y400679D01*
X203235Y398517D01*
X204660Y396660D01*
X206517Y395235D01*
X208679Y394339D01*
X211000Y394033D01*
X213321Y394339D01*
X215483Y395235D01*
X217340Y396660D01*
X218765Y398517D01*
X219661Y400679D01*
X219967Y403000D01*
X219661Y405321D01*
X218765Y407483D01*
X218605Y407692D01*
Y433842D01*
X218346Y435810D01*
X217901Y436885D01*
X217586Y437645D01*
X216378Y439220D01*
X175458Y480140D01*
X175561Y480921D01*
X175164Y483934D01*
X174001Y486741D01*
X172151Y489151D01*
X169741Y491001D01*
X166934Y492164D01*
X163921Y492561D01*
D02*
G37*
G36*
X272583Y300839D02*
X270991Y300522D01*
X264003D01*
Y300522D01*
X263190Y299809D01*
X261999Y299966D01*
X259679Y299661D01*
X257516Y298765D01*
X255659Y297340D01*
X254234Y295483D01*
X253338Y293320D01*
X253033Y290999D01*
X253338Y288679D01*
X254234Y286516D01*
X255659Y284659D01*
X257516Y283234D01*
X259679Y282338D01*
X261999Y282033D01*
X264320Y282338D01*
X266483Y283234D01*
X267795Y284241D01*
X267849Y284252D01*
X269516Y285366D01*
X275028Y290878D01*
X281163D01*
Y300522D01*
X274175D01*
X272583Y300839D01*
D02*
G37*
G36*
X377000Y370967D02*
X374679Y370661D01*
X372517Y369765D01*
X370660Y368340D01*
X369235Y366483D01*
X368339Y364321D01*
X368033Y362000D01*
X368339Y359679D01*
X369235Y357517D01*
X370660Y355660D01*
X371861Y354738D01*
Y299443D01*
X370591Y299012D01*
X370340Y299340D01*
X368483Y300765D01*
X366320Y301661D01*
X363999Y301966D01*
X361679Y301661D01*
X359516Y300765D01*
X357659Y299340D01*
X356893Y298341D01*
X355297Y298249D01*
X354273Y299273D01*
X352771Y300277D01*
X351000Y300629D01*
X351000Y300629D01*
X341717D01*
X341717Y300629D01*
X341179Y300522D01*
X332837D01*
Y290878D01*
X349576D01*
X350727Y289726D01*
X350727Y289726D01*
X352229Y288723D01*
X354001Y288370D01*
X356346D01*
X357659Y286659D01*
X359516Y285234D01*
X361679Y284338D01*
X362464Y284235D01*
X362873Y283032D01*
X355279Y275439D01*
X341417D01*
X339825Y275122D01*
X332837D01*
Y265478D01*
X339825D01*
X341417Y265161D01*
X357408D01*
X359374Y265553D01*
X361041Y266666D01*
X380634Y286259D01*
X381748Y287926D01*
X382139Y289892D01*
Y354738D01*
X383340Y355660D01*
X384765Y357517D01*
X385661Y359679D01*
X385967Y362000D01*
X385661Y364321D01*
X384765Y366483D01*
X383340Y368340D01*
X381483Y369765D01*
X379321Y370661D01*
X377000Y370967D01*
D02*
G37*
G36*
X476320Y286222D02*
Y276020D01*
X486522D01*
X486293Y277763D01*
X485130Y280570D01*
X483280Y282980D01*
X480870Y284830D01*
X478063Y285993D01*
X476320Y286222D01*
D02*
G37*
G36*
X110040Y443359D02*
X93720Y427039D01*
X102434Y418325D01*
Y395190D01*
X70940Y363695D01*
X70679Y363661D01*
X68517Y362765D01*
X66660Y361340D01*
X65235Y359483D01*
X64339Y357321D01*
X64033Y355000D01*
X64339Y352679D01*
X65235Y350517D01*
X66660Y348660D01*
X68517Y347235D01*
X70679Y346339D01*
X73000Y346033D01*
X75321Y346339D01*
X77483Y347235D01*
X79340Y348660D01*
X80765Y350517D01*
X81661Y352679D01*
X81695Y352940D01*
X115417Y386662D01*
X116626Y388237D01*
X117385Y390071D01*
X117645Y392039D01*
Y418325D01*
X126360Y427039D01*
X110040Y443359D01*
D02*
G37*
G36*
X283000Y360240D02*
X279988Y359843D01*
X277180Y358680D01*
X274770Y356830D01*
X272920Y354420D01*
X271757Y351613D01*
X271360Y348600D01*
X271757Y345588D01*
X272920Y342780D01*
X274770Y340370D01*
X277180Y338520D01*
X279988Y337357D01*
X283000Y336960D01*
X286012Y337357D01*
X288820Y338520D01*
X291230Y340370D01*
X293080Y342780D01*
X294243Y345588D01*
X294639Y348600D01*
X294243Y351613D01*
X293080Y354420D01*
X291230Y356830D01*
X288820Y358680D01*
X286012Y359843D01*
X283000Y360240D01*
D02*
G37*
G36*
X438999Y345966D02*
X436678Y345661D01*
X434516Y344765D01*
X432659Y343340D01*
X431509Y341842D01*
X431033Y341747D01*
X429366Y340633D01*
X405501Y316768D01*
X403999Y316966D01*
X401678Y316661D01*
X399516Y315765D01*
X397659Y314340D01*
X396234Y312483D01*
X395338Y310320D01*
X395033Y307999D01*
X395338Y305679D01*
X396234Y303516D01*
X397659Y301659D01*
X399516Y300234D01*
X401678Y299338D01*
X403999Y299033D01*
X406320Y299338D01*
X408483Y300234D01*
X410340Y301659D01*
X411765Y303516D01*
X412660Y305679D01*
X412966Y307999D01*
X412768Y309501D01*
X433376Y330109D01*
X434516Y329234D01*
X436678Y328338D01*
X438999Y328033D01*
X441320Y328338D01*
X443483Y329234D01*
X445340Y330659D01*
X446764Y332516D01*
X447660Y334679D01*
X447966Y336999D01*
X447660Y339320D01*
X446764Y341483D01*
X445340Y343340D01*
X443483Y344765D01*
X441320Y345661D01*
X438999Y345966D01*
D02*
G37*
G36*
X145961Y461165D02*
X138746Y453950D01*
X140141Y452880D01*
X142948Y451718D01*
X145961Y451321D01*
X148973Y451718D01*
X151780Y452880D01*
X153175Y453950D01*
X145961Y461165D01*
D02*
G37*
G36*
X128000Y456640D02*
X124987Y456243D01*
X122180Y455080D01*
X120786Y454010D01*
X128000Y446796D01*
X135214Y454010D01*
X133820Y455080D01*
X131012Y456243D01*
X128000Y456640D01*
D02*
G37*
G36*
X118990Y452214D02*
X117920Y450820D01*
X116757Y448013D01*
X116360Y445000D01*
X116757Y441987D01*
X117920Y439180D01*
X118990Y437786D01*
X126204Y445000D01*
X118990Y452214D01*
D02*
G37*
G36*
X274780Y473780D02*
X264510D01*
Y463510D01*
X274780D01*
Y473780D01*
D02*
G37*
G36*
X136950Y470175D02*
X135880Y468780D01*
X134718Y465973D01*
X134321Y462961D01*
X134718Y459948D01*
X135880Y457141D01*
X136950Y455746D01*
X144164Y462961D01*
X136950Y470175D01*
D02*
G37*
G36*
X154971Y470175D02*
X147757Y462961D01*
X154971Y455746D01*
X156041Y457141D01*
X157203Y459948D01*
X157600Y462961D01*
X157203Y465973D01*
X156041Y468780D01*
X154971Y470175D01*
D02*
G37*
G36*
X281730Y436340D02*
X271460D01*
Y426070D01*
X281730D01*
Y436340D01*
D02*
G37*
G36*
X287590Y473780D02*
X277320D01*
Y463510D01*
X287590D01*
Y473780D01*
D02*
G37*
G36*
X223980D02*
X213778D01*
X214007Y472037D01*
X215170Y469230D01*
X217020Y466820D01*
X219430Y464970D01*
X222237Y463807D01*
X223980Y463578D01*
Y473780D01*
D02*
G37*
G36*
X137010Y452214D02*
X129796Y445000D01*
X137010Y437786D01*
X138080Y439180D01*
X139243Y441987D01*
X139640Y445000D01*
X139243Y448013D01*
X138080Y450820D01*
X137010Y452214D01*
D02*
G37*
G36*
X128000Y443204D02*
X120786Y435990D01*
X122180Y434920D01*
X124987Y433757D01*
X128000Y433360D01*
X131012Y433757D01*
X133820Y434920D01*
X135214Y435990D01*
X128000Y443204D01*
D02*
G37*
G36*
X294540Y436340D02*
X284270D01*
Y426070D01*
X294540D01*
Y436340D01*
D02*
G37*
G36*
X473780Y286222D02*
X472037Y285993D01*
X469230Y284830D01*
X466820Y282980D01*
X464970Y280570D01*
X463807Y277763D01*
X463578Y276020D01*
X473780D01*
Y286222D01*
D02*
G37*
G36*
X118310Y122192D02*
X116568Y121962D01*
X113761Y120800D01*
X111350Y118950D01*
X109500Y116539D01*
X108337Y113732D01*
X108108Y111990D01*
X118310D01*
Y122192D01*
D02*
G37*
G36*
X131053Y109450D02*
X120850D01*
Y99247D01*
X122593Y99477D01*
X125400Y100639D01*
X127811Y102489D01*
X129661Y104900D01*
X130823Y107707D01*
X131053Y109450D01*
D02*
G37*
G36*
X118310D02*
X108108D01*
X108337Y107707D01*
X109500Y104900D01*
X111350Y102489D01*
X113761Y100639D01*
X116568Y99477D01*
X118310Y99247D01*
Y109450D01*
D02*
G37*
G36*
X82480Y145680D02*
X72278D01*
X72507Y143938D01*
X73670Y141130D01*
X75520Y138720D01*
X77930Y136870D01*
X80737Y135707D01*
X82480Y135478D01*
Y145680D01*
D02*
G37*
G36*
X58350Y158590D02*
X55338Y158193D01*
X52530Y157030D01*
X50120Y155180D01*
X48270Y152770D01*
X47107Y149963D01*
X46710Y146950D01*
X47107Y143938D01*
X48270Y141130D01*
X50120Y138720D01*
X52530Y136870D01*
X55338Y135707D01*
X58350Y135310D01*
X61363Y135707D01*
X64170Y136870D01*
X66580Y138720D01*
X68430Y141130D01*
X69593Y143938D01*
X69990Y146950D01*
X69593Y149963D01*
X68430Y152770D01*
X66580Y155180D01*
X64170Y157030D01*
X61363Y158193D01*
X58350Y158590D01*
D02*
G37*
G36*
X120850Y122192D02*
Y111990D01*
X131053D01*
X130823Y113732D01*
X129661Y116539D01*
X127811Y118950D01*
X125400Y120800D01*
X122593Y121962D01*
X120850Y122192D01*
D02*
G37*
G36*
X166222Y72680D02*
X156020D01*
Y62478D01*
X157762Y62707D01*
X160570Y63870D01*
X162980Y65720D01*
X164830Y68130D01*
X165993Y70938D01*
X166222Y72680D01*
D02*
G37*
G36*
X153480D02*
X143278D01*
X143507Y70938D01*
X144670Y68130D01*
X146520Y65720D01*
X148930Y63870D01*
X151737Y62707D01*
X153480Y62478D01*
Y72680D01*
D02*
G37*
G36*
X129350Y85590D02*
X126337Y85193D01*
X123530Y84030D01*
X121120Y82180D01*
X119270Y79770D01*
X118107Y76963D01*
X117710Y73950D01*
X118107Y70938D01*
X119270Y68130D01*
X121120Y65720D01*
X123530Y63870D01*
X126337Y62707D01*
X129350Y62311D01*
X132362Y62707D01*
X135170Y63870D01*
X137580Y65720D01*
X139430Y68130D01*
X140593Y70938D01*
X140990Y73950D01*
X140593Y76963D01*
X139430Y79770D01*
X137580Y82180D01*
X135170Y84030D01*
X132362Y85193D01*
X129350Y85590D01*
D02*
G37*
G36*
X94180Y122359D02*
X91168Y121962D01*
X88361Y120800D01*
X85950Y118950D01*
X84100Y116539D01*
X82937Y113732D01*
X82541Y110720D01*
X82937Y107707D01*
X84100Y104900D01*
X85950Y102489D01*
X88361Y100639D01*
X91168Y99477D01*
X94180Y99080D01*
X97193Y99477D01*
X100000Y100639D01*
X102411Y102489D01*
X104261Y104900D01*
X105423Y107707D01*
X105820Y110720D01*
X105423Y113732D01*
X104261Y116539D01*
X102411Y118950D01*
X100000Y120800D01*
X97193Y121962D01*
X94180Y122359D01*
D02*
G37*
G36*
X156020Y85422D02*
Y75220D01*
X166222D01*
X165993Y76963D01*
X164830Y79770D01*
X162980Y82180D01*
X160570Y84030D01*
X157762Y85193D01*
X156020Y85422D01*
D02*
G37*
G36*
X153480D02*
X151737Y85193D01*
X148930Y84030D01*
X146520Y82180D01*
X144670Y79770D01*
X143507Y76963D01*
X143278Y75220D01*
X153480D01*
Y85422D01*
D02*
G37*
G36*
X95222Y145680D02*
X85020D01*
Y135478D01*
X86763Y135707D01*
X89570Y136870D01*
X91980Y138720D01*
X93830Y141130D01*
X94993Y143938D01*
X95222Y145680D01*
D02*
G37*
G36*
X271313Y269030D02*
X264003D01*
Y265478D01*
X271313D01*
Y269030D01*
D02*
G37*
G36*
X36490Y287590D02*
X13410D01*
Y264510D01*
X36490D01*
Y287590D01*
D02*
G37*
G36*
X486522Y273480D02*
X476320D01*
Y263278D01*
X478063Y263507D01*
X480870Y264670D01*
X483280Y266520D01*
X485130Y268930D01*
X486293Y271737D01*
X486522Y273480D01*
D02*
G37*
G36*
X281163Y275122D02*
X273853D01*
Y271570D01*
X281163D01*
Y275122D01*
D02*
G37*
G36*
X271313D02*
X264003D01*
Y271570D01*
X271313D01*
Y275122D01*
D02*
G37*
G36*
X281163Y269030D02*
X273853D01*
Y265478D01*
X281163D01*
Y269030D01*
D02*
G37*
G36*
X486590Y235490D02*
X463510D01*
Y212410D01*
X486590D01*
Y235490D01*
D02*
G37*
G36*
X85020Y158422D02*
Y148220D01*
X95222D01*
X94993Y149963D01*
X93830Y152770D01*
X91980Y155180D01*
X89570Y157030D01*
X86763Y158193D01*
X85020Y158422D01*
D02*
G37*
G36*
X82480D02*
X80737Y158193D01*
X77930Y157030D01*
X75520Y155180D01*
X73670Y152770D01*
X72507Y149963D01*
X72278Y148220D01*
X82480D01*
Y158422D01*
D02*
G37*
G36*
X473780Y273480D02*
X463578D01*
X463807Y271737D01*
X464970Y268930D01*
X466820Y266520D01*
X469230Y264670D01*
X472037Y263507D01*
X473780Y263278D01*
Y273480D01*
D02*
G37*
G36*
X65000Y289967D02*
X62679Y289661D01*
X60517Y288765D01*
X58660Y287340D01*
X57235Y285483D01*
X56339Y283321D01*
X56033Y281000D01*
X56339Y278679D01*
X57235Y276517D01*
X57395Y276308D01*
Y268450D01*
X37609Y248664D01*
X36406Y249258D01*
X36590Y250650D01*
X36193Y253663D01*
X35030Y256470D01*
X33180Y258880D01*
X30770Y260730D01*
X27963Y261893D01*
X24950Y262290D01*
X21937Y261893D01*
X19130Y260730D01*
X16720Y258880D01*
X14870Y256470D01*
X13707Y253663D01*
X13311Y250650D01*
X13707Y247638D01*
X14870Y244830D01*
X16720Y242420D01*
X19130Y240570D01*
X21937Y239407D01*
X24950Y239011D01*
X26342Y239194D01*
X26936Y237991D01*
X25731Y236787D01*
X24950Y236890D01*
X21937Y236493D01*
X19130Y235330D01*
X16720Y233480D01*
X14870Y231070D01*
X13707Y228263D01*
X13311Y225250D01*
X13707Y222237D01*
X14870Y219430D01*
X16720Y217020D01*
X19130Y215170D01*
X21937Y214007D01*
X24950Y213610D01*
X27963Y214007D01*
X30770Y215170D01*
X33180Y217020D01*
X35030Y219430D01*
X36193Y222237D01*
X36590Y225250D01*
X36487Y226031D01*
X70378Y259922D01*
X71586Y261497D01*
X72346Y263332D01*
X72605Y265300D01*
Y276308D01*
X72765Y276517D01*
X73661Y278679D01*
X73967Y281000D01*
X73661Y283321D01*
X72765Y285483D01*
X71340Y287340D01*
X69483Y288765D01*
X67321Y289661D01*
X65000Y289967D01*
D02*
G37*
G36*
X475050Y260989D02*
X472037Y260593D01*
X469230Y259430D01*
X466820Y257580D01*
X464970Y255170D01*
X463807Y252362D01*
X463410Y249350D01*
X463807Y246338D01*
X464970Y243530D01*
X466820Y241120D01*
X469230Y239270D01*
X472037Y238107D01*
X475050Y237710D01*
X478063Y238107D01*
X480870Y239270D01*
X483280Y241120D01*
X485130Y243530D01*
X486293Y246338D01*
X486689Y249350D01*
X486293Y252362D01*
X485130Y255170D01*
X483280Y257580D01*
X480870Y259430D01*
X478063Y260593D01*
X475050Y260989D01*
D02*
G37*
G36*
X251920Y486522D02*
Y476320D01*
X262122D01*
X261893Y478063D01*
X260730Y480870D01*
X258880Y483280D01*
X256470Y485130D01*
X253663Y486293D01*
X251920Y486522D01*
D02*
G37*
G36*
X287590Y486590D02*
X277320D01*
Y476320D01*
X287590D01*
Y486590D01*
D02*
G37*
G36*
X223980Y486522D02*
X222237Y486293D01*
X219430Y485130D01*
X217020Y483280D01*
X215170Y480870D01*
X214007Y478063D01*
X213778Y476320D01*
X223980D01*
Y486522D01*
D02*
G37*
G36*
X226520Y486522D02*
Y476320D01*
X236722D01*
X236493Y478063D01*
X235330Y480870D01*
X233480Y483280D01*
X231070Y485130D01*
X228263Y486293D01*
X226520Y486522D01*
D02*
G37*
G36*
X262122Y473780D02*
X251920D01*
Y463578D01*
X253663Y463807D01*
X256470Y464970D01*
X258880Y466820D01*
X260730Y469230D01*
X261893Y472037D01*
X262122Y473780D01*
D02*
G37*
G36*
X236722D02*
X226520D01*
Y463578D01*
X228263Y463807D01*
X231070Y464970D01*
X233480Y466820D01*
X235330Y469230D01*
X236493Y472037D01*
X236722Y473780D01*
D02*
G37*
G36*
X249380D02*
X239178D01*
X239407Y472037D01*
X240570Y469230D01*
X242420Y466820D01*
X244830Y464970D01*
X247638Y463807D01*
X249380Y463578D01*
Y473780D01*
D02*
G37*
G36*
Y486522D02*
X247638Y486293D01*
X244830Y485130D01*
X242420Y483280D01*
X240570Y480870D01*
X239407Y478063D01*
X239178Y476320D01*
X249380D01*
Y486522D01*
D02*
G37*
G36*
X274780Y486590D02*
X264510D01*
Y476320D01*
X274780D01*
Y486590D01*
D02*
G37*
G36*
X145961Y474600D02*
X142948Y474203D01*
X140141Y473041D01*
X138746Y471971D01*
X145961Y464757D01*
X153175Y471971D01*
X151780Y473041D01*
X148973Y474203D01*
X145961Y474600D01*
D02*
G37*
%LPD*%
D11*
X461042Y733000D02*
D03*
X490958D02*
D03*
X467042Y647000D02*
D03*
X496958D02*
D03*
D18*
X434000Y733000D02*
X461042D01*
X502001Y577999D02*
X505000D01*
X110040Y392039D02*
Y427039D01*
X73000Y355000D02*
X110040Y392039D01*
X163921Y480921D02*
X211000Y433842D01*
Y403000D02*
Y433842D01*
X513000Y624000D02*
X523000Y614000D01*
X572000Y406000D02*
X727000D01*
X771270Y516033D02*
X807033D01*
X716237Y461000D02*
X771270Y516033D01*
X609940Y461000D02*
X716237D01*
X492500Y587500D02*
X502001Y577999D01*
X492500Y587500D02*
Y598000D01*
X461042Y733000D02*
X461042Y733000D01*
Y705735D02*
Y733000D01*
Y705735D02*
X463077Y703700D01*
X24950Y225250D02*
X65000Y265300D01*
Y281000D01*
X550000Y428000D02*
X572000Y406000D01*
X727000D02*
X778500Y457500D01*
D21*
X341417Y270300D02*
X357408D01*
X377000Y289892D02*
Y362000D01*
X357408Y270300D02*
X377000Y289892D01*
X432999Y336999D02*
X438999D01*
X403999Y307999D02*
X432999Y336999D01*
X265882Y288999D02*
X272583Y295700D01*
X263882Y290999D02*
X265882Y288999D01*
X261999Y290999D02*
X263882D01*
D22*
X341417Y295700D02*
X341717Y296000D01*
X351000D01*
X354001Y292999D01*
X363999D01*
D24*
X250650Y475050D02*
D03*
X225250D02*
D03*
X128000Y445000D02*
D03*
X145961Y462961D02*
D03*
X163921Y480921D02*
D03*
X283000Y399400D02*
D03*
Y374000D02*
D03*
Y348600D02*
D03*
X475050Y249350D02*
D03*
Y274750D02*
D03*
X624600Y850000D02*
D03*
X599200D02*
D03*
X400000Y624600D02*
D03*
Y599200D02*
D03*
X850000Y625400D02*
D03*
Y650800D02*
D03*
X24950Y250650D02*
D03*
Y225250D02*
D03*
X58350Y146950D02*
D03*
X83750D02*
D03*
X94180Y110720D02*
D03*
X119580D02*
D03*
X129350Y73950D02*
D03*
X154750D02*
D03*
D25*
X276050Y475050D02*
D03*
X650000Y850000D02*
D03*
X32950Y146950D02*
D03*
X68780Y110720D02*
D03*
X103950Y73950D02*
D03*
D26*
X110040Y427039D02*
D03*
D27*
X283000Y424800D02*
D03*
X475050Y223950D02*
D03*
X400000Y650000D02*
D03*
X850000Y600000D02*
D03*
X24950Y276050D02*
D03*
D28*
X435000Y758000D02*
D03*
Y733000D02*
D03*
D29*
X436000Y534000D02*
D03*
Y571000D02*
D03*
D30*
X807033Y516033D02*
D03*
X754000Y463000D02*
D03*
D31*
X657000Y428000D02*
D03*
X707000D02*
D03*
X550000D02*
D03*
X600000D02*
D03*
D32*
X660200Y500000D02*
D03*
X605600D02*
D03*
X551000D02*
D03*
X750000Y527000D02*
D03*
X695400D02*
D03*
X640800D02*
D03*
D33*
X505000Y577999D02*
D03*
D34*
X166000Y458000D02*
D03*
X521000Y599000D02*
D03*
X545000Y620000D02*
D03*
X508000Y635000D02*
D03*
X503000Y733000D02*
D03*
X497000Y662000D02*
D03*
X508000Y647000D02*
D03*
X130000Y420000D02*
D03*
X90000D02*
D03*
X170000Y320000D02*
D03*
X150000Y300000D02*
D03*
X130000Y280000D02*
D03*
X290000Y220000D02*
D03*
X273000Y205000D02*
D03*
X289000Y192000D02*
D03*
X273000Y179000D02*
D03*
X248000Y210000D02*
D03*
X247000Y184000D02*
D03*
X230000Y200000D02*
D03*
Y220000D02*
D03*
X290000Y250000D02*
D03*
Y280000D02*
D03*
Y310000D02*
D03*
X310000D02*
D03*
Y330000D02*
D03*
Y380000D02*
D03*
Y400000D02*
D03*
X273000Y254000D02*
D03*
X474000Y621000D02*
D03*
Y630000D02*
D03*
X483000Y621000D02*
D03*
Y630000D02*
D03*
X320000Y310000D02*
D03*
Y330000D02*
D03*
Y400000D02*
D03*
Y380000D02*
D03*
X533000Y550000D02*
D03*
X553000D02*
D03*
X573000D02*
D03*
X518000D02*
D03*
X642000Y478000D02*
D03*
X680000Y479000D02*
D03*
X661000Y474000D02*
D03*
D35*
X211000Y403000D02*
D03*
X363999Y292999D02*
D03*
X377000Y362000D02*
D03*
X438999Y336999D02*
D03*
X403999Y307999D02*
D03*
X523000Y614000D02*
D03*
X65000Y281000D02*
D03*
X261999Y290999D02*
D03*
X73000Y355000D02*
D03*
X75000Y186000D02*
D03*
D36*
X341417Y295700D02*
D03*
Y270300D02*
D03*
X272583Y270300D02*
D03*
Y295700D02*
D03*
D37*
X799577Y478577D02*
D03*
X778423Y457423D02*
D03*
D38*
X609940Y461000D02*
D03*
X552060D02*
D03*
D39*
X511500Y598000D02*
D03*
Y624000D02*
D03*
X502000D02*
D03*
X492500D02*
D03*
Y598000D02*
D03*
D40*
X463077Y672300D02*
D03*
Y703700D02*
D03*
D41*
Y688000D02*
D03*
D42*
X850000Y529000D02*
Y599600D01*
X799577Y478577D02*
X850000Y529000D01*
M02*
