G04 Layer_Color=65535*
%FSLAX44Y44*%
%MOMM*%
G71*
G01*
G75*
%ADD13C,0.5000*%
%ADD47C,0.2540*%
%ADD48C,0.1524*%
%ADD49C,0.1500*%
D13*
X451000Y754000D02*
X611000D01*
Y514000D02*
Y754000D01*
X451000Y514000D02*
Y754000D01*
Y514000D02*
X611000D01*
X426000Y689000D02*
X451000D01*
X426000Y599000D02*
Y689000D01*
Y599000D02*
X451000D01*
D47*
X160476Y446705D02*
G03*
X128705Y478476I-26476J5295D01*
G01*
X107524Y457295D02*
G03*
X139295Y425524I26476J-5295D01*
G01*
X139303Y425484D02*
X160516Y446697D01*
X278000Y283000D02*
X393000D01*
X79000Y74000D02*
X116000Y37000D01*
X79000Y74000D02*
Y117000D01*
X116000Y37000D02*
X122000D01*
X79000Y117000D02*
Y174000D01*
X278000Y382500D02*
X393000D01*
Y283000D02*
Y382500D01*
X194000Y282000D02*
Y382000D01*
X79000Y282000D02*
X194000D01*
X79000D02*
Y382000D01*
X194000D01*
X375000Y525000D02*
X525000Y375000D01*
X350000Y500000D02*
X500000Y350000D01*
X632000Y378000D02*
Y478000D01*
X732000D01*
X632000Y378000D02*
X732000D01*
Y478000D01*
X525000Y378000D02*
Y478000D01*
X625000D01*
X525000Y378000D02*
X625000D01*
Y478000D01*
X585000Y870000D02*
X665000D01*
X585000Y840000D02*
Y870000D01*
Y840000D02*
X665000D01*
Y870000D01*
X385000Y585000D02*
Y665000D01*
Y585000D02*
X415000Y585000D01*
X415000Y665000D01*
X385000D02*
X415000D01*
X122000Y37000D02*
X355000D01*
X392000Y117000D02*
Y174000D01*
Y74000D02*
Y117000D01*
X355000Y37000D02*
X392000Y74000D01*
X350000Y230000D02*
X392000Y188000D01*
Y174000D02*
Y188000D01*
X79000Y173000D02*
Y186500D01*
X122500Y230000D01*
X350000D01*
X278000Y283000D02*
Y382500D01*
X151705Y424909D02*
X148114D01*
X144523Y421318D01*
Y417727D01*
X151705Y410546D01*
X155295D01*
X158886Y414136D01*
Y417727D01*
X155295Y421318D01*
X151705Y417727D01*
X153500Y430296D02*
X164273Y419523D01*
X171455Y426705D01*
X175046Y430296D02*
X178637Y433887D01*
X176841Y432091D01*
X166068Y442864D01*
Y439273D01*
X717483Y395590D02*
X722561D01*
X725100Y398129D01*
Y408286D01*
X722561Y410825D01*
X717483D01*
X714944Y408286D01*
Y398129D01*
X717483Y395590D01*
X709865D02*
Y408286D01*
X707326Y410825D01*
X702248D01*
X699709Y408286D01*
Y395590D01*
X694630D02*
X684474D01*
X689552D01*
Y410825D01*
X669239D02*
X679395D01*
X669239Y400668D01*
Y398129D01*
X671778Y395590D01*
X676856D01*
X679395Y398129D01*
X654004Y410825D02*
X664160D01*
X654004Y400668D01*
Y398129D01*
X656543Y395590D01*
X661621D01*
X664160Y398129D01*
X648925D02*
X646386Y395590D01*
X641308D01*
X638768Y398129D01*
Y408286D01*
X641308Y410825D01*
X646386D01*
X648925Y408286D01*
Y398129D01*
X610000Y394765D02*
X604922D01*
X607461D01*
Y410000D01*
X610000D01*
X604922D01*
X597304D02*
Y394765D01*
X587147Y410000D01*
Y394765D01*
X571912Y410000D02*
X582069D01*
X571912Y399843D01*
Y397304D01*
X574451Y394765D01*
X579530D01*
X582069Y397304D01*
X556677Y410000D02*
X566834D01*
X556677Y399843D01*
Y397304D01*
X559216Y394765D01*
X564295D01*
X566834Y397304D01*
X551599D02*
X549060Y394765D01*
X543981D01*
X541442Y397304D01*
Y407461D01*
X543981Y410000D01*
X549060D01*
X551599Y407461D01*
Y397304D01*
X848250Y601500D02*
X863485D01*
Y593882D01*
X860946Y591343D01*
X855867D01*
X853328Y593882D01*
Y601500D01*
Y596422D02*
X848250Y591343D01*
X863485Y576108D02*
Y586265D01*
X855867D01*
X858407Y581187D01*
Y578647D01*
X855867Y576108D01*
X850789D01*
X848250Y578647D01*
Y583726D01*
X850789Y586265D01*
X29000Y148000D02*
X13765D01*
Y155618D01*
X16304Y158157D01*
X21383D01*
X23922Y155618D01*
Y148000D01*
X13765Y163235D02*
X29000D01*
Y173392D01*
X16304Y188627D02*
X13765Y186088D01*
Y181009D01*
X16304Y178470D01*
X18843D01*
X21383Y181009D01*
Y186088D01*
X23922Y188627D01*
X26461D01*
X29000Y186088D01*
Y181009D01*
X26461Y178470D01*
X16304Y193705D02*
X13765Y196244D01*
Y201323D01*
X16304Y203862D01*
X18843D01*
X21383Y201323D01*
Y198784D01*
Y201323D01*
X23922Y203862D01*
X26461D01*
X29000Y201323D01*
Y196244D01*
X26461Y193705D01*
X295000Y479000D02*
Y494235D01*
X302617D01*
X305157Y491696D01*
Y486618D01*
X302617Y484078D01*
X295000D01*
X310235Y494235D02*
Y479000D01*
X320392D01*
X335627Y491696D02*
X333088Y494235D01*
X328009D01*
X325470Y491696D01*
Y489157D01*
X328009Y486618D01*
X333088D01*
X335627Y484078D01*
Y481539D01*
X333088Y479000D01*
X328009D01*
X325470Y481539D01*
X350862Y479000D02*
X340705D01*
X350862Y489157D01*
Y491696D01*
X348323Y494235D01*
X343244D01*
X340705Y491696D01*
X387000Y576600D02*
X402235D01*
Y568983D01*
X399696Y566443D01*
X394618D01*
X392078Y568983D01*
Y576600D01*
X402235Y561365D02*
X387000D01*
Y553747D01*
X389539Y551208D01*
X392078D01*
X394618Y553747D01*
Y561365D01*
Y553747D01*
X397157Y551208D01*
X399696D01*
X402235Y553747D01*
Y561365D01*
X399696Y535973D02*
X402235Y538512D01*
Y543591D01*
X399696Y546130D01*
X397157D01*
X394618Y543591D01*
Y538512D01*
X392078Y535973D01*
X389539D01*
X387000Y538512D01*
Y543591D01*
X389539Y546130D01*
X399696Y530895D02*
X402235Y528356D01*
Y523277D01*
X399696Y520738D01*
X397157D01*
X394618Y523277D01*
Y525816D01*
Y523277D01*
X392078Y520738D01*
X389539D01*
X387000Y523277D01*
Y528356D01*
X389539Y530895D01*
X671200Y850000D02*
Y865235D01*
X678818D01*
X681357Y862696D01*
Y857617D01*
X678818Y855078D01*
X671200D01*
X686435Y865235D02*
Y850000D01*
X694053D01*
X696592Y852539D01*
Y855078D01*
X694053Y857617D01*
X686435D01*
X694053D01*
X696592Y860157D01*
Y862696D01*
X694053Y865235D01*
X686435D01*
X711827Y862696D02*
X709288Y865235D01*
X704209D01*
X701670Y862696D01*
Y860157D01*
X704209Y857617D01*
X709288D01*
X711827Y855078D01*
Y852539D01*
X709288Y850000D01*
X704209D01*
X701670Y852539D01*
X727062Y850000D02*
X716905D01*
X727062Y860157D01*
Y862696D01*
X724523Y865235D01*
X719444D01*
X716905Y862696D01*
X783171Y481126D02*
X779581D01*
X775990Y477535D01*
Y473944D01*
X783171Y466762D01*
X786762D01*
X790353Y470353D01*
Y473944D01*
X802922Y482922D02*
X795740Y475740D01*
Y490104D01*
X793944Y491899D01*
X790353D01*
X786762Y488308D01*
Y484717D01*
X452000Y767000D02*
Y782235D01*
X459618D01*
X462157Y779696D01*
Y774617D01*
X459618Y772078D01*
X452000D01*
X477392Y779696D02*
X474853Y782235D01*
X469774D01*
X467235Y779696D01*
Y777157D01*
X469774Y774617D01*
X474853D01*
X477392Y772078D01*
Y769539D01*
X474853Y767000D01*
X469774D01*
X467235Y769539D01*
X482470Y767000D02*
X487548D01*
X485009D01*
Y782235D01*
X482470Y779696D01*
X758157Y555539D02*
Y565696D01*
X755618Y568235D01*
X750539D01*
X748000Y565696D01*
Y555539D01*
X750539Y553000D01*
X755618D01*
X753078Y558078D02*
X758157Y553000D01*
X755618D02*
X758157Y555539D01*
X763235Y565696D02*
X765774Y568235D01*
X770853D01*
X773392Y565696D01*
Y563157D01*
X770853Y560617D01*
X768313D01*
X770853D01*
X773392Y558078D01*
Y555539D01*
X770853Y553000D01*
X765774D01*
X763235Y555539D01*
X476235Y539000D02*
X461000D01*
Y528843D01*
Y574000D02*
X476235D01*
X461000Y563843D01*
X476235D01*
X468618Y714000D02*
Y703843D01*
X473696Y708922D02*
X463539D01*
X461000Y698765D02*
Y693687D01*
Y696226D01*
X476235D01*
X473696Y698765D01*
X461000Y675912D02*
Y686069D01*
X471157Y675912D01*
X473696D01*
X476235Y678452D01*
Y683530D01*
X473696Y686069D01*
X471157Y741696D02*
X468618Y744235D01*
X463539D01*
X461000Y741696D01*
Y731539D01*
X463539Y729000D01*
X468618D01*
X471157Y731539D01*
Y736618D01*
X466078D01*
X476235Y729000D02*
Y744235D01*
X486392Y729000D01*
Y744235D01*
X491470D02*
Y729000D01*
X499088D01*
X501627Y731539D01*
Y741696D01*
X499088Y744235D01*
X491470D01*
X135000Y332617D02*
X145157D01*
X327500D02*
X337657D01*
X332578Y337696D02*
Y327539D01*
X204618Y114235D02*
X199539D01*
X197000Y111696D01*
Y101539D01*
X199539Y99000D01*
X204618D01*
X207157Y101539D01*
Y111696D01*
X204618Y114235D01*
X212235Y99000D02*
Y109157D01*
X219853D01*
X222392Y106617D01*
Y99000D01*
X227470D02*
X237627Y109157D01*
X250323Y114235D02*
X245244D01*
X242705Y111696D01*
Y101539D01*
X245244Y99000D01*
X250323D01*
X252862Y101539D01*
Y111696D01*
X250323Y114235D01*
X260480Y99000D02*
Y111696D01*
Y106617D01*
X257940D01*
X263019D01*
X260480D01*
Y111696D01*
X263019Y114235D01*
X273175Y99000D02*
Y111696D01*
Y106617D01*
X270636D01*
X275714D01*
X273175D01*
Y111696D01*
X275714Y114235D01*
D48*
X857012Y519600D02*
G03*
X857012Y519600I-762J0D01*
G01*
X822062Y486879D02*
G03*
X822062Y531062I-22091J22091D01*
G01*
D02*
G03*
X777879Y531062I-22091J-22091D01*
G01*
X738905Y492088D02*
G03*
X783088Y447905I22091J-22091D01*
G01*
X598245Y527000D02*
G03*
X598245Y527000I-1270J0D01*
G01*
X866537Y554823D02*
X866537Y542177D01*
X845963Y542178D02*
Y554823D01*
X783088Y447905D02*
X822062Y486879D01*
X738905Y492088D02*
X777879Y531062D01*
X615400Y514300D02*
X776690D01*
Y546050D01*
X615400D02*
X776690D01*
X615400Y514300D02*
Y546050D01*
D49*
X290250Y465050D02*
Y495050D01*
X210250D02*
X290250D01*
X210250Y465050D02*
X290250D01*
X210250D02*
Y495050D01*
X9950Y290250D02*
X39950D01*
X9950Y210250D02*
Y290250D01*
X39950Y210250D02*
Y290250D01*
X9950Y210250D02*
X39950D01*
M02*
