G04 Layer_Physical_Order=1*
G04 Layer_Color=255*
%FSLAX44Y44*%
%MOMM*%
G71*
G01*
G75*
%ADD10R,1.8034X1.1120*%
%ADD11C,0.5000*%
%ADD12C,0.4000*%
%ADD13C,0.7000*%
%ADD14C,2.0000*%
%ADD15C,1.0000*%
%ADD16C,1.1000*%
%ADD17R,2.0000X3.0000*%
%ADD18R,2.0000X2.0000*%
%ADD19C,1.8000*%
%ADD20R,1.8000X1.8000*%
%ADD21C,2.1590*%
%ADD22R,1.8000X1.8000*%
%ADD23C,2.0000*%
%ADD24C,1.1684*%
%ADD25P,2.5456X4X360.0*%
%ADD26P,2.5456X4X270.0*%
%ADD27C,0.9000*%
%ADD28C,0.7000*%
%ADD29C,1.2700*%
%ADD30C,1.5000*%
G36*
X790000Y480000D02*
X725000Y415000D01*
X695000D01*
X695000Y471250D01*
X739517Y542000D01*
X790000D01*
Y480000D01*
D02*
G37*
G36*
X449000Y700000D02*
Y663000D01*
X486000Y626000D01*
X495000Y617000D01*
Y609000D01*
Y597565D01*
X466150D01*
X459138Y604578D01*
X457562Y605786D01*
X456466Y606240D01*
X440000Y626000D01*
X422000Y644000D01*
Y723000D01*
X449000D01*
Y700000D01*
D02*
G37*
G36*
X871115Y723391D02*
Y526609D01*
X859506Y515000D01*
X836979D01*
Y527299D01*
X836566Y530431D01*
X835357Y533350D01*
X833434Y535857D01*
X833104Y536187D01*
Y540482D01*
X836017D01*
Y565602D01*
X803983D01*
Y550354D01*
X802713Y550036D01*
X802532Y550374D01*
X800658Y552658D01*
X798374Y554532D01*
X795768Y555925D01*
X792941Y556783D01*
X790000Y557073D01*
X739517D01*
X739311Y557052D01*
X739104Y557067D01*
X737841Y556908D01*
X736576Y556783D01*
X736378Y556723D01*
X736172Y556697D01*
X734965Y556294D01*
X733749Y555925D01*
X733566Y555827D01*
X733369Y555762D01*
X732264Y555132D01*
X731143Y554532D01*
X730983Y554401D01*
X730803Y554298D01*
X729842Y553465D01*
X728859Y552658D01*
X728727Y552497D01*
X728571Y552362D01*
X727792Y551357D01*
X726984Y550374D01*
X726887Y550191D01*
X726760Y550027D01*
X704720Y515000D01*
X675521D01*
X674403Y517090D01*
X672279Y519679D01*
X672279Y519679D01*
X656407Y535551D01*
X655668Y536934D01*
X653444Y539644D01*
X650734Y541868D01*
X647643Y543520D01*
X645380Y544206D01*
X626641Y555597D01*
X625461Y556165D01*
X624305Y556782D01*
X623954Y556889D01*
X623623Y557048D01*
X622354Y557374D01*
X621101Y557754D01*
X620736Y557790D01*
X620380Y557882D01*
X619072Y557954D01*
X617768Y558082D01*
X529075D01*
X517079Y570079D01*
X514490Y572203D01*
X511537Y573782D01*
X508332Y574754D01*
X505000Y575082D01*
X501667Y574754D01*
X498463Y573782D01*
X497857Y573458D01*
X490134Y581182D01*
X490620Y582355D01*
X518960D01*
X520928Y582614D01*
X521872Y583005D01*
X522762Y583374D01*
X524338Y584582D01*
X525060Y585304D01*
X525321Y585339D01*
X527483Y586235D01*
X529340Y587660D01*
X530765Y589517D01*
X531661Y591679D01*
X531967Y594000D01*
X531661Y596321D01*
X530765Y598483D01*
X529340Y600340D01*
X527483Y601765D01*
X525321Y602661D01*
X523000Y602967D01*
X520679Y602661D01*
X518517Y601765D01*
X516660Y600340D01*
X515235Y598483D01*
X514854Y597565D01*
X497590D01*
Y609000D01*
Y617000D01*
X497393Y617991D01*
X496831Y618831D01*
X487831Y627831D01*
X451590Y664073D01*
Y700000D01*
Y723000D01*
X451393Y723991D01*
X450831Y724831D01*
X449991Y725393D01*
X449000Y725590D01*
X422000D01*
X421009Y725393D01*
X420169Y724831D01*
X419607Y723991D01*
X419410Y723000D01*
Y644000D01*
X419607Y643009D01*
X420169Y642169D01*
X438086Y624252D01*
X451666Y607955D01*
X451128Y606805D01*
X408710D01*
X408230Y607430D01*
X405820Y609280D01*
X403013Y610443D01*
X400000Y610840D01*
X396987Y610443D01*
X394180Y609280D01*
X391770Y607430D01*
X389920Y605020D01*
X388757Y602212D01*
X388360Y599200D01*
X388757Y596188D01*
X389650Y594033D01*
X389342Y593781D01*
X388872Y593208D01*
X388349Y592685D01*
X387937Y592069D01*
X387468Y591497D01*
X387119Y590844D01*
X386707Y590228D01*
X386424Y589544D01*
X386075Y588891D01*
X385860Y588182D01*
X385576Y587498D01*
X385432Y586772D01*
X385217Y586063D01*
X385145Y585326D01*
X385000Y584600D01*
Y583859D01*
X384927Y583123D01*
Y545114D01*
X378885D01*
Y723391D01*
X526609Y871115D01*
X723391D01*
X871115Y723391D01*
D02*
G37*
G36*
X396137Y448369D02*
X395611Y447099D01*
X391041D01*
X390759Y447780D01*
X388909Y450191D01*
X386499Y452041D01*
X383692Y453203D01*
X380679Y453600D01*
X377667Y453203D01*
X374859Y452041D01*
X372449Y450191D01*
X370599Y447780D01*
X369436Y444973D01*
X369039Y441960D01*
X369436Y438948D01*
X370599Y436141D01*
X372449Y433730D01*
X374097Y432465D01*
X373666Y431195D01*
X166212D01*
X144811Y452596D01*
X145473Y454194D01*
X145843Y457000D01*
X145473Y459806D01*
X144390Y462421D01*
X142667Y464667D01*
X140421Y466390D01*
X137806Y467473D01*
X135000Y467843D01*
X132194Y467473D01*
X129579Y466390D01*
X127333Y464667D01*
X125610Y462421D01*
X124527Y459806D01*
X124157Y457000D01*
X124527Y454194D01*
X125610Y451579D01*
X127333Y449333D01*
X129579Y447610D01*
X132194Y446527D01*
X135000Y446157D01*
X137806Y446527D01*
X139404Y447189D01*
X159670Y426923D01*
X159184Y425750D01*
X82903D01*
X82417Y426923D01*
X151609Y496115D01*
X348391D01*
X396137Y448369D01*
D02*
G37*
G36*
X367750Y381250D02*
X393625D01*
X393625Y350000D01*
X393625Y240000D01*
X252375D01*
Y381250D01*
X344250D01*
X352000Y389000D01*
X360000D01*
X367750Y381250D01*
D02*
G37*
G36*
X392000Y189000D02*
Y74000D01*
X354750Y36750D01*
X117605Y36750D01*
X78000Y76355D01*
Y163700D01*
X58000Y183700D01*
Y188999D01*
X81000Y189000D01*
X392000Y189000D01*
D02*
G37*
G36*
X454441Y581401D02*
X456948Y579478D01*
X459867Y578269D01*
X463000Y577856D01*
X472144D01*
X488344Y561656D01*
X488246Y561333D01*
X487917Y558000D01*
X488246Y554667D01*
X489218Y551463D01*
X490796Y548510D01*
X492921Y545921D01*
X509921Y528921D01*
X509921Y528921D01*
X512509Y526797D01*
X515463Y525218D01*
X518667Y524246D01*
X522000Y523918D01*
X526082D01*
X537905Y512095D01*
X536132Y509934D01*
X534480Y506843D01*
X533462Y503488D01*
X533119Y500000D01*
X533462Y496511D01*
X534480Y493157D01*
X536132Y490066D01*
X538356Y487356D01*
X541066Y485132D01*
X544157Y483480D01*
X547512Y482462D01*
X551000Y482119D01*
X554488Y482462D01*
X557843Y483480D01*
X560934Y485132D01*
X563095Y486905D01*
X600089Y449911D01*
X672919Y449911D01*
X672988Y384240D01*
X672091Y383341D01*
X528455D01*
X480898Y430898D01*
X479171Y432224D01*
X478497Y432503D01*
X432503Y478497D01*
X432224Y479171D01*
X430898Y480898D01*
X400000Y511796D01*
Y583123D01*
X403136Y583432D01*
X406153Y584346D01*
X408932Y585832D01*
X410473Y587096D01*
X448746D01*
X454441Y581401D01*
D02*
G37*
G36*
X193792Y381963D02*
X218466Y381963D01*
X219364Y381065D01*
Y240713D01*
X78115D01*
Y381963D01*
X169963Y381963D01*
X178000Y390000D01*
X185755D01*
X193792Y381963D01*
D02*
G37*
%LPC*%
G36*
X610241Y851500D02*
X602700D01*
Y843959D01*
X605020Y844920D01*
X607430Y846770D01*
X609280Y849180D01*
X610241Y851500D01*
D02*
G37*
G36*
X635641D02*
X628100D01*
Y843959D01*
X630420Y844920D01*
X632830Y846770D01*
X634680Y849180D01*
X635641Y851500D01*
D02*
G37*
G36*
X621100D02*
X613559D01*
X614520Y849180D01*
X616370Y846770D01*
X618780Y844920D01*
X621100Y843959D01*
Y851500D01*
D02*
G37*
G36*
X661540D02*
X653500D01*
Y843460D01*
X661540D01*
Y851500D01*
D02*
G37*
G36*
X595700D02*
X588159D01*
X589120Y849180D01*
X590970Y846770D01*
X593380Y844920D01*
X595700Y843959D01*
Y851500D01*
D02*
G37*
G36*
X646500Y866540D02*
X638460D01*
Y858500D01*
X646500D01*
Y866540D01*
D02*
G37*
G36*
X602700Y866041D02*
Y858500D01*
X610241D01*
X609280Y860820D01*
X607430Y863230D01*
X605020Y865080D01*
X602700Y866041D01*
D02*
G37*
G36*
X628100D02*
Y858500D01*
X635641D01*
X634680Y860820D01*
X632830Y863230D01*
X630420Y865080D01*
X628100Y866041D01*
D02*
G37*
G36*
X661540Y866540D02*
X653500D01*
Y858500D01*
X661540D01*
Y866540D01*
D02*
G37*
G36*
X595700Y866041D02*
X593380Y865080D01*
X590970Y863230D01*
X589120Y860820D01*
X588159Y858500D01*
X595700D01*
Y866041D01*
D02*
G37*
G36*
X621100D02*
X618780Y865080D01*
X616370Y863230D01*
X614520Y860820D01*
X613559Y858500D01*
X621100D01*
Y866041D01*
D02*
G37*
G36*
X400000Y636240D02*
X396987Y635843D01*
X394180Y634680D01*
X391770Y632830D01*
X389920Y630420D01*
X388757Y627612D01*
X388360Y624600D01*
X388757Y621587D01*
X389920Y618780D01*
X391770Y616370D01*
X394180Y614520D01*
X396987Y613357D01*
X400000Y612960D01*
X403013Y613357D01*
X405820Y614520D01*
X408230Y616370D01*
X410080Y618780D01*
X411243Y621587D01*
X411640Y624600D01*
X411243Y627612D01*
X410080Y630420D01*
X408230Y632830D01*
X405820Y634680D01*
X403013Y635843D01*
X400000Y636240D01*
D02*
G37*
G36*
X411540Y661540D02*
X388460D01*
Y638460D01*
X411540D01*
Y661540D01*
D02*
G37*
G36*
X646500Y851500D02*
X638460D01*
Y843460D01*
X646500D01*
Y851500D01*
D02*
G37*
G36*
X861540Y561540D02*
X838460D01*
Y538460D01*
X861540D01*
Y561540D01*
D02*
G37*
G36*
X820000Y591067D02*
X819929Y591058D01*
X808443D01*
Y574858D01*
X816632D01*
X821824Y569666D01*
X823503Y568377D01*
X825459Y567567D01*
X827558Y567291D01*
X841677D01*
X841770Y567170D01*
X844180Y565320D01*
X846987Y564157D01*
X850000Y563760D01*
X853012Y564157D01*
X855820Y565320D01*
X858230Y567170D01*
X860080Y569580D01*
X861243Y572388D01*
X861639Y575400D01*
X861243Y578413D01*
X860080Y581220D01*
X858230Y583630D01*
X855820Y585480D01*
X853012Y586643D01*
X850000Y587039D01*
X846987Y586643D01*
X844180Y585480D01*
X841770Y583630D01*
X841677Y583509D01*
X831557D01*
Y591058D01*
X820071D01*
X820000Y591067D01*
D02*
G37*
G36*
X262122Y478780D02*
X251920D01*
Y468578D01*
X253662Y468807D01*
X256470Y469970D01*
X258880Y471820D01*
X260730Y474230D01*
X261893Y477038D01*
X262122Y478780D01*
D02*
G37*
G36*
X236722D02*
X226520D01*
Y468578D01*
X228263Y468807D01*
X231070Y469970D01*
X233480Y471820D01*
X235330Y474230D01*
X236493Y477038D01*
X236722Y478780D01*
D02*
G37*
G36*
X335700Y485144D02*
X328438Y477882D01*
X335700Y470620D01*
X342962Y477882D01*
X335700Y485144D01*
D02*
G37*
G36*
X344758Y494202D02*
X337496Y486940D01*
X344758Y479678D01*
X352020Y486940D01*
X344758Y494202D01*
D02*
G37*
G36*
X274780Y491590D02*
X264510D01*
Y481320D01*
X274780D01*
Y491590D01*
D02*
G37*
G36*
X353816Y485144D02*
X346554Y477882D01*
X353816Y470620D01*
X361078Y477882D01*
X353816Y485144D01*
D02*
G37*
G36*
X152961Y491281D02*
X145698Y484019D01*
X152961Y476757D01*
X160222Y484019D01*
X152961Y491281D01*
D02*
G37*
G36*
X249380Y478780D02*
X239178D01*
X239407Y477038D01*
X240570Y474230D01*
X242419Y471820D01*
X244830Y469970D01*
X247637Y468807D01*
X249380Y468578D01*
Y478780D01*
D02*
G37*
G36*
X344758Y476086D02*
X337496Y468824D01*
X339556Y466763D01*
X339070Y465590D01*
X296280Y465590D01*
X295550Y466149D01*
X293838Y466859D01*
X292000Y467101D01*
X290162Y466859D01*
X288450Y466149D01*
X287720Y465590D01*
X287000D01*
X286009Y465393D01*
X285169Y464831D01*
X284607Y463991D01*
X284410Y463000D01*
Y447000D01*
X284607Y446009D01*
X285169Y445169D01*
X286009Y444607D01*
X287000Y444410D01*
X287720D01*
X288450Y443851D01*
X290162Y443141D01*
X292000Y442899D01*
X293838Y443141D01*
X295550Y443851D01*
X296280Y444410D01*
X359000Y444410D01*
X359991Y444607D01*
X360831Y445169D01*
X364130Y448467D01*
X365731Y448678D01*
X368538Y449841D01*
X370949Y451691D01*
X372799Y454101D01*
X373961Y456908D01*
X374358Y459921D01*
X373961Y462934D01*
X372799Y465741D01*
X370949Y468151D01*
X368538Y470001D01*
X365731Y471164D01*
X362719Y471561D01*
X359706Y471164D01*
X356899Y470001D01*
X354488Y468151D01*
X352638Y465741D01*
X352576Y465590D01*
X350446D01*
X349959Y466763D01*
X352020Y468824D01*
X344758Y476086D01*
D02*
G37*
G36*
X143903Y482223D02*
X136641Y474961D01*
X143903Y467699D01*
X151165Y474961D01*
X143903Y482223D01*
D02*
G37*
G36*
X152961Y473164D02*
X145699Y465902D01*
X152961Y458641D01*
X160222Y465902D01*
X152961Y473164D01*
D02*
G37*
G36*
X287590Y478780D02*
X277320D01*
Y468510D01*
X287590D01*
Y478780D01*
D02*
G37*
G36*
X223980D02*
X213778D01*
X214007Y477038D01*
X215170Y474230D01*
X217020Y471820D01*
X219430Y469970D01*
X222237Y468807D01*
X223980Y468578D01*
Y478780D01*
D02*
G37*
G36*
X162019Y482223D02*
X154757Y474961D01*
X162019Y467699D01*
X169280Y474961D01*
X162019Y482223D01*
D02*
G37*
G36*
X274780Y478780D02*
X264510D01*
Y468510D01*
X274780D01*
Y478780D01*
D02*
G37*
G36*
X287590Y491590D02*
X277320D01*
Y481320D01*
X287590D01*
Y491590D01*
D02*
G37*
G36*
X251920Y491522D02*
Y481320D01*
X262122D01*
X261893Y483063D01*
X260730Y485870D01*
X258880Y488280D01*
X256470Y490130D01*
X253662Y491293D01*
X251920Y491522D01*
D02*
G37*
G36*
X223980Y491522D02*
X222237Y491293D01*
X219430Y490130D01*
X217020Y488280D01*
X215170Y485870D01*
X214007Y483063D01*
X213778Y481320D01*
X223980D01*
Y491522D01*
D02*
G37*
G36*
X249380D02*
X247637Y491293D01*
X244830Y490130D01*
X242419Y488280D01*
X240570Y485870D01*
X239407Y483063D01*
X239178Y481320D01*
X249380D01*
Y491522D01*
D02*
G37*
G36*
X226520Y491522D02*
Y481320D01*
X236722D01*
X236493Y483063D01*
X235330Y485870D01*
X233480Y488280D01*
X231070Y490130D01*
X228263Y491293D01*
X226520Y491522D01*
D02*
G37*
%LPD*%
G36*
X363135Y467865D02*
X371500Y459500D01*
X359000Y447000D01*
X287000Y447000D01*
Y463000D01*
X343320Y463000D01*
X344758Y461562D01*
X346197Y463000D01*
X357000D01*
X361865Y467865D01*
X363135D01*
D02*
G37*
%LPC*%
G36*
X550000Y445082D02*
X546667Y444754D01*
X543463Y443782D01*
X540510Y442203D01*
X537921Y440079D01*
X535797Y437490D01*
X534218Y434537D01*
X533246Y431333D01*
X532918Y428000D01*
X533246Y424667D01*
X534218Y421463D01*
X535797Y418510D01*
X537921Y415921D01*
X540510Y413797D01*
X543463Y412218D01*
X546667Y411246D01*
X550000Y410918D01*
X553333Y411246D01*
X556537Y412218D01*
X559490Y413797D01*
X562079Y415921D01*
X564203Y418510D01*
X565782Y421463D01*
X566754Y424667D01*
X567082Y428000D01*
X566754Y431333D01*
X565782Y434537D01*
X564203Y437490D01*
X562079Y440079D01*
X559490Y442203D01*
X556537Y443782D01*
X553333Y444754D01*
X550000Y445082D01*
D02*
G37*
G36*
X453000Y556000D02*
X419000D01*
Y512000D01*
X453000D01*
Y556000D01*
D02*
G37*
%LPD*%
D10*
X820000Y553042D02*
D03*
Y582958D02*
D03*
D11*
X429000Y261000D02*
Y413495D01*
X380679Y441960D02*
X400535D01*
X429000Y413495D01*
X421460Y266952D02*
Y401180D01*
X398639Y424000D02*
X421460Y401180D01*
X418000Y250000D02*
Y263492D01*
X421460Y266952D01*
D12*
X411000Y274000D02*
X415210Y278210D01*
Y387790D01*
X349919Y411000D02*
X356000Y404919D01*
X292000Y411000D02*
X349919D01*
X135000Y457000D02*
X164628Y427372D01*
X375628D01*
X415210Y387790D01*
D13*
X439500Y321000D02*
X440000D01*
X453400Y334400D01*
X6520Y347299D02*
X78221Y419000D01*
X283000D01*
X182000Y378000D02*
Y402296D01*
X149296D02*
X182000D01*
X264880D01*
X453200Y258200D02*
X474000D01*
X417000Y222000D02*
X453200Y258200D01*
X263000Y222000D02*
X417000D01*
X453400Y334400D02*
X474000D01*
X433999Y115999D02*
Y116000D01*
Y115999D02*
X475050Y157050D01*
Y173950D01*
X356000Y367000D02*
Y404919D01*
X43000Y186000D02*
X69000D01*
X6520Y222480D02*
X43000Y186000D01*
X6520Y222480D02*
Y347299D01*
D14*
X617768Y541000D02*
X640800Y527000D01*
X522000Y541000D02*
X617768D01*
X505000Y558000D02*
X522000Y541000D01*
X660200Y500000D02*
Y507600D01*
X640800Y527000D02*
X660200Y507600D01*
D15*
X400000Y599200D02*
X453760D01*
X463000Y589960D01*
X731233Y400000D02*
X824875Y493642D01*
X670000Y400000D02*
X731233D01*
X665000Y405000D02*
X670000Y400000D01*
X821000Y531174D02*
X824875Y527299D01*
Y493642D02*
Y527299D01*
X463000Y589960D02*
X518960D01*
X523000Y594000D01*
X821000Y531174D02*
Y552042D01*
X820000Y553042D02*
X821000Y552042D01*
D16*
X827558Y575400D02*
X850000D01*
X820000Y582958D02*
X827558Y575400D01*
D17*
X436000Y571000D02*
D03*
Y534000D02*
D03*
D18*
X435000Y713000D02*
D03*
X435000Y738000D02*
D03*
D19*
X24950Y225250D02*
D03*
Y250650D02*
D03*
X850000Y600800D02*
D03*
Y575400D02*
D03*
X400000Y599200D02*
D03*
Y624600D02*
D03*
X599200Y855000D02*
D03*
X624600D02*
D03*
X474000Y334400D02*
D03*
Y309000D02*
D03*
Y283600D02*
D03*
X398639Y424000D02*
D03*
X380679Y441960D02*
D03*
X362719Y459921D02*
D03*
X225250Y480050D02*
D03*
X250650D02*
D03*
X475050Y224750D02*
D03*
Y199350D02*
D03*
X135000Y457000D02*
D03*
D20*
X24950Y276050D02*
D03*
X850000Y550000D02*
D03*
X400000Y650000D02*
D03*
X474000Y258200D02*
D03*
X475050Y173950D02*
D03*
D21*
X640800Y527000D02*
D03*
X695400D02*
D03*
X750000D02*
D03*
X551000Y500000D02*
D03*
X605600D02*
D03*
X660200D02*
D03*
D22*
X650000Y855000D02*
D03*
X276050Y480050D02*
D03*
D23*
X600000Y428000D02*
D03*
X550000D02*
D03*
X707000D02*
D03*
X657000D02*
D03*
D24*
X753967Y462967D02*
D03*
X807000Y516000D02*
D03*
D25*
X344758Y477882D02*
D03*
D26*
X152961Y474961D02*
D03*
D27*
X411000Y274000D02*
D03*
X439500Y321000D02*
D03*
X149296Y402296D02*
D03*
X263000Y222000D02*
D03*
X418000Y250000D02*
D03*
X429000Y261000D02*
D03*
X264880Y402296D02*
D03*
X433999Y116000D02*
D03*
X292000Y460000D02*
D03*
Y450000D02*
D03*
X356000Y404919D02*
D03*
X292000Y411000D02*
D03*
X283000Y419000D02*
D03*
X299000Y437000D02*
D03*
X318000Y471000D02*
D03*
X198000Y452000D02*
D03*
Y436000D02*
D03*
X343000Y439000D02*
D03*
X318000Y490000D02*
D03*
X69000Y186000D02*
D03*
D28*
X483000Y610000D02*
D03*
Y601000D02*
D03*
X474000Y610000D02*
D03*
Y601000D02*
D03*
X508000Y627000D02*
D03*
X497000Y642000D02*
D03*
X503000Y713000D02*
D03*
X508000Y615000D02*
D03*
X545000Y580000D02*
D03*
X521000Y579000D02*
D03*
D29*
X523000Y594000D02*
D03*
D30*
X505000Y558000D02*
D03*
M02*
