G04 Layer_Physical_Order=2*
G04 Layer_Color=16711680*
%FSLAX44Y44*%
%MOMM*%
G71*
G01*
G75*
%ADD10R,1.8034X1.1120*%
%ADD11C,0.7000*%
%ADD12C,0.4000*%
%ADD14C,1.0000*%
%ADD15C,0.5000*%
%ADD16C,2.1590*%
%ADD17R,2.0000X3.0000*%
%ADD18R,2.0000X2.0000*%
%ADD19C,1.8000*%
%ADD20R,1.8000X1.8000*%
%ADD21R,1.8000X1.8000*%
%ADD22C,2.0000*%
%ADD23C,1.1684*%
%ADD24P,2.5456X4X90.0*%
%ADD25C,1.5240*%
%ADD26C,0.9000*%
%ADD27C,0.7000*%
%ADD28C,1.2700*%
%ADD29C,1.5000*%
%ADD30P,1.8385X4X180.0*%
%ADD31R,1.3000X1.3000*%
%ADD32P,1.8385X4X90.0*%
%ADD33R,1.3000X1.3000*%
%ADD34R,0.3556X0.4032*%
%ADD35R,0.5680X1.2588*%
G04:AMPARAMS|DCode=36|XSize=0.5426mm|YSize=1.1572mm|CornerRadius=0mm|HoleSize=0mm|Usage=FLASHONLY|Rotation=225.000|XOffset=0mm|YOffset=0mm|HoleType=Round|Shape=Rectangle|*
%AMROTATEDRECTD36*
4,1,4,-0.2173,0.6010,0.6010,-0.2173,0.2173,-0.6010,-0.6010,0.2173,-0.2173,0.6010,0.0*
%
%ADD36ROTATEDRECTD36*%

%ADD37R,1.1120X1.8034*%
%ADD38R,0.5588X0.9144*%
%ADD39R,1.3938X0.4826*%
%ADD40R,1.3938X0.5588*%
%ADD41R,0.7000X1.0000*%
%ADD42R,1.0128X3.2004*%
G04:AMPARAMS|DCode=43|XSize=1.112mm|YSize=1.8034mm|CornerRadius=0mm|HoleSize=0mm|Usage=FLASHONLY|Rotation=45.000|XOffset=0mm|YOffset=0mm|HoleType=Round|Shape=Rectangle|*
%AMROTATEDRECTD43*
4,1,4,0.2445,-1.0308,-1.0308,0.2445,-0.2445,1.0308,1.0308,-0.2445,0.2445,-1.0308,0.0*
%
%ADD43ROTATEDRECTD43*%

G04:AMPARAMS|DCode=44|XSize=1.208mm|YSize=0.4564mm|CornerRadius=0mm|HoleSize=0mm|Usage=FLASHONLY|Rotation=135.000|XOffset=0mm|YOffset=0mm|HoleType=Round|Shape=Rectangle|*
%AMROTATEDRECTD44*
4,1,4,0.5885,-0.2657,0.2657,-0.5885,-0.5885,0.2657,-0.2657,0.5885,0.5885,-0.2657,0.0*
%
%ADD44ROTATEDRECTD44*%

%ADD45R,1.5250X0.4350*%
%ADD46R,1.4000X0.6000*%
%ADD47C,1.4000*%
G36*
X513900Y482100D02*
X514730Y481270D01*
X516000Y480000D01*
X516000Y481000D01*
X516000Y481796D01*
Y481796D01*
Y481796D01*
X516000D01*
Y510000D01*
X565000D01*
Y417000D01*
Y415000D01*
X500000D01*
X425000Y490000D01*
Y536000D01*
X460000D01*
X513900Y482100D01*
D02*
G37*
G36*
X397253Y447253D02*
X397253Y447253D01*
X398513Y446411D01*
X398608Y446392D01*
X446392Y398608D01*
X446411Y398513D01*
X447253Y397253D01*
X447253Y397253D01*
X496115Y348391D01*
Y151609D01*
X440584Y96078D01*
X436491Y100171D01*
X437360Y101039D01*
X430817Y107582D01*
X432469Y109466D01*
X433180Y108920D01*
X435988Y107757D01*
X439000Y107360D01*
X442013Y107757D01*
X444820Y108920D01*
X446214Y109990D01*
X438102Y118102D01*
X429990Y126214D01*
X428920Y124820D01*
X427757Y122013D01*
X427360Y119000D01*
X427757Y115987D01*
X428920Y113180D01*
X429466Y112469D01*
X427582Y110817D01*
X421040Y117360D01*
X417660Y113980D01*
X396445D01*
X395134Y115343D01*
X395015Y115981D01*
X395159Y116457D01*
X396061Y117006D01*
X398097Y117582D01*
X399162Y117141D01*
X401000Y116899D01*
X402838Y117141D01*
X404550Y117851D01*
X406021Y118979D01*
X407149Y120450D01*
X407859Y122162D01*
X408101Y124000D01*
X407859Y125838D01*
X407149Y127550D01*
X406021Y129021D01*
X404958Y129837D01*
X404657Y131538D01*
X404751Y132772D01*
X405021Y132979D01*
X406149Y134450D01*
X406859Y136162D01*
X407101Y138000D01*
X406859Y139838D01*
X406149Y141550D01*
X405021Y143021D01*
X404647Y143308D01*
X404101Y145639D01*
X404418Y146496D01*
X405149Y147450D01*
X405859Y149162D01*
X406101Y151000D01*
X405859Y152838D01*
X405149Y154550D01*
X404021Y156021D01*
X402550Y157149D01*
X400838Y157859D01*
X399000Y158101D01*
X397162Y157859D01*
X395450Y157149D01*
X393979Y156021D01*
X393678Y155629D01*
X365750D01*
X363979Y155277D01*
X362477Y154273D01*
X362477Y154273D01*
X340494Y132290D01*
X328960D01*
Y116290D01*
X328960Y114210D01*
X328315Y111977D01*
X276927Y60590D01*
X171954Y60590D01*
X72840Y159704D01*
Y335719D01*
X157309D01*
X158300Y335916D01*
X159140Y336478D01*
X186073Y363410D01*
X246250D01*
Y356254D01*
X263750D01*
Y357177D01*
X266417D01*
X267124Y357317D01*
X268356Y355013D01*
X259097Y345754D01*
X246250D01*
Y336254D01*
X261311D01*
X262347Y333754D01*
X254347Y325754D01*
X246250D01*
Y316254D01*
X263750D01*
Y324343D01*
X308454Y369046D01*
X309282Y370287D01*
X309573Y371750D01*
Y387269D01*
X312073Y388606D01*
X312811Y388113D01*
X315250Y387627D01*
X317689Y388113D01*
X319756Y389494D01*
X321137Y391561D01*
X321622Y394000D01*
X321137Y396439D01*
X320603Y397239D01*
Y416750D01*
X320500Y417267D01*
Y427037D01*
X321290Y429210D01*
X321290Y430173D01*
Y436980D01*
X303210D01*
Y430173D01*
X303210Y429210D01*
X304000Y427037D01*
Y417424D01*
X301690Y416467D01*
X295974Y422184D01*
X294733Y423013D01*
X293270Y423303D01*
X289245D01*
Y436105D01*
X289245D01*
Y440165D01*
X290035D01*
Y443610D01*
X269705D01*
Y440165D01*
X270495D01*
Y434595D01*
X270495D01*
Y428255D01*
Y421895D01*
Y415555D01*
Y409195D01*
Y402855D01*
X282653D01*
X283048Y402322D01*
X283119Y401987D01*
X282344Y399074D01*
X281494Y398506D01*
X281038Y397823D01*
X259084D01*
X241499Y415409D01*
X240258Y416237D01*
X238795Y416529D01*
X235005D01*
Y421105D01*
X235795D01*
Y424550D01*
X225630D01*
Y427090D01*
X235795D01*
Y429525D01*
X235840Y429750D01*
Y440750D01*
X235643Y441741D01*
X235081Y442581D01*
X235005Y442632D01*
Y455145D01*
X216255D01*
Y443340D01*
X213040D01*
Y450980D01*
X204000D01*
X194960D01*
Y443340D01*
X189040D01*
Y450980D01*
X180000D01*
X170960D01*
Y443340D01*
X165816D01*
X165336Y443854D01*
X164254Y445988D01*
X164475Y446908D01*
X164595Y448432D01*
X164858Y451776D01*
X164475Y456644D01*
X163335Y461392D01*
X161467Y465903D01*
X159697Y468792D01*
X159720Y468876D01*
X161289Y470978D01*
X163000Y470752D01*
X165652Y471101D01*
X168124Y472125D01*
X169230Y472974D01*
X162102Y480102D01*
X154974Y487230D01*
X154125Y486124D01*
X153102Y483652D01*
X152752Y481000D01*
X152976Y479304D01*
X150840Y477724D01*
X150792Y477710D01*
X147868Y479502D01*
X143356Y481371D01*
X141118Y481908D01*
X140340Y484666D01*
X151789Y496115D01*
X348391D01*
X397253Y447253D01*
D02*
G37*
G36*
X639690Y867810D02*
X639252Y866540D01*
X638460D01*
Y843460D01*
X661540D01*
Y851304D01*
X661634Y851366D01*
X669302Y859034D01*
X712396D01*
X712750Y858681D01*
X712750Y751250D01*
X789766Y674234D01*
X789766Y546016D01*
X768901Y525150D01*
X767752Y525694D01*
X767881Y527000D01*
X767538Y530488D01*
X766520Y533843D01*
X764868Y536934D01*
X762644Y539644D01*
X759934Y541868D01*
X756843Y543520D01*
X753488Y544538D01*
X750000Y544881D01*
X746512Y544538D01*
X743157Y543520D01*
X740066Y541868D01*
X737356Y539644D01*
X735132Y536934D01*
X733480Y533843D01*
X732462Y530488D01*
X732119Y527000D01*
X732462Y523512D01*
X733480Y520157D01*
X735132Y517066D01*
X737356Y514356D01*
X740066Y512132D01*
X743157Y510480D01*
X746512Y509462D01*
X750000Y509119D01*
X751307Y509248D01*
X751850Y508099D01*
X712750Y469000D01*
X617544D01*
Y479542D01*
X602336D01*
Y469000D01*
X580073D01*
Y510000D01*
X579783Y512940D01*
X578925Y515768D01*
X577532Y518374D01*
X575658Y520658D01*
X573374Y522532D01*
X570768Y523925D01*
X567940Y524783D01*
X565000Y525073D01*
X516000D01*
X513060Y524783D01*
X510232Y523925D01*
X507626Y522532D01*
X505342Y520658D01*
X503468Y518374D01*
X502517Y516595D01*
X500954Y516362D01*
X470658Y546658D01*
X468374Y548532D01*
X465768Y549925D01*
X462940Y550783D01*
X460000Y551073D01*
X453000D01*
Y593000D01*
X419000D01*
Y549801D01*
X416626Y548532D01*
X414342Y546658D01*
X412468Y544374D01*
X411075Y541768D01*
X410217Y538941D01*
X409927Y536000D01*
Y506732D01*
X408754Y506246D01*
X378885Y536115D01*
Y723391D01*
X526609Y871115D01*
X636385D01*
X639690Y867810D01*
D02*
G37*
G36*
X233250Y440750D02*
Y429750D01*
X214500Y429750D01*
Y422868D01*
X205985D01*
X205529Y423551D01*
X203461Y424932D01*
X201022Y425418D01*
X198584Y424932D01*
X196516Y423551D01*
X195135Y421484D01*
X194650Y419045D01*
X195135Y416606D01*
X196516Y414539D01*
X197183Y414093D01*
X196915Y412745D01*
X196374Y412637D01*
X194307Y411256D01*
X192925Y409189D01*
X192440Y406750D01*
X192925Y404311D01*
X194307Y402244D01*
X196374Y400863D01*
X198813Y400378D01*
X201251Y400863D01*
X203319Y402244D01*
X203775Y402926D01*
X214500D01*
Y401500D01*
X244343Y401500D01*
X262000Y383843D01*
Y377375D01*
X249168Y366000D01*
X185000D01*
X157309Y338309D01*
X70250D01*
Y158632D01*
X170882Y58000D01*
X278000Y58000D01*
X331391Y111391D01*
X421609Y111391D01*
X438753Y94247D01*
X410894Y66388D01*
X409247Y66537D01*
X407165Y68619D01*
X409510Y70964D01*
X410000Y70899D01*
X411838Y71141D01*
X413550Y71851D01*
X415021Y72979D01*
X416149Y74450D01*
X416859Y76162D01*
X417101Y78000D01*
X416859Y79838D01*
X416149Y81550D01*
X415021Y83021D01*
X413550Y84149D01*
X411838Y84859D01*
X410000Y85101D01*
X408162Y84859D01*
X406450Y84149D01*
X404979Y83021D01*
X403851Y81550D01*
X403141Y79838D01*
X402899Y78000D01*
X402964Y77510D01*
X400619Y75165D01*
X397000Y78784D01*
X384216Y66000D01*
X396463Y53753D01*
X397000Y53215D01*
X396612Y52106D01*
X348391Y3885D01*
X151609D01*
X121497Y33997D01*
X3885Y151609D01*
Y348391D01*
X46994Y391500D01*
X110346D01*
X140782Y421935D01*
X142042Y422777D01*
X160014Y440750D01*
X203500Y440750D01*
X233250Y440750D01*
D02*
G37*
%LPC*%
G36*
X229730Y359142D02*
X219443D01*
Y352312D01*
X229730D01*
Y359142D01*
D02*
G37*
G36*
X447040Y369790D02*
X428960D01*
Y368379D01*
X427354Y366544D01*
X408274D01*
Y355464D01*
X427354D01*
X428960Y353629D01*
Y351710D01*
X447040D01*
Y369790D01*
D02*
G37*
G36*
X242557Y349772D02*
X232270D01*
Y342942D01*
X242557D01*
Y349772D01*
D02*
G37*
G36*
X215520Y334040D02*
Y326270D01*
X223290D01*
Y334040D01*
X215520D01*
D02*
G37*
G36*
X223290Y323730D02*
X215520D01*
Y315960D01*
X223290D01*
Y323730D01*
D02*
G37*
G36*
X477980Y342540D02*
X467710D01*
Y332270D01*
X477980D01*
Y342540D01*
D02*
G37*
G36*
X229730Y349772D02*
X219443D01*
Y342942D01*
X229730D01*
Y349772D01*
D02*
G37*
G36*
X490790Y342540D02*
X480520D01*
Y332270D01*
X490790D01*
Y342540D01*
D02*
G37*
G36*
X242557Y359142D02*
X232270D01*
Y352312D01*
X242557D01*
Y359142D01*
D02*
G37*
G36*
X290035Y449950D02*
X269705D01*
Y446505D01*
Y446150D01*
X290035D01*
Y446505D01*
Y449950D01*
D02*
G37*
G36*
X321290Y447290D02*
X313520D01*
Y439520D01*
X321290D01*
Y447290D01*
D02*
G37*
G36*
X290035Y455935D02*
X281140D01*
Y452490D01*
X290035D01*
Y455935D01*
D02*
G37*
G36*
X278600D02*
X269705D01*
Y452490D01*
X278600D01*
Y455935D01*
D02*
G37*
G36*
X310980Y447290D02*
X303210D01*
Y439520D01*
X310980D01*
Y447290D01*
D02*
G37*
G36*
X427354Y379730D02*
X419084D01*
Y375460D01*
X427354D01*
Y379730D01*
D02*
G37*
G36*
X416544D02*
X408274D01*
Y375460D01*
X416544D01*
Y379730D01*
D02*
G37*
G36*
X427354Y386540D02*
X419084D01*
Y382270D01*
X427354D01*
Y386540D01*
D02*
G37*
G36*
X416544D02*
X408274D01*
Y382270D01*
X416544D01*
Y386540D01*
D02*
G37*
G36*
X146540Y269480D02*
X137500D01*
X128460D01*
Y262673D01*
X128460Y261710D01*
X129250Y259537D01*
Y259210D01*
Y244000D01*
X132147D01*
Y238239D01*
X131613Y237439D01*
X131128Y235000D01*
X131613Y232561D01*
X132994Y230494D01*
X135061Y229113D01*
X137500Y228628D01*
X139939Y229113D01*
X142006Y230494D01*
X143387Y232561D01*
X143872Y235000D01*
X143387Y237439D01*
X142853Y238239D01*
Y244000D01*
X145750D01*
Y259537D01*
X146540Y261710D01*
X146540Y262673D01*
Y269480D01*
D02*
G37*
G36*
X490790Y228440D02*
X480520D01*
Y218170D01*
X490790D01*
Y228440D01*
D02*
G37*
G36*
Y272730D02*
X479250D01*
X467710D01*
Y262460D01*
X476963D01*
X477127Y259960D01*
X476237Y259843D01*
X473430Y258680D01*
X471020Y256830D01*
X469170Y254420D01*
X468007Y251613D01*
X467611Y248600D01*
X468007Y245588D01*
X469170Y242780D01*
X471020Y240370D01*
X473430Y238520D01*
X476237Y237357D01*
X479250Y236961D01*
X482263Y237357D01*
X485070Y238520D01*
X487480Y240370D01*
X489330Y242780D01*
X490493Y245588D01*
X490890Y248600D01*
X490493Y251613D01*
X489330Y254420D01*
X487480Y256830D01*
X485070Y258680D01*
X482263Y259843D01*
X481373Y259960D01*
X481537Y262460D01*
X490790D01*
Y272730D01*
D02*
G37*
G36*
X181250Y280101D02*
X179412Y279859D01*
X177700Y279149D01*
X176229Y278021D01*
X175101Y276550D01*
X174391Y274838D01*
X174149Y273000D01*
X174391Y271162D01*
X175101Y269450D01*
X176229Y267979D01*
X177700Y266851D01*
X179412Y266141D01*
X181058Y265924D01*
X181210Y265773D01*
Y251960D01*
X197210D01*
X199290Y251960D01*
X201790Y251960D01*
X217790D01*
Y256371D01*
X222960D01*
Y251960D01*
X241040D01*
Y256371D01*
X245460D01*
Y255464D01*
X264540D01*
Y266544D01*
X245460D01*
Y265629D01*
X242808D01*
X241040Y267397D01*
X241040Y270040D01*
X241040Y272540D01*
Y278230D01*
X232000D01*
X222960D01*
Y272540D01*
X222960Y270460D01*
X222960Y268129D01*
X222552Y265629D01*
X217790D01*
Y270040D01*
X201790D01*
X199710Y270040D01*
X197210Y270040D01*
X191477D01*
X188326Y273192D01*
X188109Y274838D01*
X187399Y276550D01*
X186271Y278021D01*
X184800Y279149D01*
X183088Y279859D01*
X181250Y280101D01*
D02*
G37*
G36*
X288000Y258101D02*
X286162Y257859D01*
X284450Y257149D01*
X282979Y256021D01*
X281851Y254550D01*
X281141Y252838D01*
X280899Y251000D01*
X280964Y250510D01*
X276083Y245629D01*
X264540D01*
Y246544D01*
X245460D01*
Y235464D01*
X264540D01*
Y236371D01*
X278000D01*
X278000Y236371D01*
X279771Y236723D01*
X281273Y237727D01*
X287510Y243964D01*
X288000Y243899D01*
X289838Y244141D01*
X291550Y244851D01*
X293021Y245979D01*
X294149Y247450D01*
X294859Y249162D01*
X295101Y251000D01*
X294859Y252838D01*
X294149Y254550D01*
X293021Y256021D01*
X291550Y257149D01*
X289838Y257859D01*
X288000Y258101D01*
D02*
G37*
G36*
X477980Y228440D02*
X467710D01*
Y218170D01*
X477980D01*
Y228440D01*
D02*
G37*
G36*
X479250Y202343D02*
X476444Y201973D01*
X473829Y200890D01*
X471583Y199167D01*
X469860Y196921D01*
X468777Y194306D01*
X468407Y191500D01*
X468777Y188694D01*
X469860Y186079D01*
X471583Y183833D01*
X473829Y182110D01*
X476444Y181027D01*
X479250Y180657D01*
X482056Y181027D01*
X484671Y182110D01*
X486917Y183833D01*
X488640Y186079D01*
X489723Y188694D01*
X490093Y191500D01*
X489723Y194306D01*
X488640Y196921D01*
X486917Y199167D01*
X484671Y200890D01*
X482056Y201973D01*
X479250Y202343D01*
D02*
G37*
G36*
X474921Y166561D02*
X471908Y166164D01*
X469101Y165001D01*
X466691Y163151D01*
X464841Y160741D01*
X463678Y157934D01*
X463282Y154921D01*
X463678Y151909D01*
X464841Y149101D01*
X465756Y147908D01*
X463973Y146125D01*
X462780Y147041D01*
X459973Y148203D01*
X456960Y148600D01*
X453948Y148203D01*
X451141Y147041D01*
X448730Y145191D01*
X446880Y142780D01*
X445718Y139973D01*
X445321Y136960D01*
X445718Y133948D01*
X446880Y131141D01*
X447796Y129948D01*
X446013Y128165D01*
X444820Y129080D01*
X442013Y130243D01*
X439000Y130639D01*
X435988Y130243D01*
X433180Y129080D01*
X431786Y128010D01*
X439898Y119898D01*
X448010Y111786D01*
X449080Y113180D01*
X450243Y115987D01*
X450640Y119000D01*
X450243Y122013D01*
X449080Y124820D01*
X448165Y126013D01*
X449948Y127796D01*
X451141Y126880D01*
X453948Y125718D01*
X456960Y125321D01*
X459973Y125718D01*
X462780Y126880D01*
X465191Y128730D01*
X467041Y131141D01*
X468204Y133948D01*
X468600Y136960D01*
X468204Y139973D01*
X467041Y142780D01*
X466125Y143973D01*
X467908Y145756D01*
X469101Y144841D01*
X471908Y143678D01*
X474921Y143281D01*
X477934Y143678D01*
X480741Y144841D01*
X483151Y146691D01*
X485001Y149101D01*
X486164Y151909D01*
X486561Y154921D01*
X486164Y157934D01*
X485001Y160741D01*
X483151Y163151D01*
X480741Y165001D01*
X477934Y166164D01*
X474921Y166561D01*
D02*
G37*
G36*
X477980Y215630D02*
X467710D01*
Y205360D01*
X477980D01*
Y215630D01*
D02*
G37*
G36*
X490790D02*
X480520D01*
Y205360D01*
X490790D01*
Y215630D01*
D02*
G37*
G36*
X243000Y308101D02*
X241162Y307859D01*
X239450Y307149D01*
X237979Y306021D01*
X236851Y304550D01*
X236141Y302838D01*
X235899Y301000D01*
X236141Y299162D01*
X236851Y297450D01*
X237979Y295979D01*
X239450Y294851D01*
X241162Y294141D01*
X243000Y293899D01*
X244838Y294141D01*
X246550Y294851D01*
X247350Y295464D01*
X264540D01*
Y306544D01*
X247339D01*
X246550Y307149D01*
X244838Y307859D01*
X243000Y308101D01*
D02*
G37*
G36*
X241040Y288540D02*
X233270D01*
Y280770D01*
X241040D01*
Y288540D01*
D02*
G37*
G36*
X490790Y329730D02*
X479250D01*
X467710D01*
Y319460D01*
X476963D01*
X477127Y316960D01*
X476237Y316843D01*
X473430Y315680D01*
X471020Y313830D01*
X469170Y311420D01*
X468007Y308612D01*
X467610Y305600D01*
X468007Y302588D01*
X469170Y299780D01*
X471020Y297370D01*
X473430Y295520D01*
X476237Y294357D01*
X479250Y293960D01*
X482262Y294357D01*
X485070Y295520D01*
X487480Y297370D01*
X489330Y299780D01*
X490493Y302588D01*
X490890Y305600D01*
X490493Y308612D01*
X489330Y311420D01*
X487480Y313830D01*
X485070Y315680D01*
X482262Y316843D01*
X481373Y316960D01*
X481537Y319460D01*
X490790D01*
Y329730D01*
D02*
G37*
G36*
X196000Y345373D02*
X193561Y344887D01*
X191494Y343506D01*
X190113Y341439D01*
X189628Y339000D01*
X190113Y336561D01*
X190655Y335750D01*
X189319Y333250D01*
X187500D01*
Y316750D01*
X203037D01*
X205210Y315960D01*
X206173Y315960D01*
X212980D01*
Y325000D01*
Y334040D01*
X206173D01*
X205210Y334040D01*
X203037Y333250D01*
X202682D01*
X201345Y335750D01*
X201887Y336561D01*
X202372Y339000D01*
X201887Y341439D01*
X200506Y343506D01*
X198439Y344887D01*
X196000Y345373D01*
D02*
G37*
G36*
X427354Y346544D02*
X408274D01*
Y338006D01*
X401227Y330959D01*
X401147Y330840D01*
X400977Y330670D01*
X399973Y329168D01*
X399621Y327397D01*
X399621Y327396D01*
Y275822D01*
X399229Y275521D01*
X398101Y274050D01*
X397391Y272338D01*
X397149Y270500D01*
X397391Y268662D01*
X398101Y266950D01*
X399229Y265479D01*
X400700Y264351D01*
X402412Y263641D01*
X404250Y263399D01*
X405774Y263600D01*
X406335Y263437D01*
X408274Y261841D01*
Y255464D01*
X410168D01*
X410834Y254706D01*
X411608Y252964D01*
X411141Y251838D01*
X410899Y250000D01*
X411025Y249044D01*
X409408Y246544D01*
X408274D01*
Y235464D01*
X427354D01*
Y246544D01*
X426592D01*
X424975Y249044D01*
X425101Y250000D01*
X424859Y251838D01*
X426193Y254429D01*
X427450Y254851D01*
X429162Y254141D01*
X431000Y253899D01*
X432838Y254141D01*
X434550Y254851D01*
X436021Y255979D01*
X437149Y257450D01*
X437859Y259162D01*
X438101Y261000D01*
X437859Y262838D01*
X437149Y264550D01*
X436021Y266021D01*
X434550Y267149D01*
X433514Y267579D01*
X433453Y269641D01*
X433522Y270168D01*
X435506Y271494D01*
X436887Y273561D01*
X437373Y276000D01*
X436887Y278439D01*
X435506Y280506D01*
X433439Y281887D01*
X431000Y282372D01*
X430195Y282212D01*
X428704Y283704D01*
X427463Y284533D01*
X426564Y284711D01*
Y285754D01*
X411379D01*
X409064Y285754D01*
X408879Y288177D01*
Y295464D01*
X427354D01*
Y306544D01*
X425348D01*
X423645Y308905D01*
X423644Y309044D01*
X423871Y310765D01*
X423629Y312603D01*
X423480Y312964D01*
X424927Y315287D01*
X427354Y315464D01*
X429578Y314797D01*
X431162Y314141D01*
X433000Y313899D01*
X434838Y314141D01*
X436550Y314851D01*
X438021Y315979D01*
X439149Y317450D01*
X439859Y319162D01*
X440101Y321000D01*
X439859Y322838D01*
X439149Y324550D01*
X438021Y326021D01*
X436550Y327149D01*
X434838Y327859D01*
X433000Y328101D01*
X431162Y327859D01*
X429581Y327204D01*
X427354Y326544D01*
X427354Y326544D01*
X413171D01*
X412214Y328854D01*
X418824Y335464D01*
X427354D01*
Y346544D01*
D02*
G37*
G36*
X230730Y288540D02*
X222960D01*
Y280770D01*
X230730D01*
Y288540D01*
D02*
G37*
G36*
X146540Y279790D02*
X138770D01*
Y272020D01*
X146540D01*
Y279790D01*
D02*
G37*
G36*
X136230D02*
X128460D01*
Y272020D01*
X136230D01*
Y279790D01*
D02*
G37*
G36*
X268000Y288101D02*
X266162Y287859D01*
X264450Y287149D01*
X263661Y286544D01*
X245460D01*
Y275464D01*
X263650D01*
X264450Y274851D01*
X266162Y274141D01*
X268000Y273899D01*
X269838Y274141D01*
X271550Y274851D01*
X273021Y275979D01*
X274149Y277450D01*
X274859Y279162D01*
X275101Y281000D01*
X274859Y282838D01*
X274149Y284550D01*
X273021Y286021D01*
X271550Y287149D01*
X269838Y287859D01*
X268000Y288101D01*
D02*
G37*
G36*
X490790Y285540D02*
X480520D01*
Y275270D01*
X490790D01*
Y285540D01*
D02*
G37*
G36*
X477980D02*
X467710D01*
Y275270D01*
X477980D01*
Y285540D01*
D02*
G37*
G36*
X178730Y461290D02*
X170960D01*
Y453520D01*
X178730D01*
Y461290D01*
D02*
G37*
G36*
X249380Y491522D02*
X247637Y491293D01*
X244830Y490130D01*
X242419Y488280D01*
X240570Y485870D01*
X239407Y483063D01*
X239211Y481572D01*
X236689D01*
X236493Y483063D01*
X235330Y485870D01*
X233480Y488280D01*
X231070Y490130D01*
X228263Y491293D01*
X226520Y491522D01*
Y480050D01*
Y468578D01*
X228263Y468807D01*
X231070Y469970D01*
X233480Y471820D01*
X235330Y474230D01*
X236493Y477038D01*
X236689Y478528D01*
X239211D01*
X239407Y477038D01*
X240570Y474230D01*
X242419Y471820D01*
X244830Y469970D01*
X247637Y468807D01*
X249380Y468578D01*
Y480050D01*
Y491522D01*
D02*
G37*
G36*
X223980D02*
X222237Y491293D01*
X219430Y490130D01*
X217020Y488280D01*
X215170Y485870D01*
X214007Y483063D01*
X213778Y481320D01*
X223980D01*
Y491522D01*
D02*
G37*
G36*
X287590Y491590D02*
X264510D01*
Y482337D01*
X262010Y482173D01*
X261893Y483063D01*
X260730Y485870D01*
X258880Y488280D01*
X256470Y490130D01*
X253662Y491293D01*
X251920Y491522D01*
Y480050D01*
Y468578D01*
X253662Y468807D01*
X256470Y469970D01*
X258880Y471820D01*
X260730Y474230D01*
X261893Y477038D01*
X262010Y477927D01*
X264510Y477763D01*
Y468510D01*
X287590D01*
Y491590D01*
D02*
G37*
G36*
X171026Y487230D02*
X164796Y481000D01*
X171026Y474770D01*
X171875Y475876D01*
X172899Y478348D01*
X173248Y481000D01*
X172899Y483652D01*
X171875Y486124D01*
X171026Y487230D01*
D02*
G37*
G36*
X202730Y461290D02*
X194960D01*
Y453520D01*
X202730D01*
Y461290D01*
D02*
G37*
G36*
X189040Y461290D02*
X181270D01*
Y453520D01*
X189040D01*
Y461290D01*
D02*
G37*
G36*
X223980Y478780D02*
X213778D01*
X214007Y477038D01*
X215170Y474230D01*
X217020Y471820D01*
X219430Y469970D01*
X222237Y468807D01*
X223980Y468578D01*
Y478780D01*
D02*
G37*
G36*
X213040Y461290D02*
X205270D01*
Y453520D01*
X213040D01*
Y461290D01*
D02*
G37*
G36*
X163000Y491248D02*
X160348Y490899D01*
X157876Y489875D01*
X156770Y489026D01*
X163000Y482796D01*
X169230Y489026D01*
X168124Y489875D01*
X165652Y490899D01*
X163000Y491248D01*
D02*
G37*
G36*
X459577Y664500D02*
X453568D01*
Y662666D01*
X459577D01*
Y664500D01*
D02*
G37*
G36*
X391281Y662348D02*
X390920Y662317D01*
X390556Y662327D01*
X390420Y662275D01*
X390275Y662263D01*
X389952Y662096D01*
X389613Y661966D01*
X389507Y661866D01*
X389377Y661798D01*
X389053Y661540D01*
X388460D01*
Y661067D01*
X388384Y661006D01*
X388290Y660894D01*
X388169Y660813D01*
X387967Y660511D01*
X387733Y660234D01*
X387688Y660095D01*
X387607Y659973D01*
X387537Y659617D01*
X387426Y659271D01*
X387439Y659125D01*
X387410Y658982D01*
Y615000D01*
X387607Y614009D01*
X388169Y613169D01*
X389009Y612607D01*
X390000Y612410D01*
X467026D01*
X468069Y611140D01*
X467842Y610000D01*
X468310Y607643D01*
X469645Y605645D01*
Y605355D01*
X468310Y603357D01*
X467842Y601000D01*
X468310Y598643D01*
X469645Y596645D01*
X471643Y595310D01*
X474000Y594842D01*
X476357Y595310D01*
X478355Y596645D01*
X478645D01*
X480643Y595310D01*
X483000Y594842D01*
X485357Y595310D01*
X487137Y596500D01*
X495960D01*
Y596460D01*
X498500D01*
Y596499D01*
X498501D01*
Y604000D01*
Y611501D01*
X498500D01*
Y611540D01*
X495960D01*
Y611500D01*
X488860D01*
X488689Y612357D01*
X488166Y613140D01*
X488845Y614410D01*
X488858D01*
X489849Y614607D01*
X490689Y615169D01*
X490872Y615443D01*
X493458D01*
Y627000D01*
Y638557D01*
X488858D01*
Y637341D01*
X488626Y637087D01*
X487588Y636473D01*
X487000Y636590D01*
X475142D01*
Y638557D01*
X474590D01*
Y655000D01*
X474393Y655991D01*
X473831Y656831D01*
X472991Y657393D01*
X472000Y657590D01*
X456000D01*
X455009Y657393D01*
X454800Y657253D01*
X453568D01*
Y655793D01*
X453410Y655000D01*
Y649262D01*
X452418Y648470D01*
X411540Y657760D01*
Y661540D01*
X394910D01*
X391567Y662300D01*
X391421Y662304D01*
X391281Y662348D01*
D02*
G37*
G36*
X499058Y709500D02*
X494458D01*
Y701443D01*
X499058D01*
Y709500D01*
D02*
G37*
G36*
X487458D02*
X482858D01*
Y701443D01*
X487458D01*
Y709500D01*
D02*
G37*
G36*
X595700Y866041D02*
X593380Y865080D01*
X590970Y863230D01*
X589120Y860820D01*
X588159Y858500D01*
X595700D01*
Y866041D01*
D02*
G37*
G36*
X621100D02*
X618780Y865080D01*
X616370Y863230D01*
X614520Y860820D01*
X613559Y858500D01*
X621100D01*
Y866041D01*
D02*
G37*
G36*
X505058Y623500D02*
X500458D01*
Y615443D01*
X505058D01*
Y623500D01*
D02*
G37*
G36*
X447540Y725540D02*
X422460D01*
Y700460D01*
X447540D01*
Y703378D01*
X451420D01*
Y685735D01*
X451748Y683245D01*
X452146Y682283D01*
X452709Y680924D01*
X453568Y679804D01*
Y678747D01*
X454422D01*
X456273Y676896D01*
X458266Y675367D01*
X460107Y674604D01*
X459855Y673334D01*
X453568D01*
Y671500D01*
X463077D01*
Y668000D01*
X466577D01*
Y662666D01*
X469796D01*
X470046Y662616D01*
X472469D01*
X477800Y656848D01*
X477842Y656818D01*
X477871Y656775D01*
X478249Y656522D01*
X478618Y656254D01*
X478668Y656242D01*
X478711Y656213D01*
X479157Y656125D01*
X479600Y656018D01*
X479651Y656026D01*
X479702Y656016D01*
X504026D01*
X505017Y656213D01*
X505857Y656775D01*
X506419Y657615D01*
X506616Y658606D01*
Y677394D01*
X506419Y678385D01*
X505857Y679225D01*
X505017Y679787D01*
X504026Y679984D01*
X479702D01*
X479677Y679979D01*
X479652Y679983D01*
X479183Y679881D01*
X478711Y679787D01*
X478690Y679772D01*
X478665Y679767D01*
X478271Y679492D01*
X477871Y679225D01*
X477857Y679204D01*
X477836Y679190D01*
X472250Y673384D01*
X470046D01*
X469796Y673334D01*
X466299D01*
X466046Y674604D01*
X467888Y675367D01*
X469881Y676896D01*
X471301Y678747D01*
X472586D01*
Y682839D01*
X472699Y683700D01*
X472586Y684561D01*
Y688653D01*
X471301D01*
X470664Y689483D01*
Y713000D01*
X470336Y715490D01*
X469375Y717811D01*
X469142Y718115D01*
Y724557D01*
X452942D01*
Y722622D01*
X447540D01*
Y725540D01*
D02*
G37*
G36*
X505058Y638557D02*
X500458D01*
Y630500D01*
X505058D01*
Y638557D01*
D02*
G37*
G36*
X487458Y724557D02*
X482858D01*
Y716500D01*
X487458D01*
Y724557D01*
D02*
G37*
G36*
X635641Y851500D02*
X628100D01*
Y843959D01*
X630420Y844920D01*
X632830Y846770D01*
X634680Y849180D01*
X635641Y851500D01*
D02*
G37*
G36*
X610241D02*
X602700D01*
Y843959D01*
X605020Y844920D01*
X607430Y846770D01*
X609280Y849180D01*
X610241Y851500D01*
D02*
G37*
G36*
X693459Y855689D02*
X692524Y854754D01*
X696117Y851162D01*
X697051Y852097D01*
X693459Y855689D01*
D02*
G37*
G36*
X687575Y849805D02*
X686640Y848870D01*
X690232Y845278D01*
X691167Y846212D01*
X687575Y849805D01*
D02*
G37*
G36*
X621100Y851500D02*
X613559D01*
X614520Y849180D01*
X616370Y846770D01*
X618780Y844920D01*
X621100Y843959D01*
Y851500D01*
D02*
G37*
G36*
X696117Y841263D02*
X695182Y840328D01*
X698774Y836736D01*
X699709Y837671D01*
X696117Y841263D01*
D02*
G37*
G36*
X499058Y724557D02*
X494458D01*
Y716500D01*
X499058D01*
Y724557D01*
D02*
G37*
G36*
X595700Y851500D02*
X588159D01*
X589120Y849180D01*
X590970Y846770D01*
X593380Y844920D01*
X595700Y843959D01*
Y851500D01*
D02*
G37*
G36*
X702001Y847147D02*
X701066Y846212D01*
X704658Y842620D01*
X705593Y843555D01*
X702001Y847147D01*
D02*
G37*
G36*
X640800Y544881D02*
X637312Y544538D01*
X633957Y543520D01*
X630866Y541868D01*
X628156Y539644D01*
X625932Y536934D01*
X624280Y533843D01*
X623262Y530488D01*
X622919Y527000D01*
X623262Y523512D01*
X624280Y520157D01*
X625932Y517066D01*
X628156Y514356D01*
X630866Y512132D01*
X633957Y510480D01*
X637312Y509462D01*
X640800Y509119D01*
X643604Y509395D01*
X644404Y508198D01*
X643680Y506843D01*
X642663Y503488D01*
X642319Y500000D01*
X642663Y496511D01*
X643680Y493157D01*
X645332Y490066D01*
X647556Y487356D01*
X650266Y485132D01*
X653357Y483480D01*
X656712Y482462D01*
X660200Y482119D01*
X663688Y482462D01*
X667043Y483480D01*
X670134Y485132D01*
X672844Y487356D01*
X675068Y490066D01*
X676720Y493157D01*
X677738Y496511D01*
X678081Y500000D01*
X677738Y503488D01*
X676720Y506843D01*
X675068Y509934D01*
X672844Y512644D01*
X670134Y514868D01*
X667043Y516520D01*
X663688Y517537D01*
X660200Y517881D01*
X657396Y517605D01*
X656596Y518802D01*
X657320Y520157D01*
X658337Y523512D01*
X658681Y527000D01*
X658337Y530488D01*
X657320Y533843D01*
X655668Y536934D01*
X653444Y539644D01*
X650734Y541868D01*
X647643Y543520D01*
X644288Y544538D01*
X640800Y544881D01*
D02*
G37*
G36*
X628100Y866041D02*
Y858500D01*
X635641D01*
X634680Y860820D01*
X632830Y863230D01*
X630420Y865080D01*
X628100Y866041D01*
D02*
G37*
G36*
X400000Y610840D02*
X396987Y610443D01*
X394180Y609280D01*
X391770Y607430D01*
X389920Y605020D01*
X388757Y602212D01*
X388360Y599200D01*
X388757Y596188D01*
X389920Y593380D01*
X391770Y590970D01*
X394180Y589120D01*
X396987Y587957D01*
X400000Y587560D01*
X403013Y587957D01*
X405820Y589120D01*
X408230Y590970D01*
X410080Y593380D01*
X411243Y596188D01*
X411640Y599200D01*
X411243Y602212D01*
X410080Y605020D01*
X408230Y607430D01*
X405820Y609280D01*
X403013Y610443D01*
X400000Y610840D01*
D02*
G37*
G36*
X602700Y866041D02*
Y858500D01*
X610241D01*
X609280Y860820D01*
X607430Y863230D01*
X605020Y865080D01*
X602700Y866041D01*
D02*
G37*
G36*
X513000Y611605D02*
X512202Y611500D01*
X508040D01*
Y611540D01*
X505500D01*
Y611501D01*
X505499D01*
Y604798D01*
X505395Y604000D01*
X505499Y603202D01*
Y596499D01*
X505500D01*
Y596460D01*
X508040D01*
Y596500D01*
X509745D01*
X514305Y591940D01*
X514339Y591679D01*
X515235Y589517D01*
X516660Y587660D01*
X518033Y586606D01*
X517336Y585540D01*
X516335Y585540D01*
X515000D01*
Y581500D01*
X517540D01*
Y584307D01*
X517540Y585383D01*
X518517Y586235D01*
X519110Y585989D01*
X520679Y585339D01*
X523000Y585033D01*
X525321Y585339D01*
X527483Y586235D01*
X529340Y587660D01*
X530765Y589517D01*
X531661Y591679D01*
X531967Y594000D01*
X531661Y596321D01*
X530765Y598483D01*
X529340Y600340D01*
X527483Y601765D01*
X525321Y602661D01*
X525060Y602696D01*
X518378Y609378D01*
X517500Y610051D01*
Y611500D01*
X513798D01*
X513000Y611605D01*
D02*
G37*
G36*
X492500Y590104D02*
X491713Y590000D01*
X482000D01*
Y584008D01*
X480809Y581133D01*
X480396Y578000D01*
Y570500D01*
X480809Y567367D01*
X482018Y564448D01*
X483941Y561941D01*
X490752Y555130D01*
X490873Y554215D01*
X492334Y550687D01*
X494658Y547659D01*
X497687Y545334D01*
X501214Y543873D01*
X505000Y543375D01*
X508785Y543873D01*
X512312Y545334D01*
X515341Y547659D01*
X517665Y550687D01*
X519127Y554215D01*
X519625Y558000D01*
X519127Y561785D01*
X517665Y565313D01*
X515341Y568341D01*
X514148Y569257D01*
X514556Y570460D01*
X517540D01*
Y574500D01*
X511500D01*
Y578000D01*
X508000D01*
Y585540D01*
X505460D01*
Y581224D01*
X504191Y581133D01*
X503000Y584008D01*
Y590000D01*
X493287D01*
X492500Y590104D01*
D02*
G37*
G36*
X708384Y523500D02*
X698900D01*
Y514016D01*
X702125Y515352D01*
X704911Y517489D01*
X707048Y520275D01*
X708384Y523500D01*
D02*
G37*
G36*
X691900D02*
X682416D01*
X683752Y520275D01*
X685889Y517489D01*
X688675Y515352D01*
X691900Y514016D01*
Y523500D01*
D02*
G37*
G36*
X698900Y539984D02*
Y530500D01*
X708384D01*
X707048Y533725D01*
X704911Y536511D01*
X702125Y538648D01*
X698900Y539984D01*
D02*
G37*
G36*
X691900D02*
X688675Y538648D01*
X685889Y536511D01*
X683752Y533725D01*
X682416Y530500D01*
X691900D01*
Y539984D01*
D02*
G37*
%LPD*%
G36*
X456000Y645000D02*
Y655000D01*
X472000D01*
Y634000D01*
Y615760D01*
X471643Y615690D01*
X470611Y615000D01*
X390000D01*
Y658982D01*
X390993Y659774D01*
X456000Y645000D01*
D02*
G37*
G36*
X484000Y614000D02*
X485775Y612225D01*
X485867Y612053D01*
X486013Y611702D01*
X486250Y611346D01*
X486320Y610995D01*
X486418Y610759D01*
X486467Y610509D01*
X486609Y610297D01*
X486707Y610061D01*
X486887Y609881D01*
X487029Y609669D01*
X487241Y609527D01*
X487421Y609347D01*
X487657Y609249D01*
X487869Y609107D01*
X488119Y609058D01*
X488355Y608960D01*
X488610D01*
X488860Y608910D01*
X495911D01*
Y599090D01*
X487137D01*
X486887Y599040D01*
X486632D01*
X486396Y598942D01*
X486146Y598893D01*
X485934Y598751D01*
X485698Y598653D01*
X484346Y597750D01*
X483000Y597482D01*
X481654Y597750D01*
X480084Y598799D01*
X479849Y598896D01*
X479636Y599038D01*
X479386Y599088D01*
X479151Y599185D01*
X478896D01*
X478645Y599235D01*
X478355D01*
X478104Y599185D01*
X477849D01*
X477614Y599088D01*
X477364Y599038D01*
X477151Y598896D01*
X476916Y598799D01*
X475346Y597750D01*
X474000Y597482D01*
X472654Y597750D01*
X471512Y598512D01*
X470750Y599654D01*
X470482Y601000D01*
X470750Y602346D01*
X471799Y603916D01*
X471896Y604151D01*
X472038Y604364D01*
X472088Y604614D01*
X472185Y604849D01*
Y605104D01*
X472235Y605355D01*
Y605645D01*
X472185Y605896D01*
Y606151D01*
X472088Y606386D01*
X472038Y606637D01*
X471896Y606849D01*
X471799Y607084D01*
X470750Y608654D01*
X470482Y610000D01*
X470608Y610635D01*
Y610763D01*
X470646Y610886D01*
X470620Y611144D01*
X470617Y611655D01*
X471221Y612349D01*
X471602Y612607D01*
X471814Y612749D01*
X472050Y612847D01*
X472762Y613322D01*
X472991Y613368D01*
X473203Y613510D01*
X473439Y613607D01*
X473619Y613787D01*
X473831Y613929D01*
X473895Y614024D01*
X484000Y614000D01*
D02*
G37*
G36*
X488858Y632142D02*
Y617000D01*
X475142D01*
Y634000D01*
X487000D01*
X488858Y632142D01*
D02*
G37*
G36*
X504026Y658606D02*
X479702D01*
X473602Y665206D01*
X470046D01*
Y670794D01*
X473352D01*
X479702Y677394D01*
X504026D01*
Y658606D01*
D02*
G37*
%LPC*%
G36*
X24950Y236890D02*
X21937Y236493D01*
X19130Y235330D01*
X16720Y233480D01*
X14870Y231070D01*
X13707Y228263D01*
X13311Y225250D01*
X13707Y222237D01*
X14870Y219430D01*
X16720Y217020D01*
X19130Y215170D01*
X21937Y214007D01*
X24950Y213610D01*
X27963Y214007D01*
X30770Y215170D01*
X33180Y217020D01*
X35030Y219430D01*
X36193Y222237D01*
X36590Y225250D01*
X36193Y228263D01*
X35030Y231070D01*
X33180Y233480D01*
X30770Y235330D01*
X27963Y236493D01*
X24950Y236890D01*
D02*
G37*
%LPD*%
D10*
X231000Y351042D02*
D03*
Y380958D02*
D03*
X826000Y707542D02*
D03*
Y737458D02*
D03*
D11*
X89000Y401000D02*
X100750D01*
X102000Y402250D02*
Y424000D01*
X312250Y419750D02*
X315250Y416750D01*
Y394000D02*
Y416750D01*
X137500Y235000D02*
Y252250D01*
D12*
X279870Y406780D02*
X286637D01*
X417814Y281000D02*
X426000D01*
X431000Y276000D01*
X762750Y802750D02*
X774566Y790934D01*
X762750Y802750D02*
Y815500D01*
X850000Y576778D02*
Y589422D01*
X279870Y412705D02*
Y413120D01*
X397000Y66000D02*
X398000D01*
X410000Y78000D01*
X417814Y321000D02*
X433000D01*
X416770Y310765D02*
X417814Y309722D01*
X404500Y327686D02*
X417814Y341000D01*
X404500Y327686D02*
X404520Y327666D01*
X404250Y327397D02*
X404520Y327666D01*
X404250Y270500D02*
Y327397D01*
X376750Y138000D02*
X400000D01*
X362000Y123250D02*
X376750Y138000D01*
X385750Y124000D02*
X401000D01*
X385000Y123250D02*
X385750Y124000D01*
X279870Y419480D02*
X293270D01*
X255000Y281000D02*
X268000D01*
X365750Y151000D02*
X399000D01*
X338000Y123250D02*
X365750Y151000D01*
X255000Y361000D02*
X266417D01*
X225195Y419045D02*
X225630Y419480D01*
X305750Y371750D02*
Y407000D01*
X294250Y388833D02*
Y399167D01*
X266417Y361000D02*
X294250Y388833D01*
X286637Y406780D02*
X294250Y399167D01*
X293270Y419480D02*
X305750Y407000D01*
X195750Y338750D02*
X196000Y339000D01*
Y325250D02*
Y339000D01*
X195750Y325000D02*
X196000Y325250D01*
X238795Y412705D02*
X257500Y394000D01*
X286000D01*
X255000Y321000D02*
X305750Y371750D01*
X417814Y301000D02*
Y309722D01*
X225630Y413120D02*
X226045Y412705D01*
X238795D01*
X201022Y419045D02*
X225195D01*
X198813Y406750D02*
X224098D01*
X255000Y341000D02*
X259750D01*
X300000Y381250D01*
X279870Y413120D02*
X289630D01*
X300000Y402750D01*
Y381250D02*
Y402750D01*
X255000Y241000D02*
X278000D01*
X288000Y251000D01*
X208750Y261000D02*
X232000D01*
X255000D01*
D14*
X850000Y522000D02*
Y535922D01*
X806577Y478577D02*
X850000Y522000D01*
X550000Y428000D02*
X589730Y388270D01*
X715770D01*
X778500Y451000D01*
X799577Y478577D02*
X806577D01*
X492500Y570500D02*
X505000Y558000D01*
X492500Y570500D02*
Y578000D01*
X609940Y461000D02*
X716237D01*
X771270Y516033D01*
X513000Y604000D02*
X523000Y594000D01*
X771270Y516033D02*
X807033D01*
X778500Y451000D02*
Y457500D01*
D15*
X801815Y731727D02*
X826000Y707542D01*
X796959Y745959D02*
Y755070D01*
X782199Y769831D02*
X796959Y755070D01*
X810041Y759041D02*
X826000Y743081D01*
Y737458D02*
Y743081D01*
X795669Y783301D02*
X807199D01*
X845507Y721493D02*
X855710D01*
X856000Y704507D02*
X863250Y711757D01*
Y727250D01*
X807199Y783301D02*
X863250Y727250D01*
X832250Y734750D02*
X845507Y721493D01*
X856000Y704507D02*
X862208Y698299D01*
Y684250D02*
Y698299D01*
X832250Y684292D02*
Y707292D01*
Y684292D02*
X832292Y684250D01*
X840500Y676042D01*
Y635000D02*
Y676042D01*
X850000Y672042D02*
X862208Y684250D01*
X850000Y658876D02*
Y672042D01*
Y658876D02*
X850118D01*
X867334Y641660D01*
Y628340D02*
Y641660D01*
X859500Y620506D02*
X867334Y628340D01*
X859500Y610250D02*
Y620506D01*
X840500Y635000D02*
X840500Y635000D01*
Y610250D02*
Y635000D01*
X840460Y610210D02*
X840500Y610250D01*
X859540Y556790D02*
Y610210D01*
X859500Y610250D02*
X859540Y610210D01*
X859500Y556750D02*
X859540Y556790D01*
X840460D02*
Y610210D01*
Y556790D02*
X840500Y556750D01*
X434042Y361000D02*
X434042Y361000D01*
X417814Y361000D02*
X434042D01*
X255000Y300943D02*
Y301000D01*
X417814Y261000D02*
X417814Y261000D01*
X417814Y261000D02*
X431000D01*
X418000Y241186D02*
Y250000D01*
X667173Y864173D02*
X714077D01*
X658000Y855000D02*
X667173Y864173D01*
X650000Y855000D02*
X658000D01*
X100750Y401000D02*
X102000Y402250D01*
Y424000D02*
X103000Y425000D01*
X190250Y261000D02*
Y264000D01*
X181250Y273000D02*
X190250Y264000D01*
X243000Y301000D02*
X255000D01*
X417814Y241000D02*
X418000Y241186D01*
X741856Y784742D02*
X794872Y731727D01*
X801815D01*
X741856Y784742D02*
Y801183D01*
D16*
X640800Y527000D02*
D03*
X695400D02*
D03*
X750000D02*
D03*
X551000Y500000D02*
D03*
X605600D02*
D03*
X660200D02*
D03*
D17*
X436000Y571000D02*
D03*
Y534000D02*
D03*
D18*
X435000Y713000D02*
D03*
X435000Y738000D02*
D03*
D19*
X24950Y225250D02*
D03*
Y250650D02*
D03*
X400000Y599200D02*
D03*
Y624600D02*
D03*
X599200Y855000D02*
D03*
X624600D02*
D03*
X474921Y154921D02*
D03*
X456960Y136960D02*
D03*
X439000Y119000D02*
D03*
X225250Y480050D02*
D03*
X250650D02*
D03*
X479250Y248600D02*
D03*
Y191500D02*
D03*
X479250Y305600D02*
D03*
D20*
X24950Y276050D02*
D03*
X400000Y650000D02*
D03*
X479250Y274000D02*
D03*
Y216900D02*
D03*
X479250Y331000D02*
D03*
D21*
X650000Y855000D02*
D03*
X276050Y480050D02*
D03*
D22*
X600000Y428000D02*
D03*
X550000D02*
D03*
X707000D02*
D03*
X657000D02*
D03*
D23*
X753967Y462967D02*
D03*
X807000Y516000D02*
D03*
D24*
X421040Y101039D02*
D03*
D25*
X103000Y425000D02*
D03*
X163000Y481000D02*
D03*
D26*
X247750Y351000D02*
D03*
X246500Y425000D02*
D03*
X296000Y444000D02*
D03*
X422500Y397500D02*
D03*
X400000Y420000D02*
D03*
X373000Y447000D02*
D03*
X352500Y467500D02*
D03*
X362000Y409000D02*
D03*
X329000Y438000D02*
D03*
X431000Y276000D02*
D03*
X850000Y576778D02*
D03*
X431000Y261000D02*
D03*
X418000Y250000D02*
D03*
X410000Y78000D02*
D03*
X243000Y301000D02*
D03*
X181250Y273000D02*
D03*
X433000Y321000D02*
D03*
X416770Y310765D02*
D03*
X404250Y270500D02*
D03*
X401000Y124000D02*
D03*
X400000Y138000D02*
D03*
X266250Y311250D02*
D03*
X288000Y251000D02*
D03*
X268000Y281000D02*
D03*
X399000Y151000D02*
D03*
X286000Y394000D02*
D03*
X196000Y339000D02*
D03*
X230750Y338500D02*
D03*
X214000Y351250D02*
D03*
X89000Y401000D02*
D03*
X262000Y410250D02*
D03*
X214000Y308750D02*
D03*
X315250Y394000D02*
D03*
X201022Y419045D02*
D03*
X198813Y406750D02*
D03*
X207000Y285250D02*
D03*
X137500Y235000D02*
D03*
X232000Y242500D02*
D03*
D27*
X483000Y610000D02*
D03*
Y601000D02*
D03*
X474000Y610000D02*
D03*
Y601000D02*
D03*
X508000Y627000D02*
D03*
X497000Y642000D02*
D03*
X503000Y713000D02*
D03*
X508000Y615000D02*
D03*
X545000Y580000D02*
D03*
X521000Y579000D02*
D03*
D28*
X523000Y594000D02*
D03*
D29*
X505000Y558000D02*
D03*
D30*
X810041Y759041D02*
D03*
X796959Y745959D02*
D03*
D31*
X438000Y379250D02*
D03*
Y360750D02*
D03*
X338000Y123250D02*
D03*
Y104750D02*
D03*
X385000Y123250D02*
D03*
Y104750D02*
D03*
X362000Y123250D02*
D03*
Y104750D02*
D03*
X312250Y438250D02*
D03*
Y419750D02*
D03*
X137500Y252250D02*
D03*
Y270750D02*
D03*
X204000Y433750D02*
D03*
X204000Y452250D02*
D03*
X180000Y433750D02*
D03*
X180000Y452250D02*
D03*
X232000Y261000D02*
D03*
Y279500D02*
D03*
X102000Y383750D02*
D03*
Y402250D02*
D03*
D32*
X397000Y66000D02*
D03*
X383918Y79082D02*
D03*
D33*
X195750Y325000D02*
D03*
X214250D02*
D03*
X190250Y261000D02*
D03*
X208750D02*
D03*
D34*
X856000Y704507D02*
D03*
Y721493D02*
D03*
D35*
X840500Y610250D02*
D03*
X859500D02*
D03*
X850000Y589422D02*
D03*
X840500Y556750D02*
D03*
X859500D02*
D03*
X850000Y535922D02*
D03*
D36*
X774566Y790934D02*
D03*
X782199Y769831D02*
D03*
X795669Y783301D02*
D03*
D37*
X832292Y684250D02*
D03*
X862208D02*
D03*
X496958Y627000D02*
D03*
X467042D02*
D03*
X490958Y713000D02*
D03*
X461042D02*
D03*
D38*
X859500Y635000D02*
D03*
X840500D02*
D03*
X850000Y658876D02*
D03*
D39*
X463077Y683700D02*
D03*
Y652300D02*
D03*
D40*
Y668000D02*
D03*
D41*
X492500Y578000D02*
D03*
Y604000D02*
D03*
X502000D02*
D03*
X511500D02*
D03*
Y578000D02*
D03*
D42*
X552060Y461000D02*
D03*
X609940D02*
D03*
D43*
X778423Y457423D02*
D03*
X799577Y478577D02*
D03*
D44*
X714077Y864173D02*
D03*
X696117Y846212D02*
D03*
X744790Y797540D02*
D03*
X762750Y815500D02*
D03*
D45*
X279870Y406780D02*
D03*
Y413120D02*
D03*
Y419480D02*
D03*
Y425820D02*
D03*
Y432180D02*
D03*
X279870Y438520D02*
D03*
X279870Y444880D02*
D03*
Y451220D02*
D03*
X225630Y451220D02*
D03*
Y444880D02*
D03*
Y438520D02*
D03*
X225630Y432180D02*
D03*
Y425820D02*
D03*
X225630Y419480D02*
D03*
X225630Y413120D02*
D03*
Y406780D02*
D03*
D46*
X417814Y261004D02*
D03*
X417814Y281004D02*
D03*
X417814Y301004D02*
D03*
X417814Y321004D02*
D03*
X417814Y341004D02*
D03*
X417814Y361004D02*
D03*
X255000Y241004D02*
D03*
X255000Y261004D02*
D03*
X255000Y281004D02*
D03*
Y301004D02*
D03*
X255000Y321004D02*
D03*
Y341004D02*
D03*
X255000Y361004D02*
D03*
X417814Y241004D02*
D03*
Y381000D02*
D03*
X255000Y381000D02*
D03*
D47*
X461042Y685735D02*
X463077Y683700D01*
X461042Y685735D02*
Y713000D01*
X435000D02*
X461042D01*
M02*
