G04 Layer_Physical_Order=1*
G04 Layer_Color=255*
%FSLAX44Y44*%
%MOMM*%
G71*
G01*
G75*
%ADD10R,1.8034X1.1120*%
%ADD11C,0.7000*%
%ADD12C,0.5000*%
%ADD13C,0.4000*%
%ADD14C,1.1000*%
%ADD15C,1.0000*%
%ADD16C,2.0000*%
%ADD17C,1.8000*%
%ADD18R,1.8000X1.8000*%
%ADD19R,1.8000X1.8000*%
%ADD20P,2.5456X4X360.0*%
%ADD21C,1.1684*%
%ADD22C,2.0000*%
%ADD23C,2.1590*%
%ADD24R,2.0000X2.0000*%
%ADD25R,2.0000X3.0000*%
%ADD26C,0.9000*%
%ADD27C,1.5000*%
%ADD28C,0.7000*%
%ADD29C,1.2700*%
G36*
X449000Y700000D02*
Y663000D01*
X486000Y626000D01*
X495000Y617000D01*
Y609000D01*
Y597565D01*
X466150D01*
X459138Y604578D01*
X457562Y605786D01*
X456466Y606240D01*
X440000Y626000D01*
X422000Y644000D01*
Y723000D01*
X449000D01*
Y700000D01*
D02*
G37*
G36*
X372000Y356000D02*
Y256000D01*
X272000D01*
Y356000D01*
X323000D01*
X340737Y375000D01*
X353000D01*
X372000Y356000D01*
D02*
G37*
G36*
X150438Y370000D02*
X150438Y353000D01*
Y253000D01*
X50438D01*
Y353000D01*
X117438D01*
X134438Y370000D01*
X150438Y370000D01*
D02*
G37*
G36*
X871115Y723391D02*
Y526609D01*
X859506Y515000D01*
X836979D01*
Y527299D01*
X836566Y530431D01*
X835357Y533350D01*
X833434Y535857D01*
X833104Y536187D01*
Y540482D01*
X836017D01*
Y565602D01*
X803983D01*
Y550354D01*
X802713Y550036D01*
X802532Y550374D01*
X800658Y552658D01*
X798374Y554532D01*
X795768Y555925D01*
X792941Y556783D01*
X790000Y557073D01*
X739517D01*
X739311Y557052D01*
X739104Y557067D01*
X737841Y556908D01*
X736576Y556783D01*
X736378Y556723D01*
X736172Y556697D01*
X734965Y556294D01*
X733749Y555925D01*
X733566Y555827D01*
X733369Y555762D01*
X732264Y555132D01*
X731143Y554532D01*
X730983Y554401D01*
X730803Y554298D01*
X729842Y553465D01*
X728859Y552658D01*
X728727Y552497D01*
X728571Y552362D01*
X727792Y551357D01*
X726984Y550374D01*
X726887Y550191D01*
X726760Y550027D01*
X704720Y515000D01*
X675521D01*
X674403Y517090D01*
X672279Y519679D01*
X672279Y519679D01*
X656407Y535551D01*
X655668Y536934D01*
X653444Y539644D01*
X650734Y541868D01*
X647643Y543520D01*
X645380Y544206D01*
X626641Y555597D01*
X625461Y556165D01*
X624305Y556782D01*
X623954Y556889D01*
X623623Y557048D01*
X622354Y557374D01*
X621101Y557754D01*
X620736Y557790D01*
X620380Y557882D01*
X619072Y557954D01*
X617768Y558082D01*
X529075D01*
X517079Y570079D01*
X514490Y572203D01*
X511537Y573782D01*
X508332Y574754D01*
X505000Y575082D01*
X501667Y574754D01*
X498463Y573782D01*
X497857Y573458D01*
X490134Y581182D01*
X490620Y582355D01*
X518960D01*
X520928Y582614D01*
X521872Y583005D01*
X522762Y583374D01*
X524338Y584582D01*
X525060Y585304D01*
X525321Y585339D01*
X527483Y586235D01*
X529340Y587660D01*
X530765Y589517D01*
X531661Y591679D01*
X531967Y594000D01*
X531661Y596321D01*
X530765Y598483D01*
X529340Y600340D01*
X527483Y601765D01*
X525321Y602661D01*
X523000Y602967D01*
X520679Y602661D01*
X518517Y601765D01*
X516660Y600340D01*
X515235Y598483D01*
X514854Y597565D01*
X497590D01*
Y609000D01*
Y617000D01*
X497393Y617991D01*
X496831Y618831D01*
X487831Y627831D01*
X451590Y664073D01*
Y700000D01*
Y723000D01*
X451393Y723991D01*
X450831Y724831D01*
X449991Y725393D01*
X449000Y725590D01*
X422000D01*
X421009Y725393D01*
X420169Y724831D01*
X419607Y723991D01*
X419410Y723000D01*
Y644000D01*
X419607Y643009D01*
X420169Y642169D01*
X438086Y624252D01*
X451666Y607955D01*
X451128Y606805D01*
X408710D01*
X408230Y607430D01*
X405820Y609280D01*
X403013Y610443D01*
X400000Y610840D01*
X396987Y610443D01*
X394180Y609280D01*
X391770Y607430D01*
X389920Y605020D01*
X388757Y602212D01*
X388360Y599200D01*
X388757Y596188D01*
X389650Y594033D01*
X389342Y593781D01*
X388872Y593208D01*
X388349Y592685D01*
X387937Y592069D01*
X387468Y591497D01*
X387119Y590844D01*
X386707Y590228D01*
X386424Y589544D01*
X386075Y588891D01*
X385860Y588182D01*
X385576Y587498D01*
X385432Y586772D01*
X385217Y586063D01*
X385145Y585326D01*
X385000Y584600D01*
Y583859D01*
X384927Y583123D01*
Y545114D01*
X378885D01*
Y723391D01*
X526609Y871115D01*
X723391D01*
X871115Y723391D01*
D02*
G37*
G36*
X790000Y480000D02*
X725000Y415000D01*
X695000D01*
X695000Y471250D01*
X739517Y542000D01*
X790000D01*
Y480000D01*
D02*
G37*
G36*
X454441Y581401D02*
X456948Y579478D01*
X459867Y578269D01*
X463000Y577856D01*
X472144D01*
X488344Y561656D01*
X488246Y561333D01*
X487917Y558000D01*
X488246Y554667D01*
X489218Y551463D01*
X490796Y548510D01*
X492921Y545921D01*
X509921Y528921D01*
X509921Y528921D01*
X512509Y526797D01*
X515463Y525218D01*
X518667Y524246D01*
X522000Y523918D01*
X526082D01*
X537905Y512095D01*
X536132Y509934D01*
X534480Y506843D01*
X533462Y503488D01*
X533119Y500000D01*
X533462Y496511D01*
X534480Y493157D01*
X536132Y490066D01*
X538356Y487356D01*
X541066Y485132D01*
X544157Y483480D01*
X547512Y482462D01*
X551000Y482119D01*
X554488Y482462D01*
X557843Y483480D01*
X560934Y485132D01*
X563095Y486905D01*
X600089Y449911D01*
X672919Y449911D01*
X672988Y384240D01*
X672091Y383341D01*
X528455D01*
X480898Y430898D01*
X479171Y432224D01*
X478497Y432503D01*
X432503Y478497D01*
X432224Y479171D01*
X430898Y480898D01*
X400000Y511796D01*
Y583123D01*
X403136Y583432D01*
X406153Y584346D01*
X408932Y585832D01*
X410473Y587096D01*
X448746D01*
X454441Y581401D01*
D02*
G37*
G36*
X397253Y447253D02*
X397253Y447253D01*
X397988Y446762D01*
X446762Y397988D01*
X447253Y397253D01*
X447253Y397253D01*
X496115Y348391D01*
Y210000D01*
X479494D01*
X478063Y210593D01*
X475050Y210989D01*
X472037Y210593D01*
X470606Y210000D01*
X440000D01*
X421855Y228145D01*
X448751Y255042D01*
X464460D01*
Y249660D01*
X487540D01*
Y272740D01*
X464460D01*
Y267358D01*
X446200D01*
X443843Y266889D01*
X441845Y265555D01*
X437324Y261034D01*
X436030Y261535D01*
X435859Y262838D01*
X435149Y264550D01*
X434139Y265868D01*
Y313421D01*
X435278Y313983D01*
X435450Y313851D01*
X437162Y313141D01*
X439000Y312899D01*
X440838Y313141D01*
X442550Y313851D01*
X443077Y314255D01*
X443357Y314310D01*
X445355Y315645D01*
X460951Y331242D01*
X466180D01*
X467770Y329170D01*
X470180Y327320D01*
X472987Y326157D01*
X476000Y325760D01*
X479012Y326157D01*
X481820Y327320D01*
X484230Y329170D01*
X486080Y331580D01*
X487243Y334388D01*
X487640Y337400D01*
X487243Y340413D01*
X486080Y343220D01*
X484230Y345630D01*
X481820Y347480D01*
X479012Y348643D01*
X476000Y349040D01*
X472987Y348643D01*
X470180Y347480D01*
X467770Y345630D01*
X466180Y343558D01*
X458400D01*
X456043Y343090D01*
X454045Y341755D01*
X439346Y327055D01*
X439000Y327101D01*
X437162Y326859D01*
X435450Y326149D01*
X435278Y326017D01*
X434139Y326579D01*
Y393639D01*
X433748Y395606D01*
X432634Y397273D01*
X409600Y420306D01*
X409883Y420987D01*
X410279Y424000D01*
X409883Y427012D01*
X408720Y429820D01*
X406870Y432230D01*
X404459Y434080D01*
X401652Y435243D01*
X398639Y435639D01*
X395627Y435243D01*
X392820Y434080D01*
X390409Y432230D01*
X388559Y429820D01*
X387397Y427012D01*
X387268Y426035D01*
X385879Y425215D01*
X385818Y425238D01*
Y431598D01*
X386499Y431880D01*
X388909Y433730D01*
X390759Y436141D01*
X391922Y438948D01*
X392319Y441960D01*
X391922Y444973D01*
X390759Y447780D01*
X388909Y450191D01*
X386499Y452041D01*
X383692Y453203D01*
X380679Y453600D01*
X377667Y453203D01*
X374859Y452041D01*
X372449Y450191D01*
X370599Y447780D01*
X369436Y444973D01*
X369039Y441960D01*
X369436Y438948D01*
X370599Y436141D01*
X372449Y433730D01*
X374859Y431880D01*
X375540Y431598D01*
Y422105D01*
X375719Y421205D01*
X374549Y420579D01*
X364065Y431063D01*
X362659Y432003D01*
X361001Y432332D01*
X336621D01*
X336505Y432505D01*
X334438Y433886D01*
X331999Y434372D01*
X329561Y433886D01*
X327493Y432505D01*
X327156Y432000D01*
X300767D01*
X299439Y432887D01*
X297000Y433372D01*
X294561Y432887D01*
X293233Y432000D01*
X151000D01*
X121000Y402000D01*
X120000Y403000D01*
X60153D01*
X59667Y404173D01*
X151609Y496115D01*
X348391D01*
X397253Y447253D01*
D02*
G37*
G36*
X372000Y114000D02*
X272000Y114000D01*
Y161000D01*
X256000Y177000D01*
X256000Y186000D01*
X272000Y202000D01*
Y214000D01*
X372000D01*
Y114000D01*
D02*
G37*
G36*
X150438Y201000D02*
X166439Y185000D01*
X166438Y176000D01*
X150438Y160000D01*
Y113000D01*
X50438Y113000D01*
X50438Y213000D01*
X150438D01*
Y201000D01*
D02*
G37*
G36*
X412861Y382872D02*
Y254868D01*
X411851Y253550D01*
X411141Y251838D01*
X410899Y250000D01*
X411141Y248162D01*
X411851Y246450D01*
X412979Y244979D01*
X414450Y243851D01*
X416162Y243141D01*
X417464Y242970D01*
X417966Y241675D01*
X413145Y236855D01*
X408274Y241726D01*
Y290250D01*
X409003Y291342D01*
X409333Y293000D01*
Y384000D01*
X409183Y384753D01*
X410354Y385379D01*
X412861Y382872D01*
D02*
G37*
%LPC*%
G36*
X595700Y851500D02*
X588159D01*
X589120Y849180D01*
X590970Y846770D01*
X593380Y844920D01*
X595700Y843959D01*
Y851500D01*
D02*
G37*
G36*
X621100D02*
X613559D01*
X614520Y849180D01*
X616370Y846770D01*
X618780Y844920D01*
X621100Y843959D01*
Y851500D01*
D02*
G37*
G36*
X610241D02*
X602700D01*
Y843959D01*
X605020Y844920D01*
X607430Y846770D01*
X609280Y849180D01*
X610241Y851500D01*
D02*
G37*
G36*
X661540D02*
X653500D01*
Y843460D01*
X661540D01*
Y851500D01*
D02*
G37*
G36*
X400000Y636240D02*
X396987Y635843D01*
X394180Y634680D01*
X391770Y632830D01*
X389920Y630420D01*
X388757Y627612D01*
X388360Y624600D01*
X388757Y621587D01*
X389920Y618780D01*
X391770Y616370D01*
X394180Y614520D01*
X396987Y613357D01*
X400000Y612960D01*
X403013Y613357D01*
X405820Y614520D01*
X408230Y616370D01*
X410080Y618780D01*
X411243Y621587D01*
X411640Y624600D01*
X411243Y627612D01*
X410080Y630420D01*
X408230Y632830D01*
X405820Y634680D01*
X403013Y635843D01*
X400000Y636240D01*
D02*
G37*
G36*
X411540Y661540D02*
X388460D01*
Y638460D01*
X411540D01*
Y661540D01*
D02*
G37*
G36*
X646500Y851500D02*
X638460D01*
Y843460D01*
X646500D01*
Y851500D01*
D02*
G37*
G36*
X661540Y866540D02*
X653500D01*
Y858500D01*
X661540D01*
Y866540D01*
D02*
G37*
G36*
X602700Y866041D02*
Y858500D01*
X610241D01*
X609280Y860820D01*
X607430Y863230D01*
X605020Y865080D01*
X602700Y866041D01*
D02*
G37*
G36*
X628100D02*
Y858500D01*
X635641D01*
X634680Y860820D01*
X632830Y863230D01*
X630420Y865080D01*
X628100Y866041D01*
D02*
G37*
G36*
X621100Y866041D02*
X618780Y865080D01*
X616370Y863230D01*
X614520Y860820D01*
X613559Y858500D01*
X621100D01*
Y866041D01*
D02*
G37*
G36*
X635641Y851500D02*
X628100D01*
Y843959D01*
X630420Y844920D01*
X632830Y846770D01*
X634680Y849180D01*
X635641Y851500D01*
D02*
G37*
G36*
X646500Y866540D02*
X638460D01*
Y858500D01*
X646500D01*
Y866540D01*
D02*
G37*
G36*
X595700Y866041D02*
X593380Y865080D01*
X590970Y863230D01*
X589120Y860820D01*
X588159Y858500D01*
X595700D01*
Y866041D01*
D02*
G37*
G36*
X861540Y561540D02*
X838460D01*
Y538460D01*
X861540D01*
Y561540D01*
D02*
G37*
G36*
X820000Y591067D02*
X819929Y591058D01*
X808443D01*
Y574858D01*
X816632D01*
X821824Y569666D01*
X823503Y568377D01*
X825459Y567567D01*
X827558Y567291D01*
X841677D01*
X841770Y567170D01*
X844180Y565320D01*
X846987Y564157D01*
X850000Y563760D01*
X853012Y564157D01*
X855820Y565320D01*
X858230Y567170D01*
X860080Y569580D01*
X861243Y572388D01*
X861639Y575400D01*
X861243Y578413D01*
X860080Y581220D01*
X858230Y583630D01*
X855820Y585480D01*
X853012Y586643D01*
X850000Y587039D01*
X846987Y586643D01*
X844180Y585480D01*
X841770Y583630D01*
X841677Y583509D01*
X831557D01*
Y591058D01*
X820071D01*
X820000Y591067D01*
D02*
G37*
G36*
X550000Y445082D02*
X546667Y444754D01*
X543463Y443782D01*
X540510Y442203D01*
X537921Y440079D01*
X535797Y437490D01*
X534218Y434537D01*
X533246Y431333D01*
X532918Y428000D01*
X533246Y424667D01*
X534218Y421463D01*
X535797Y418510D01*
X537921Y415921D01*
X540510Y413797D01*
X543463Y412218D01*
X546667Y411246D01*
X550000Y410918D01*
X553333Y411246D01*
X556537Y412218D01*
X559490Y413797D01*
X562079Y415921D01*
X564203Y418510D01*
X565782Y421463D01*
X566754Y424667D01*
X567082Y428000D01*
X566754Y431333D01*
X565782Y434537D01*
X564203Y437490D01*
X562079Y440079D01*
X559490Y442203D01*
X556537Y443782D01*
X553333Y444754D01*
X550000Y445082D01*
D02*
G37*
G36*
X453000Y556000D02*
X419000D01*
Y512000D01*
X453000D01*
Y556000D01*
D02*
G37*
G36*
X344758Y476086D02*
X337496Y468824D01*
X340556Y465763D01*
X340070Y464590D01*
X294487Y464590D01*
X293838Y464859D01*
X292000Y465101D01*
X290162Y464859D01*
X289513Y464590D01*
X287000D01*
X286009Y464393D01*
X285169Y463831D01*
X284607Y462991D01*
X284410Y462000D01*
Y443000D01*
X284607Y442009D01*
X285169Y441169D01*
X286009Y440607D01*
X287000Y440410D01*
X359000D01*
X359991Y440607D01*
X360831Y441169D01*
X377331Y457669D01*
X377893Y458509D01*
X378090Y459500D01*
X377893Y460491D01*
X377331Y461331D01*
X372393Y466269D01*
X370949Y468151D01*
X369067Y469596D01*
X364966Y473696D01*
X364126Y474258D01*
X363135Y474455D01*
X361865D01*
X360874Y474258D01*
X360034Y473696D01*
X354492Y468154D01*
X354488Y468151D01*
X354485Y468148D01*
X350927Y464590D01*
X349445D01*
X348960Y465763D01*
X352020Y468824D01*
X344758Y476086D01*
D02*
G37*
G36*
X473780Y223480D02*
X463578D01*
X463807Y221737D01*
X464970Y218930D01*
X466820Y216520D01*
X469230Y214670D01*
X472037Y213507D01*
X473780Y213278D01*
Y223480D01*
D02*
G37*
G36*
X249380Y478780D02*
X239178D01*
X239407Y477038D01*
X240570Y474230D01*
X242419Y471820D01*
X244830Y469970D01*
X247637Y468807D01*
X249380Y468578D01*
Y478780D01*
D02*
G37*
G36*
X236722D02*
X226520D01*
Y468578D01*
X228263Y468807D01*
X231070Y469970D01*
X233480Y471820D01*
X235330Y474230D01*
X236493Y477038D01*
X236722Y478780D01*
D02*
G37*
G36*
X223980D02*
X213778D01*
X214007Y477038D01*
X215170Y474230D01*
X217020Y471820D01*
X219430Y469970D01*
X222237Y468807D01*
X223980Y468578D01*
Y478780D01*
D02*
G37*
G36*
X274780D02*
X264510D01*
Y468510D01*
X274780D01*
Y478780D01*
D02*
G37*
G36*
X287590D02*
X277320D01*
Y468510D01*
X287590D01*
Y478780D01*
D02*
G37*
G36*
X477270Y323472D02*
Y313270D01*
X487472D01*
X487243Y315013D01*
X486080Y317820D01*
X484230Y320230D01*
X481820Y322080D01*
X479012Y323243D01*
X477270Y323472D01*
D02*
G37*
G36*
X474730Y298072D02*
X472987Y297843D01*
X470180Y296680D01*
X467770Y294830D01*
X465920Y292420D01*
X464757Y289613D01*
X464528Y287870D01*
X474730D01*
Y298072D01*
D02*
G37*
G36*
X477270Y298072D02*
Y287870D01*
X487472D01*
X487243Y289613D01*
X486080Y292420D01*
X484230Y294830D01*
X481820Y296680D01*
X479012Y297843D01*
X477270Y298072D01*
D02*
G37*
G36*
X474730Y285330D02*
X464528D01*
X464757Y283587D01*
X465920Y280780D01*
X467770Y278370D01*
X470180Y276520D01*
X472987Y275357D01*
X474730Y275128D01*
Y285330D01*
D02*
G37*
G36*
X476320Y236222D02*
Y226020D01*
X486522D01*
X486293Y227763D01*
X485130Y230570D01*
X483280Y232980D01*
X480870Y234830D01*
X478063Y235993D01*
X476320Y236222D01*
D02*
G37*
G36*
X487472Y285330D02*
X477270D01*
Y275128D01*
X479012Y275357D01*
X481820Y276520D01*
X484230Y278370D01*
X486080Y280780D01*
X487243Y283587D01*
X487472Y285330D01*
D02*
G37*
G36*
X474730Y323472D02*
X472987Y323243D01*
X470180Y322080D01*
X467770Y320230D01*
X465920Y317820D01*
X464757Y315013D01*
X464528Y313270D01*
X474730D01*
Y323472D01*
D02*
G37*
G36*
X486522Y223480D02*
X476320D01*
Y213278D01*
X478063Y213507D01*
X480870Y214670D01*
X483280Y216520D01*
X485130Y218930D01*
X486293Y221737D01*
X486522Y223480D01*
D02*
G37*
G36*
X474730Y310730D02*
X464528D01*
X464757Y308988D01*
X465920Y306180D01*
X467770Y303770D01*
X470180Y301920D01*
X472987Y300757D01*
X474730Y300528D01*
Y310730D01*
D02*
G37*
G36*
X487472D02*
X477270D01*
Y300528D01*
X479012Y300757D01*
X481820Y301920D01*
X484230Y303770D01*
X486080Y306180D01*
X487243Y308988D01*
X487472Y310730D01*
D02*
G37*
G36*
X473780Y236222D02*
X472037Y235993D01*
X469230Y234830D01*
X466820Y232980D01*
X464970Y230570D01*
X463807Y227763D01*
X463578Y226020D01*
X473780D01*
Y236222D01*
D02*
G37*
G36*
X344758Y494202D02*
X337496Y486940D01*
X344758Y479678D01*
X352020Y486940D01*
X344758Y494202D01*
D02*
G37*
G36*
X274780Y491590D02*
X264510D01*
Y481320D01*
X274780D01*
Y491590D01*
D02*
G37*
G36*
X223980Y491522D02*
X222237Y491293D01*
X219430Y490130D01*
X217020Y488280D01*
X215170Y485870D01*
X214007Y483063D01*
X213778Y481320D01*
X223980D01*
Y491522D01*
D02*
G37*
G36*
X262122Y478780D02*
X251920D01*
Y468578D01*
X253662Y468807D01*
X256470Y469970D01*
X258880Y471820D01*
X260730Y474230D01*
X261893Y477038D01*
X262122Y478780D01*
D02*
G37*
G36*
X335700Y485144D02*
X328438Y477882D01*
X335700Y470620D01*
X342962Y477882D01*
X335700Y485144D01*
D02*
G37*
G36*
X353816Y485144D02*
X346554Y477882D01*
X353816Y470620D01*
X361078Y477882D01*
X353816Y485144D01*
D02*
G37*
G36*
X249380Y491522D02*
X247637Y491293D01*
X244830Y490130D01*
X242419Y488280D01*
X240570Y485870D01*
X239407Y483063D01*
X239178Y481320D01*
X249380D01*
Y491522D01*
D02*
G37*
G36*
X251920Y491522D02*
Y481320D01*
X262122D01*
X261893Y483063D01*
X260730Y485870D01*
X258880Y488280D01*
X256470Y490130D01*
X253662Y491293D01*
X251920Y491522D01*
D02*
G37*
G36*
X226520D02*
Y481320D01*
X236722D01*
X236493Y483063D01*
X235330Y485870D01*
X233480Y488280D01*
X231070Y490130D01*
X228263Y491293D01*
X226520Y491522D01*
D02*
G37*
G36*
X287590Y491590D02*
X277320D01*
Y481320D01*
X287590D01*
Y491590D01*
D02*
G37*
%LPD*%
G36*
X363135Y471865D02*
X375500Y459500D01*
X359000Y443000D01*
X287000D01*
Y462000D01*
X344320Y462000D01*
X344758Y461562D01*
X345196Y462000D01*
X352000D01*
X361865Y471865D01*
X363135D01*
D02*
G37*
D10*
X820000Y582958D02*
D03*
Y553042D02*
D03*
D11*
X163000Y181000D02*
X181000Y199000D01*
X213000Y246000D02*
Y297000D01*
X192000Y225000D02*
X213000Y246000D01*
X136000Y364000D02*
X141000D01*
X150000Y373000D01*
X198750Y421750D02*
X279250D01*
X150000Y373000D02*
X198750Y421750D01*
X181000Y199000D02*
Y333789D01*
X253961Y406750D01*
X227000Y366000D02*
X258000Y397000D01*
X227000Y214000D02*
Y366000D01*
Y214000D02*
X261000Y180000D01*
X263292Y406750D02*
X273000Y397042D01*
X253961Y406750D02*
X263292D01*
X346000Y345000D02*
Y413000D01*
X279250Y421750D02*
X286000Y415000D01*
X458400Y337400D02*
X476000D01*
X441000Y320000D02*
X458400Y337400D01*
X439000Y320000D02*
X441000D01*
X446200Y261200D02*
X476000D01*
X415000Y230000D02*
X446200Y261200D01*
X336000Y230000D02*
X415000D01*
X475050Y157050D02*
Y173950D01*
X433999Y115999D02*
X475050Y157050D01*
X433999Y115999D02*
Y116000D01*
D12*
X361001Y427999D02*
X405000Y384000D01*
Y293000D02*
Y384000D01*
X401000Y289000D02*
X405000Y293000D01*
X331999Y427999D02*
X361001D01*
X380679Y422105D02*
Y441960D01*
Y422105D02*
X392824Y409960D01*
X393040D02*
X418000Y385000D01*
X392824Y409960D02*
X393040D01*
X418000Y250000D02*
Y385000D01*
X429000Y261000D02*
Y393639D01*
X398639Y424000D02*
X429000Y393639D01*
D13*
X322000Y413000D02*
X346000D01*
X308000Y427000D02*
X322000Y413000D01*
X297000Y427000D02*
X308000D01*
D14*
X820000Y582958D02*
X827558Y575400D01*
X850000D01*
D15*
X820000Y553042D02*
X821000Y552042D01*
Y531174D02*
Y552042D01*
X518960Y589960D02*
X523000Y594000D01*
X463000Y589960D02*
X518960D01*
X824875Y493642D02*
Y527299D01*
X821000Y531174D02*
X824875Y527299D01*
X665000Y405000D02*
X670000Y400000D01*
X731233D01*
X824875Y493642D01*
X453760Y599200D02*
X463000Y589960D01*
X400000Y599200D02*
X453760D01*
D16*
X640800Y527000D02*
X660200Y507600D01*
Y500000D02*
Y507600D01*
X505000Y558000D02*
X522000Y541000D01*
X617768D01*
X640800Y527000D01*
D17*
X475050Y199350D02*
D03*
Y224750D02*
D03*
X250650Y480050D02*
D03*
X225250D02*
D03*
X362719Y459921D02*
D03*
X380679Y441960D02*
D03*
X398639Y424000D02*
D03*
X476000Y286600D02*
D03*
Y312000D02*
D03*
Y337400D02*
D03*
X624600Y855000D02*
D03*
X599200D02*
D03*
X400000Y624600D02*
D03*
Y599200D02*
D03*
X850000Y575400D02*
D03*
Y600800D02*
D03*
X24950Y250650D02*
D03*
Y225250D02*
D03*
D18*
X475050Y173950D02*
D03*
X476000Y261200D02*
D03*
X400000Y650000D02*
D03*
X850000Y550000D02*
D03*
X24950Y276050D02*
D03*
D19*
X276050Y480050D02*
D03*
X650000Y855000D02*
D03*
D20*
X344758Y477882D02*
D03*
D21*
X807000Y516000D02*
D03*
X753967Y462967D02*
D03*
D22*
X657000Y428000D02*
D03*
X707000D02*
D03*
X550000D02*
D03*
X600000D02*
D03*
D23*
X660200Y500000D02*
D03*
X605600D02*
D03*
X551000D02*
D03*
X750000Y527000D02*
D03*
X695400D02*
D03*
X640800D02*
D03*
D24*
X435000Y738000D02*
D03*
X435000Y713000D02*
D03*
D25*
X436000Y534000D02*
D03*
Y571000D02*
D03*
D26*
X192000Y225000D02*
D03*
X136000Y364000D02*
D03*
X116000Y410000D02*
D03*
X91000Y411000D02*
D03*
X196000Y440000D02*
D03*
Y452000D02*
D03*
X459000Y368000D02*
D03*
X261000Y180000D02*
D03*
X163000Y181000D02*
D03*
X273000Y397042D02*
D03*
X258000Y397000D02*
D03*
X286000Y415000D02*
D03*
X331999Y427999D02*
D03*
X346000Y413000D02*
D03*
X297000Y427000D02*
D03*
X401000Y289000D02*
D03*
X292000Y458000D02*
D03*
Y448000D02*
D03*
X418000Y250000D02*
D03*
X439000Y320000D02*
D03*
X429000Y261000D02*
D03*
X336000Y230000D02*
D03*
X433999Y116000D02*
D03*
X213000Y297000D02*
D03*
D27*
X505000Y558000D02*
D03*
D28*
X521000Y579000D02*
D03*
X545000Y580000D02*
D03*
X508000Y615000D02*
D03*
X503000Y713000D02*
D03*
X497000Y642000D02*
D03*
X508000Y627000D02*
D03*
X474000Y601000D02*
D03*
Y610000D02*
D03*
X483000Y601000D02*
D03*
Y610000D02*
D03*
D29*
X523000Y594000D02*
D03*
M02*
