G04 Layer_Color=65535*
%FSLAX44Y44*%
%MOMM*%
G71*
G01*
G75*
%ADD12C,0.5000*%
%ADD48C,0.1524*%
%ADD49C,0.2540*%
%ADD50C,0.1500*%
D12*
X451000Y754000D02*
X611000D01*
Y514000D02*
Y754000D01*
X451000Y514000D02*
Y754000D01*
Y514000D02*
X611000D01*
X426000Y689000D02*
X451000D01*
X426000Y599000D02*
Y689000D01*
Y599000D02*
X451000D01*
D48*
X820762Y539100D02*
G03*
X820762Y539100I-762J0D01*
G01*
X822062Y486879D02*
G03*
X822062Y531062I-22091J22091D01*
G01*
D02*
G03*
X777879Y531062I-22091J-22091D01*
G01*
X738905Y492088D02*
G03*
X783088Y447905I22091J-22091D01*
G01*
X598245Y527000D02*
G03*
X598245Y527000I-1270J0D01*
G01*
X830287Y574323D02*
X830287Y561677D01*
X809713Y561678D02*
Y574323D01*
X783088Y447905D02*
X822062Y486879D01*
X738905Y492088D02*
X777879Y531062D01*
X615400Y514300D02*
X776690D01*
Y546050D01*
X615400D02*
X776690D01*
X615400Y514300D02*
Y546050D01*
D49*
X49000Y204000D02*
Y213000D01*
X55000D01*
X49000Y253000D02*
X49000Y253000D01*
X49000Y253000D02*
Y296000D01*
X49000Y253000D02*
X55000D01*
X49000Y296000D02*
Y353000D01*
X49000Y353000D02*
X49000Y353000D01*
X49000Y353000D02*
X149000D01*
Y253000D02*
Y353000D01*
X55000Y253000D02*
X149000D01*
X49000Y113000D02*
Y204000D01*
X55000Y213000D02*
X149000D01*
Y113000D02*
Y213000D01*
X49000Y113000D02*
X149000D01*
X371500Y115000D02*
Y215000D01*
X271500Y115000D02*
X371500D01*
X271500D02*
Y215000D01*
X371500D01*
X272000Y355000D02*
X372000D01*
X272000Y255000D02*
Y355000D01*
Y255000D02*
X372000D01*
Y355000D01*
X375000Y525000D02*
X525000Y375000D01*
X350000Y500000D02*
X500000Y350000D01*
X632000Y378000D02*
Y478000D01*
X732000D01*
X632000Y378000D02*
X732000D01*
Y478000D01*
X525000Y378000D02*
Y478000D01*
X625000D01*
X525000Y378000D02*
X625000D01*
Y478000D01*
X585000Y870000D02*
X665000D01*
X585000Y840000D02*
Y870000D01*
Y840000D02*
X665000D01*
Y870000D01*
X385000Y585000D02*
Y665000D01*
Y585000D02*
X415000Y585000D01*
X415000Y665000D01*
X385000D02*
X415000D01*
X865000Y535000D02*
Y615000D01*
X835000D02*
X865000D01*
X835000Y535000D02*
Y615000D01*
Y535000D02*
X865000D01*
X454250Y171000D02*
X439015D01*
Y178617D01*
X441554Y181157D01*
X446632D01*
X449172Y178617D01*
Y171000D01*
X439015Y186235D02*
X454250D01*
Y196392D01*
X441554Y211627D02*
X439015Y209088D01*
Y204009D01*
X441554Y201470D01*
X444093D01*
X446632Y204009D01*
Y209088D01*
X449172Y211627D01*
X451711D01*
X454250Y209088D01*
Y204009D01*
X451711Y201470D01*
X454250Y216705D02*
Y221784D01*
Y219244D01*
X439015D01*
X441554Y216705D01*
X717483Y395590D02*
X722561D01*
X725100Y398129D01*
Y408286D01*
X722561Y410825D01*
X717483D01*
X714944Y408286D01*
Y398129D01*
X717483Y395590D01*
X709865D02*
Y408286D01*
X707326Y410825D01*
X702248D01*
X699709Y408286D01*
Y395590D01*
X694630D02*
X684474D01*
X689552D01*
Y410825D01*
X669239D02*
X679395D01*
X669239Y400668D01*
Y398129D01*
X671778Y395590D01*
X676856D01*
X679395Y398129D01*
X654004Y410825D02*
X664160D01*
X654004Y400668D01*
Y398129D01*
X656543Y395590D01*
X661621D01*
X664160Y398129D01*
X648925D02*
X646386Y395590D01*
X641308D01*
X638768Y398129D01*
Y408286D01*
X641308Y410825D01*
X646386D01*
X648925Y408286D01*
Y398129D01*
X610000Y394765D02*
X604922D01*
X607461D01*
Y410000D01*
X610000D01*
X604922D01*
X597304D02*
Y394765D01*
X587147Y410000D01*
Y394765D01*
X571912Y410000D02*
X582069D01*
X571912Y399843D01*
Y397304D01*
X574451Y394765D01*
X579530D01*
X582069Y397304D01*
X556677Y410000D02*
X566834D01*
X556677Y399843D01*
Y397304D01*
X559216Y394765D01*
X564295D01*
X566834Y397304D01*
X551599D02*
X549060Y394765D01*
X543981D01*
X541442Y397304D01*
Y407461D01*
X543981Y410000D01*
X549060D01*
X551599Y407461D01*
Y397304D01*
X812000Y621000D02*
X827235D01*
Y613382D01*
X824696Y610843D01*
X819617D01*
X817078Y613382D01*
Y621000D01*
Y615922D02*
X812000Y610843D01*
X827235Y595608D02*
Y605765D01*
X819617D01*
X822157Y600687D01*
Y598147D01*
X819617Y595608D01*
X814539D01*
X812000Y598147D01*
Y603226D01*
X814539Y605765D01*
X758157Y555539D02*
Y565696D01*
X755618Y568235D01*
X750539D01*
X748000Y565696D01*
Y555539D01*
X750539Y553000D01*
X755618D01*
X753078Y558078D02*
X758157Y553000D01*
X755618D02*
X758157Y555539D01*
X763235Y565696D02*
X765774Y568235D01*
X770853D01*
X773392Y565696D01*
Y563157D01*
X770853Y560617D01*
X768313D01*
X770853D01*
X773392Y558078D01*
Y555539D01*
X770853Y553000D01*
X765774D01*
X763235Y555539D01*
X27000Y299500D02*
X11765D01*
Y307118D01*
X14304Y309657D01*
X19382D01*
X21922Y307118D01*
Y299500D01*
X11765Y314735D02*
X27000D01*
Y324892D01*
X14304Y340127D02*
X11765Y337588D01*
Y332509D01*
X14304Y329970D01*
X16843D01*
X19382Y332509D01*
Y337588D01*
X21922Y340127D01*
X24461D01*
X27000Y337588D01*
Y332509D01*
X24461Y329970D01*
X14304Y345205D02*
X11765Y347744D01*
Y352823D01*
X14304Y355362D01*
X16843D01*
X19382Y352823D01*
Y350284D01*
Y352823D01*
X21922Y355362D01*
X24461D01*
X27000Y352823D01*
Y347744D01*
X24461Y345205D01*
X149000Y477000D02*
Y492235D01*
X156617D01*
X159157Y489696D01*
Y484618D01*
X156617Y482078D01*
X149000D01*
X164235Y492235D02*
Y477000D01*
X174392D01*
X189627Y489696D02*
X187088Y492235D01*
X182009D01*
X179470Y489696D01*
Y487157D01*
X182009Y484618D01*
X187088D01*
X189627Y482078D01*
Y479539D01*
X187088Y477000D01*
X182009D01*
X179470Y479539D01*
X204862Y477000D02*
X194705D01*
X204862Y487157D01*
Y489696D01*
X202323Y492235D01*
X197244D01*
X194705Y489696D01*
X387000Y576600D02*
X402235D01*
Y568983D01*
X399696Y566443D01*
X394618D01*
X392078Y568983D01*
Y576600D01*
X402235Y561365D02*
X387000D01*
Y553747D01*
X389539Y551208D01*
X392078D01*
X394618Y553747D01*
Y561365D01*
Y553747D01*
X397157Y551208D01*
X399696D01*
X402235Y553747D01*
Y561365D01*
X399696Y535973D02*
X402235Y538512D01*
Y543591D01*
X399696Y546130D01*
X397157D01*
X394618Y543591D01*
Y538512D01*
X392078Y535973D01*
X389539D01*
X387000Y538512D01*
Y543591D01*
X389539Y546130D01*
X399696Y530895D02*
X402235Y528356D01*
Y523277D01*
X399696Y520738D01*
X397157D01*
X394618Y523277D01*
Y525816D01*
Y523277D01*
X392078Y520738D01*
X389539D01*
X387000Y523277D01*
Y528356D01*
X389539Y530895D01*
X671200Y850000D02*
Y865235D01*
X678818D01*
X681357Y862696D01*
Y857617D01*
X678818Y855078D01*
X671200D01*
X686435Y865235D02*
Y850000D01*
X694053D01*
X696592Y852539D01*
Y855078D01*
X694053Y857617D01*
X686435D01*
X694053D01*
X696592Y860157D01*
Y862696D01*
X694053Y865235D01*
X686435D01*
X711827Y862696D02*
X709288Y865235D01*
X704209D01*
X701670Y862696D01*
Y860157D01*
X704209Y857617D01*
X709288D01*
X711827Y855078D01*
Y852539D01*
X709288Y850000D01*
X704209D01*
X701670Y852539D01*
X727062Y850000D02*
X716905D01*
X727062Y860157D01*
Y862696D01*
X724523Y865235D01*
X719444D01*
X716905Y862696D01*
X857000Y622000D02*
X841765D01*
Y629618D01*
X844304Y632157D01*
X849382D01*
X851922Y629618D01*
Y622000D01*
X841765Y637235D02*
X857000D01*
Y644853D01*
X854461Y647392D01*
X851922D01*
X849382Y644853D01*
Y637235D01*
Y644853D01*
X846843Y647392D01*
X844304D01*
X841765Y644853D01*
Y637235D01*
X844304Y662627D02*
X841765Y660088D01*
Y655009D01*
X844304Y652470D01*
X846843D01*
X849382Y655009D01*
Y660088D01*
X851922Y662627D01*
X854461D01*
X857000Y660088D01*
Y655009D01*
X854461Y652470D01*
X857000Y667705D02*
Y672784D01*
Y670244D01*
X841765D01*
X844304Y667705D01*
X783171Y481126D02*
X779581D01*
X775990Y477535D01*
Y473944D01*
X783171Y466762D01*
X786762D01*
X790353Y470353D01*
Y473944D01*
X802922Y482922D02*
X795740Y475740D01*
Y490104D01*
X793944Y491899D01*
X790353D01*
X786762Y488308D01*
Y484717D01*
X452000Y767000D02*
Y782235D01*
X459618D01*
X462157Y779696D01*
Y774617D01*
X459618Y772078D01*
X452000D01*
X477392Y779696D02*
X474853Y782235D01*
X469774D01*
X467235Y779696D01*
Y777157D01*
X469774Y774617D01*
X474853D01*
X477392Y772078D01*
Y769539D01*
X474853Y767000D01*
X469774D01*
X467235Y769539D01*
X482470Y767000D02*
X487548D01*
X485009D01*
Y782235D01*
X482470Y779696D01*
X476235Y539000D02*
X461000D01*
Y528843D01*
Y574000D02*
X476235D01*
X461000Y563843D01*
X476235D01*
X468618Y714000D02*
Y703843D01*
X473696Y708922D02*
X463539D01*
X461000Y698765D02*
Y693687D01*
Y696226D01*
X476235D01*
X473696Y698765D01*
X461000Y675912D02*
Y686069D01*
X471157Y675912D01*
X473696D01*
X476235Y678452D01*
Y683530D01*
X473696Y686069D01*
X471157Y741696D02*
X468618Y744235D01*
X463539D01*
X461000Y741696D01*
Y731539D01*
X463539Y729000D01*
X468618D01*
X471157Y731539D01*
Y736618D01*
X466078D01*
X476235Y729000D02*
Y744235D01*
X486392Y729000D01*
Y744235D01*
X491470D02*
Y729000D01*
X499088D01*
X501627Y731539D01*
Y741696D01*
X499088Y744235D01*
X491470D01*
X313500Y162868D02*
X323657D01*
X91750Y159618D02*
X101907D01*
X96828Y164696D02*
Y154539D01*
X68368Y309735D02*
X63289D01*
X60750Y307196D01*
Y297039D01*
X63289Y294500D01*
X68368D01*
X70907Y297039D01*
Y307196D01*
X68368Y309735D01*
X75985Y294500D02*
Y304657D01*
X83603D01*
X86142Y302118D01*
Y294500D01*
X91220D02*
X101377Y304657D01*
X114073Y309735D02*
X108994D01*
X106455Y307196D01*
Y297039D01*
X108994Y294500D01*
X114073D01*
X116612Y297039D01*
Y307196D01*
X114073Y309735D01*
X124229Y294500D02*
Y307196D01*
Y302118D01*
X121690D01*
X126769D01*
X124229D01*
Y307196D01*
X126769Y309735D01*
X136925Y294500D02*
Y307196D01*
Y302118D01*
X134386D01*
X139465D01*
X136925D01*
Y307196D01*
X139465Y309735D01*
X294000Y296000D02*
Y311235D01*
X299078Y306157D01*
X304157Y311235D01*
Y296000D01*
X311774D02*
X316853D01*
X319392Y298539D01*
Y303617D01*
X316853Y306157D01*
X311774D01*
X309235Y303617D01*
Y298539D01*
X311774Y296000D01*
X334627Y311235D02*
Y296000D01*
X327009D01*
X324470Y298539D01*
Y303617D01*
X327009Y306157D01*
X334627D01*
X347323Y296000D02*
X342244D01*
X339705Y298539D01*
Y303617D01*
X342244Y306157D01*
X347323D01*
X349862Y303617D01*
Y301078D01*
X339705D01*
D50*
X460050Y159750D02*
X490050D01*
Y239750D01*
X460050Y159750D02*
Y239750D01*
X490050D01*
X290250Y465050D02*
Y495050D01*
X210250D02*
X290250D01*
X210250Y465050D02*
X290250D01*
X210250D02*
Y495050D01*
X9950Y290250D02*
X39950D01*
X9950Y210250D02*
Y290250D01*
X39950Y210250D02*
Y290250D01*
X9950Y210250D02*
X39950D01*
M02*
