G04 Layer_Color=8388736*
%FSLAX44Y44*%
%MOMM*%
G71*
G01*
G75*
%ADD10R,1.8034X1.1120*%
%ADD21C,2.1590*%
%ADD23C,2.0000*%
%ADD24C,1.1684*%
%ADD50C,0.2540*%
%ADD52C,0.1590*%
D10*
X820000Y553042D02*
D03*
Y582958D02*
D03*
D21*
X640800Y527000D02*
D03*
X695400D02*
D03*
X605600Y500000D02*
D03*
X660200D02*
D03*
D23*
X600000Y428000D02*
D03*
X550000D02*
D03*
D24*
X753967Y462967D02*
D03*
X807000Y516000D02*
D03*
D50*
X768000Y463000D02*
Y528000D01*
X762500Y457500D02*
X768000Y463000D01*
X749625Y452125D02*
Y452125D01*
X722500Y425000D02*
X749625Y452125D01*
X722500Y490000D02*
Y535000D01*
X727500Y485000D02*
Y535000D01*
X732500Y480000D02*
Y535000D01*
X737500Y522500D02*
Y535000D01*
Y477500D02*
Y522500D01*
X742500Y475000D02*
Y515000D01*
X717500Y435000D02*
X745000Y462500D01*
X745000D01*
X747500Y472500D02*
Y515000D01*
X752500Y471500D02*
Y515000D01*
X757500Y472750D02*
Y517500D01*
X787500Y485000D02*
Y532500D01*
X782500Y482500D02*
Y485000D01*
Y532500D01*
X777500Y475000D02*
Y532500D01*
X772500Y470000D02*
Y532500D01*
X700000Y467500D02*
X722500Y490000D01*
X700000Y457500D02*
X727500Y485000D01*
X700000Y447500D02*
X732500Y480000D01*
X700000Y440000D02*
X737500Y477500D01*
X710000Y442500D02*
X742500Y475000D01*
X717500Y420000D02*
X725000D01*
X762500Y457500D01*
X720000Y430000D02*
X746000Y456000D01*
X715000Y440000D02*
X747500Y472500D01*
X670000Y410000D02*
Y425000D01*
X660000Y400000D02*
X670000Y410000D01*
X657500Y400000D02*
X660000D01*
X597500D02*
X657500D01*
X587500Y410000D02*
X597500Y400000D01*
X587500Y410000D02*
Y422500D01*
X665000Y412500D02*
Y417500D01*
X657500Y405000D02*
X665000Y412500D01*
X600000Y405000D02*
X657500D01*
X592500Y412500D02*
X600000Y405000D01*
X592500Y412500D02*
Y417500D01*
X655000Y410000D02*
X660000Y415000D01*
X602500Y410000D02*
X655000D01*
X597500Y415000D02*
X602500Y410000D01*
X597500Y415000D02*
Y415000D01*
X605000D02*
X652500D01*
X605000Y440000D02*
X607500D01*
X650000D01*
X614000Y435000D02*
X645000D01*
X640000Y425000D02*
X642500D01*
X640000Y430000D02*
X642500D01*
X610000Y420000D02*
X645000D01*
X615000Y425000D02*
X640000D01*
X615000Y430000D02*
X640000D01*
D52*
X750000Y527000D02*
D03*
X551000Y500000D02*
D03*
M02*
