G04 Layer_Physical_Order=2*
G04 Layer_Color=16711680*
%FSLAX44Y44*%
%MOMM*%
G71*
G01*
G75*
%ADD10R,1.8034X1.1120*%
%ADD11C,0.5000*%
%ADD12C,0.4000*%
%ADD13C,0.7000*%
%ADD15C,1.0000*%
%ADD17R,2.0000X3.0000*%
%ADD18R,2.0000X2.0000*%
%ADD19C,1.8000*%
%ADD20R,1.8000X1.8000*%
%ADD21C,2.1590*%
%ADD22R,1.8000X1.8000*%
%ADD23C,2.0000*%
%ADD24C,1.1684*%
%ADD25P,2.5456X4X360.0*%
%ADD26P,2.5456X4X270.0*%
%ADD27C,0.9000*%
%ADD28C,0.7000*%
%ADD29C,1.2700*%
%ADD30C,1.5000*%
%ADD31P,1.8385X4X90.0*%
%ADD32R,1.3000X1.3000*%
%ADD33R,1.1120X1.8034*%
%ADD34R,0.4032X0.3556*%
G04:AMPARAMS|DCode=35|XSize=0.568mm|YSize=1.2588mm|CornerRadius=0mm|HoleSize=0mm|Usage=FLASHONLY|Rotation=315.000|XOffset=0mm|YOffset=0mm|HoleType=Round|Shape=Rectangle|*
%AMROTATEDRECTD35*
4,1,4,-0.6459,-0.2442,0.2442,0.6459,0.6459,0.2442,-0.2442,-0.6459,-0.6459,-0.2442,0.0*
%
%ADD35ROTATEDRECTD35*%

%ADD36R,0.5426X1.1572*%
%ADD37R,1.0128X3.2004*%
G04:AMPARAMS|DCode=38|XSize=0.5588mm|YSize=0.9144mm|CornerRadius=0mm|HoleSize=0mm|Usage=FLASHONLY|Rotation=135.000|XOffset=0mm|YOffset=0mm|HoleType=Round|Shape=Rectangle|*
%AMROTATEDRECTD38*
4,1,4,0.5209,0.1257,-0.1257,-0.5209,-0.5209,-0.1257,0.1257,0.5209,0.5209,0.1257,0.0*
%
%ADD38ROTATEDRECTD38*%

%ADD39R,1.3938X0.4826*%
%ADD40R,1.3938X0.5588*%
%ADD41R,0.7000X1.0000*%
G04:AMPARAMS|DCode=42|XSize=1.112mm|YSize=1.8034mm|CornerRadius=0mm|HoleSize=0mm|Usage=FLASHONLY|Rotation=45.000|XOffset=0mm|YOffset=0mm|HoleType=Round|Shape=Rectangle|*
%AMROTATEDRECTD42*
4,1,4,0.2445,-1.0308,-1.0308,0.2445,-0.2445,1.0308,1.0308,-0.2445,0.2445,-1.0308,0.0*
%
%ADD42ROTATEDRECTD42*%

%ADD43R,0.4564X1.2080*%
%ADD44R,1.5250X0.4350*%
%ADD45R,1.3000X1.3000*%
%ADD46R,1.4000X0.6000*%
%ADD47C,1.4000*%
%ADD48C,1.2000*%
G36*
X871115Y723391D02*
Y526609D01*
X813506Y469000D01*
X808003D01*
X807517Y470173D01*
X813476Y476132D01*
X811395Y478214D01*
X856091Y522909D01*
X857460Y524693D01*
X858320Y526771D01*
X858614Y529000D01*
Y538460D01*
X861540D01*
Y561540D01*
X838460D01*
Y538460D01*
X841386D01*
Y532568D01*
X799214Y490395D01*
X797132Y492477D01*
X785677Y481021D01*
X791897Y474802D01*
X792117Y474270D01*
X793486Y472486D01*
X795270Y471117D01*
X795652Y470959D01*
X796103Y470243D01*
X795491Y469000D01*
X784609D01*
X775979Y477630D01*
X767348Y469000D01*
X765368D01*
X765184Y469443D01*
X763126Y472126D01*
X760443Y474184D01*
X757319Y475478D01*
X753967Y475920D01*
X750614Y475478D01*
X747490Y474184D01*
X744808Y472126D01*
X742749Y469443D01*
X742566Y469000D01*
X736652D01*
X736165Y470173D01*
X774420Y508428D01*
X803377D01*
X804812Y507834D01*
X807000Y507546D01*
X809188Y507834D01*
X811227Y508678D01*
X812978Y510022D01*
X814322Y511773D01*
X815166Y513812D01*
X815454Y516000D01*
X815166Y518188D01*
X814322Y520227D01*
X812978Y521978D01*
X811227Y523322D01*
X809188Y524166D01*
X807000Y524454D01*
X804812Y524166D01*
X803537Y523638D01*
X771270D01*
X769302Y523379D01*
X768752Y523151D01*
X768509Y523223D01*
X767700Y523853D01*
X767590Y524045D01*
X767881Y527000D01*
X767538Y530488D01*
X766520Y533843D01*
X764868Y536934D01*
X762644Y539644D01*
X759934Y541868D01*
X756843Y543520D01*
X753488Y544538D01*
X750000Y544881D01*
X746512Y544538D01*
X743157Y543520D01*
X740066Y541868D01*
X737356Y539644D01*
X735132Y536934D01*
X733480Y533843D01*
X732462Y530488D01*
X732119Y527000D01*
X732462Y523512D01*
X733480Y520157D01*
X735132Y517066D01*
X737356Y514356D01*
X740066Y512132D01*
X743157Y510480D01*
X746512Y509462D01*
X750000Y509119D01*
X752002Y509316D01*
X752579Y508097D01*
X713482Y469000D01*
X617544D01*
Y479542D01*
X602336D01*
Y469000D01*
X580073D01*
Y510000D01*
X579783Y512940D01*
X578925Y515768D01*
X577532Y518374D01*
X575658Y520658D01*
X573374Y522532D01*
X570768Y523925D01*
X567940Y524783D01*
X565000Y525073D01*
X516000D01*
X513060Y524783D01*
X510232Y523925D01*
X507626Y522532D01*
X505342Y520658D01*
X503468Y518374D01*
X502517Y516595D01*
X500954Y516362D01*
X470658Y546658D01*
X468374Y548532D01*
X465768Y549925D01*
X462940Y550783D01*
X460000Y551073D01*
X453000D01*
Y593000D01*
X419000D01*
Y549801D01*
X416626Y548532D01*
X414342Y546658D01*
X412468Y544374D01*
X411075Y541768D01*
X410217Y538941D01*
X409927Y536000D01*
Y506732D01*
X408754Y506246D01*
X378885Y536115D01*
Y723391D01*
X526609Y871115D01*
X723391D01*
X871115Y723391D01*
D02*
G37*
G36*
X496115Y348385D02*
Y210000D01*
X479494D01*
X478063Y210593D01*
X475050Y210989D01*
X472037Y210593D01*
X470606Y210000D01*
X455000D01*
X367000Y122000D01*
X279000Y122000D01*
X266587Y109587D01*
X265845Y109440D01*
X264343Y108436D01*
X264343Y108436D01*
X245907Y90000D01*
X189000D01*
X127247Y28247D01*
X121497Y33997D01*
X3885Y151609D01*
Y348391D01*
X151609Y496115D01*
X348385D01*
X496115Y348385D01*
D02*
G37*
G36*
X513900Y482100D02*
X514730Y481270D01*
X516000Y480000D01*
X516000Y481000D01*
X516000Y481796D01*
Y481796D01*
Y481796D01*
X516000D01*
Y510000D01*
X565000D01*
Y417000D01*
Y415000D01*
X500000D01*
X425000Y490000D01*
Y536000D01*
X460000D01*
X513900Y482100D01*
D02*
G37*
%LPC*%
G36*
X505058Y638557D02*
X500458D01*
Y630500D01*
X505058D01*
Y638557D01*
D02*
G37*
G36*
X595700Y866041D02*
X593380Y865080D01*
X590970Y863230D01*
X589120Y860820D01*
X588159Y858500D01*
X595700D01*
Y866041D01*
D02*
G37*
G36*
X447540Y725540D02*
X422460D01*
Y700460D01*
X447540D01*
Y703378D01*
X451420D01*
Y685735D01*
X451748Y683245D01*
X452146Y682283D01*
X452709Y680924D01*
X453568Y679804D01*
Y678747D01*
X454422D01*
X456273Y676896D01*
X458266Y675367D01*
X460107Y674604D01*
X459855Y673334D01*
X453568D01*
Y671500D01*
X463077D01*
Y668000D01*
X466577D01*
Y662666D01*
X469796D01*
X470046Y662616D01*
X472469D01*
X477800Y656848D01*
X477842Y656818D01*
X477871Y656775D01*
X478249Y656522D01*
X478618Y656254D01*
X478668Y656242D01*
X478711Y656213D01*
X479157Y656125D01*
X479600Y656018D01*
X479651Y656026D01*
X479702Y656016D01*
X504026D01*
X505017Y656213D01*
X505857Y656775D01*
X506419Y657615D01*
X506616Y658606D01*
Y677394D01*
X506419Y678385D01*
X505857Y679225D01*
X505017Y679787D01*
X504026Y679984D01*
X479702D01*
X479677Y679979D01*
X479652Y679983D01*
X479183Y679881D01*
X478711Y679787D01*
X478690Y679772D01*
X478665Y679767D01*
X478271Y679492D01*
X477871Y679225D01*
X477857Y679204D01*
X477836Y679190D01*
X472250Y673384D01*
X470046D01*
X469796Y673334D01*
X466299D01*
X466046Y674604D01*
X467888Y675367D01*
X469881Y676896D01*
X471301Y678747D01*
X472586D01*
Y682839D01*
X472699Y683700D01*
X472586Y684561D01*
Y688653D01*
X471301D01*
X470664Y689483D01*
Y713000D01*
X470336Y715490D01*
X469375Y717811D01*
X469142Y718115D01*
Y724557D01*
X452942D01*
Y722622D01*
X447540D01*
Y725540D01*
D02*
G37*
G36*
X391281Y662348D02*
X390920Y662317D01*
X390556Y662327D01*
X390420Y662275D01*
X390275Y662263D01*
X389952Y662096D01*
X389613Y661966D01*
X389507Y661866D01*
X389377Y661798D01*
X389053Y661540D01*
X388460D01*
Y661067D01*
X388384Y661006D01*
X388290Y660894D01*
X388169Y660813D01*
X387967Y660511D01*
X387733Y660234D01*
X387688Y660095D01*
X387607Y659973D01*
X387537Y659617D01*
X387426Y659271D01*
X387439Y659125D01*
X387410Y658982D01*
Y615000D01*
X387607Y614009D01*
X388169Y613169D01*
X389009Y612607D01*
X390000Y612410D01*
X467026D01*
X468069Y611140D01*
X467842Y610000D01*
X468310Y607643D01*
X469645Y605645D01*
Y605355D01*
X468310Y603357D01*
X467842Y601000D01*
X468310Y598643D01*
X469645Y596645D01*
X471643Y595310D01*
X474000Y594842D01*
X476357Y595310D01*
X478355Y596645D01*
X478645D01*
X480643Y595310D01*
X483000Y594842D01*
X485357Y595310D01*
X487137Y596500D01*
X495960D01*
Y596460D01*
X498500D01*
Y596499D01*
X498501D01*
Y604000D01*
Y611501D01*
X498500D01*
Y611540D01*
X495960D01*
Y611500D01*
X488860D01*
X488689Y612357D01*
X488166Y613140D01*
X488845Y614410D01*
X488858D01*
X489849Y614607D01*
X490689Y615169D01*
X490872Y615443D01*
X493458D01*
Y627000D01*
Y638557D01*
X488858D01*
Y637341D01*
X488626Y637087D01*
X487588Y636473D01*
X487000Y636590D01*
X475142D01*
Y638557D01*
X474590D01*
Y655000D01*
X474393Y655991D01*
X473831Y656831D01*
X472991Y657393D01*
X472000Y657590D01*
X456000D01*
X455009Y657393D01*
X454800Y657253D01*
X453568D01*
Y655793D01*
X453410Y655000D01*
Y649262D01*
X452418Y648470D01*
X411540Y657760D01*
Y661540D01*
X394910D01*
X391567Y662300D01*
X391421Y662304D01*
X391281Y662348D01*
D02*
G37*
G36*
X646500Y866540D02*
X638460D01*
Y858500D01*
X646500D01*
Y866540D01*
D02*
G37*
G36*
X505058Y623500D02*
X500458D01*
Y615443D01*
X505058D01*
Y623500D01*
D02*
G37*
G36*
X400000Y610840D02*
X396987Y610443D01*
X394180Y609280D01*
X391770Y607430D01*
X389920Y605020D01*
X388757Y602212D01*
X388360Y599200D01*
X388757Y596188D01*
X389920Y593380D01*
X391770Y590970D01*
X394180Y589120D01*
X396987Y587957D01*
X400000Y587560D01*
X403013Y587957D01*
X405820Y589120D01*
X408230Y590970D01*
X410080Y593380D01*
X411243Y596188D01*
X411640Y599200D01*
X411243Y602212D01*
X410080Y605020D01*
X408230Y607430D01*
X405820Y609280D01*
X403013Y610443D01*
X400000Y610840D01*
D02*
G37*
G36*
X850000Y587039D02*
X846987Y586643D01*
X844180Y585480D01*
X841770Y583630D01*
X839920Y581220D01*
X838757Y578413D01*
X838360Y575400D01*
X838757Y572388D01*
X839920Y569580D01*
X841770Y567170D01*
X844180Y565320D01*
X846987Y564157D01*
X850000Y563760D01*
X853012Y564157D01*
X855820Y565320D01*
X858230Y567170D01*
X860080Y569580D01*
X861243Y572388D01*
X861639Y575400D01*
X861243Y578413D01*
X860080Y581220D01*
X858230Y583630D01*
X855820Y585480D01*
X853012Y586643D01*
X850000Y587039D01*
D02*
G37*
G36*
X661540Y866540D02*
X653500D01*
Y858500D01*
X661540D01*
Y866540D01*
D02*
G37*
G36*
X621100Y866041D02*
X618780Y865080D01*
X616370Y863230D01*
X614520Y860820D01*
X613559Y858500D01*
X621100D01*
Y866041D01*
D02*
G37*
G36*
X513000Y611605D02*
X512202Y611500D01*
X508040D01*
Y611540D01*
X505500D01*
Y611501D01*
X505499D01*
Y604798D01*
X505395Y604000D01*
X505499Y603202D01*
Y596499D01*
X505500D01*
Y596460D01*
X508040D01*
Y596500D01*
X509745D01*
X514305Y591940D01*
X514339Y591679D01*
X515235Y589517D01*
X516660Y587660D01*
X518033Y586606D01*
X517336Y585540D01*
X516335Y585540D01*
X515000D01*
Y581500D01*
X517540D01*
Y584307D01*
X517540Y585383D01*
X518517Y586235D01*
X519110Y585989D01*
X520679Y585339D01*
X523000Y585033D01*
X525321Y585339D01*
X527483Y586235D01*
X529340Y587660D01*
X530765Y589517D01*
X531661Y591679D01*
X531967Y594000D01*
X531661Y596321D01*
X530765Y598483D01*
X529340Y600340D01*
X527483Y601765D01*
X525321Y602661D01*
X525060Y602696D01*
X518378Y609378D01*
X517500Y610051D01*
Y611500D01*
X513798D01*
X513000Y611605D01*
D02*
G37*
G36*
X595700Y851500D02*
X588159D01*
X589120Y849180D01*
X590970Y846770D01*
X593380Y844920D01*
X595700Y843959D01*
Y851500D01*
D02*
G37*
G36*
X661540D02*
X653500D01*
Y843460D01*
X661540D01*
Y851500D01*
D02*
G37*
G36*
X621100D02*
X613559D01*
X614520Y849180D01*
X616370Y846770D01*
X618780Y844920D01*
X621100Y843959D01*
Y851500D01*
D02*
G37*
G36*
X635641D02*
X628100D01*
Y843959D01*
X630420Y844920D01*
X632830Y846770D01*
X634680Y849180D01*
X635641Y851500D01*
D02*
G37*
G36*
X610241D02*
X602700D01*
Y843959D01*
X605020Y844920D01*
X607430Y846770D01*
X609280Y849180D01*
X610241Y851500D01*
D02*
G37*
G36*
X646500D02*
X638460D01*
Y843460D01*
X646500D01*
Y851500D01*
D02*
G37*
G36*
X487458Y709500D02*
X482858D01*
Y701443D01*
X487458D01*
Y709500D01*
D02*
G37*
G36*
X459577Y664500D02*
X453568D01*
Y662666D01*
X459577D01*
Y664500D01*
D02*
G37*
G36*
X499058Y709500D02*
X494458D01*
Y701443D01*
X499058D01*
Y709500D01*
D02*
G37*
G36*
Y724557D02*
X494458D01*
Y716500D01*
X499058D01*
Y724557D01*
D02*
G37*
G36*
X487458D02*
X482858D01*
Y716500D01*
X487458D01*
Y724557D01*
D02*
G37*
G36*
X492500Y590104D02*
X491713Y590000D01*
X482000D01*
Y584008D01*
X480809Y581133D01*
X480396Y578000D01*
Y570500D01*
X480809Y567367D01*
X482018Y564448D01*
X483941Y561941D01*
X490752Y555130D01*
X490873Y554215D01*
X492334Y550687D01*
X494658Y547659D01*
X497687Y545334D01*
X501214Y543873D01*
X505000Y543375D01*
X508785Y543873D01*
X512312Y545334D01*
X515341Y547659D01*
X517665Y550687D01*
X519127Y554215D01*
X519625Y558000D01*
X519127Y561785D01*
X517665Y565313D01*
X515341Y568341D01*
X514148Y569257D01*
X514556Y570460D01*
X517540D01*
Y574500D01*
X511500D01*
Y578000D01*
X508000D01*
Y585540D01*
X505460D01*
Y581224D01*
X504191Y581133D01*
X503000Y584008D01*
Y590000D01*
X493287D01*
X492500Y590104D01*
D02*
G37*
G36*
X628100Y866041D02*
Y858500D01*
X635641D01*
X634680Y860820D01*
X632830Y863230D01*
X630420Y865080D01*
X628100Y866041D01*
D02*
G37*
G36*
X640800Y544881D02*
X637312Y544538D01*
X633957Y543520D01*
X630866Y541868D01*
X628156Y539644D01*
X625932Y536934D01*
X624280Y533843D01*
X623262Y530488D01*
X622919Y527000D01*
X623262Y523512D01*
X624280Y520157D01*
X625932Y517066D01*
X628156Y514356D01*
X630866Y512132D01*
X633957Y510480D01*
X637312Y509462D01*
X640800Y509119D01*
X643604Y509395D01*
X644404Y508198D01*
X643680Y506843D01*
X642663Y503488D01*
X642319Y500000D01*
X642663Y496511D01*
X643680Y493157D01*
X645332Y490066D01*
X647556Y487356D01*
X650266Y485132D01*
X653357Y483480D01*
X656712Y482462D01*
X660200Y482119D01*
X663688Y482462D01*
X667043Y483480D01*
X670134Y485132D01*
X672844Y487356D01*
X675068Y490066D01*
X676720Y493157D01*
X677738Y496511D01*
X678081Y500000D01*
X677738Y503488D01*
X676720Y506843D01*
X675068Y509934D01*
X672844Y512644D01*
X670134Y514868D01*
X667043Y516520D01*
X663688Y517537D01*
X660200Y517881D01*
X657396Y517605D01*
X656596Y518802D01*
X657320Y520157D01*
X658337Y523512D01*
X658681Y527000D01*
X658337Y530488D01*
X657320Y533843D01*
X655668Y536934D01*
X653444Y539644D01*
X650734Y541868D01*
X647643Y543520D01*
X644288Y544538D01*
X640800Y544881D01*
D02*
G37*
G36*
X602700Y866041D02*
Y858500D01*
X610241D01*
X609280Y860820D01*
X607430Y863230D01*
X605020Y865080D01*
X602700Y866041D01*
D02*
G37*
%LPD*%
G36*
X504026Y658606D02*
X479702D01*
X473602Y665206D01*
X470046D01*
Y670794D01*
X473352D01*
X479702Y677394D01*
X504026D01*
Y658606D01*
D02*
G37*
G36*
X484000Y614000D02*
X485775Y612225D01*
X485867Y612053D01*
X486013Y611702D01*
X486250Y611346D01*
X486320Y610995D01*
X486418Y610759D01*
X486467Y610509D01*
X486609Y610297D01*
X486707Y610061D01*
X486887Y609881D01*
X487029Y609669D01*
X487241Y609527D01*
X487421Y609347D01*
X487657Y609249D01*
X487869Y609107D01*
X488119Y609058D01*
X488355Y608960D01*
X488610D01*
X488860Y608910D01*
X495911D01*
Y599090D01*
X487137D01*
X486887Y599040D01*
X486632D01*
X486396Y598942D01*
X486146Y598893D01*
X485934Y598751D01*
X485698Y598653D01*
X484346Y597750D01*
X483000Y597482D01*
X481654Y597750D01*
X480084Y598799D01*
X479849Y598896D01*
X479636Y599038D01*
X479386Y599088D01*
X479151Y599185D01*
X478896D01*
X478645Y599235D01*
X478355D01*
X478104Y599185D01*
X477849D01*
X477614Y599088D01*
X477364Y599038D01*
X477151Y598896D01*
X476916Y598799D01*
X475346Y597750D01*
X474000Y597482D01*
X472654Y597750D01*
X471512Y598512D01*
X470750Y599654D01*
X470482Y601000D01*
X470750Y602346D01*
X471799Y603916D01*
X471896Y604151D01*
X472038Y604364D01*
X472088Y604614D01*
X472185Y604849D01*
Y605104D01*
X472235Y605355D01*
Y605645D01*
X472185Y605896D01*
Y606151D01*
X472088Y606386D01*
X472038Y606637D01*
X471896Y606849D01*
X471799Y607084D01*
X470750Y608654D01*
X470482Y610000D01*
X470608Y610635D01*
Y610763D01*
X470646Y610886D01*
X470620Y611144D01*
X470617Y611655D01*
X471221Y612349D01*
X471602Y612607D01*
X471814Y612749D01*
X472050Y612847D01*
X472762Y613322D01*
X472991Y613368D01*
X473203Y613510D01*
X473439Y613607D01*
X473619Y613787D01*
X473831Y613929D01*
X473895Y614024D01*
X484000Y614000D01*
D02*
G37*
G36*
X456000Y645000D02*
Y655000D01*
X472000D01*
Y634000D01*
Y615760D01*
X471643Y615690D01*
X470611Y615000D01*
X390000D01*
Y658982D01*
X390993Y659774D01*
X456000Y645000D01*
D02*
G37*
G36*
X488858Y632142D02*
Y617000D01*
X475142D01*
Y634000D01*
X487000D01*
X488858Y632142D01*
D02*
G37*
%LPC*%
G36*
X360750Y434035D02*
X354357Y427643D01*
X347965Y421250D01*
X353459Y415756D01*
X353915Y416212D01*
X354873Y415459D01*
X354916Y415417D01*
X358004Y412329D01*
X356805Y411131D01*
X356000Y411291D01*
X353561Y410806D01*
X351494Y409425D01*
X350113Y407357D01*
X349627Y404919D01*
X350113Y402480D01*
X351494Y400412D01*
X353561Y399031D01*
X356000Y398546D01*
X358439Y399031D01*
X360506Y400412D01*
X361887Y402480D01*
X362373Y404919D01*
X362212Y405724D01*
X363411Y406922D01*
X366541Y403792D01*
X378208Y415459D01*
X366583Y427084D01*
X366541Y427127D01*
X365788Y428085D01*
X366244Y428541D01*
X360750Y434035D01*
D02*
G37*
G36*
X132730Y429290D02*
X124960D01*
Y421520D01*
X132730D01*
Y429290D01*
D02*
G37*
G36*
X398639Y435639D02*
X395627Y435243D01*
X392820Y434080D01*
X390409Y432230D01*
X388559Y429820D01*
X387397Y427012D01*
X387000Y424000D01*
X387397Y420987D01*
X388559Y418180D01*
X390409Y415770D01*
X392820Y413920D01*
X395627Y412757D01*
X398639Y412360D01*
X401652Y412757D01*
X404459Y413920D01*
X406870Y415770D01*
X408720Y418180D01*
X409883Y420987D01*
X410279Y424000D01*
X409883Y427012D01*
X408720Y429820D01*
X406870Y432230D01*
X404459Y434080D01*
X401652Y435243D01*
X398639Y435639D01*
D02*
G37*
G36*
X187772Y408557D02*
X180942D01*
Y398270D01*
X187772D01*
Y408557D01*
D02*
G37*
G36*
X416544Y386536D02*
X408274D01*
Y382266D01*
X416544D01*
Y386536D01*
D02*
G37*
G36*
X427354Y379726D02*
X419084D01*
Y375456D01*
X427354D01*
Y379726D01*
D02*
G37*
G36*
X416544D02*
X408274D01*
Y375456D01*
X416544D01*
Y379726D01*
D02*
G37*
G36*
X143040Y418980D02*
X134000D01*
X124960D01*
Y411210D01*
X125605D01*
X125750Y410000D01*
X125750Y409940D01*
Y393500D01*
X142250D01*
Y396944D01*
X146058D01*
X146858Y396409D01*
X149296Y395924D01*
X151735Y396409D01*
X153802Y397790D01*
X155184Y399858D01*
X155669Y402296D01*
X155184Y404735D01*
X153802Y406802D01*
X151735Y408184D01*
X149296Y408669D01*
X146858Y408184D01*
X146058Y407649D01*
X142250D01*
Y409940D01*
X142250Y410000D01*
X142395Y411210D01*
X143040D01*
Y418980D01*
D02*
G37*
G36*
X187772Y395730D02*
X180942D01*
Y385443D01*
X187772D01*
Y395730D01*
D02*
G37*
G36*
X427354Y386536D02*
X419084D01*
Y382266D01*
X427354D01*
Y386536D01*
D02*
G37*
G36*
X143040Y429290D02*
X135270D01*
Y421520D01*
X143040D01*
Y429290D01*
D02*
G37*
G36*
X362719Y471561D02*
X359706Y471164D01*
X356899Y470001D01*
X354488Y468151D01*
X352638Y465741D01*
X351476Y462934D01*
X351079Y459921D01*
X351476Y456908D01*
X352638Y454101D01*
X354488Y451691D01*
X356899Y449841D01*
X359706Y448678D01*
X362719Y448282D01*
X365731Y448678D01*
X368538Y449841D01*
X370949Y451691D01*
X372799Y454101D01*
X373961Y456908D01*
X374358Y459921D01*
X373961Y462934D01*
X372799Y465741D01*
X370949Y468151D01*
X368538Y470001D01*
X365731Y471164D01*
X362719Y471561D01*
D02*
G37*
G36*
X329285Y451950D02*
X308955D01*
Y448505D01*
Y448150D01*
X329285D01*
Y448505D01*
Y451950D01*
D02*
G37*
G36*
X212230Y461040D02*
X204460D01*
Y453270D01*
X212230D01*
Y461040D01*
D02*
G37*
G36*
X329285Y457935D02*
X320390D01*
Y454490D01*
X329285D01*
Y457935D01*
D02*
G37*
G36*
X317850D02*
X308955D01*
Y454490D01*
X317850D01*
Y457935D01*
D02*
G37*
G36*
X135000Y467843D02*
X132194Y467473D01*
X129579Y466390D01*
X127333Y464667D01*
X125610Y462421D01*
X124527Y459806D01*
X124157Y457000D01*
X124527Y454194D01*
X125610Y451579D01*
X127333Y449333D01*
X129579Y447610D01*
X132194Y446527D01*
X135000Y446157D01*
X137806Y446527D01*
X140421Y447610D01*
X142667Y449333D01*
X144390Y451579D01*
X145473Y454194D01*
X145843Y457000D01*
X145473Y459806D01*
X144390Y462421D01*
X142667Y464667D01*
X140421Y466390D01*
X137806Y467473D01*
X135000Y467843D01*
D02*
G37*
G36*
X212230Y437040D02*
X204460D01*
Y429270D01*
X212230D01*
Y437040D01*
D02*
G37*
G36*
X346169Y434035D02*
X340675Y428541D01*
X346169Y423046D01*
X351663Y428541D01*
X346169Y434035D01*
D02*
G37*
G36*
X380679Y453600D02*
X377667Y453203D01*
X374859Y452041D01*
X372449Y450191D01*
X370599Y447780D01*
X369436Y444973D01*
X369039Y441960D01*
X369436Y438948D01*
X370599Y436141D01*
X372449Y433730D01*
X374859Y431880D01*
X377667Y430718D01*
X380679Y430321D01*
X383692Y430718D01*
X386499Y431880D01*
X388909Y433730D01*
X390759Y436141D01*
X391922Y438948D01*
X392319Y441960D01*
X391922Y444973D01*
X390759Y447780D01*
X388909Y450191D01*
X386499Y452041D01*
X383692Y453203D01*
X380679Y453600D01*
D02*
G37*
G36*
X212230Y450730D02*
X204460D01*
Y442960D01*
X212230D01*
Y450730D01*
D02*
G37*
G36*
X353459Y441325D02*
X347965Y435831D01*
X353459Y430337D01*
X358954Y435831D01*
X353459Y441325D01*
D02*
G37*
G36*
X442142Y372557D02*
X425942D01*
Y366540D01*
X408274D01*
Y355460D01*
X425942D01*
Y349443D01*
X442142D01*
Y372557D01*
D02*
G37*
G36*
X473780Y223480D02*
X463578D01*
X463807Y221737D01*
X464970Y218930D01*
X466820Y216520D01*
X469230Y214670D01*
X472037Y213507D01*
X473780Y213278D01*
Y223480D01*
D02*
G37*
G36*
X324122Y171997D02*
X320570D01*
Y164687D01*
X324122D01*
Y171997D01*
D02*
G37*
G36*
X318030D02*
X314478D01*
Y164687D01*
X318030D01*
Y171997D01*
D02*
G37*
G36*
X476320Y236222D02*
Y226020D01*
X486522D01*
X486293Y227763D01*
X485130Y230570D01*
X483280Y232980D01*
X480870Y234830D01*
X478063Y235993D01*
X476320Y236222D01*
D02*
G37*
G36*
X473780D02*
X472037Y235993D01*
X469230Y234830D01*
X466820Y232980D01*
X464970Y230570D01*
X463807Y227763D01*
X463578Y226020D01*
X473780D01*
Y236222D01*
D02*
G37*
G36*
X486522Y223480D02*
X476320D01*
Y213278D01*
X478063Y213507D01*
X480870Y214670D01*
X483280Y216520D01*
X485130Y218930D01*
X486293Y221737D01*
X486522Y223480D01*
D02*
G37*
G36*
X69000Y192372D02*
X66561Y191887D01*
X64494Y190506D01*
X63113Y188439D01*
X62628Y186000D01*
X63113Y183561D01*
X63647Y182761D01*
Y174750D01*
X60750D01*
Y158310D01*
X60750Y158250D01*
X60605Y157040D01*
X59960D01*
Y149270D01*
X78040D01*
Y157040D01*
X77395D01*
X77250Y158250D01*
X77250Y158310D01*
Y174750D01*
X74353D01*
Y182761D01*
X74887Y183561D01*
X75372Y186000D01*
X74887Y188439D01*
X73506Y190506D01*
X71439Y191887D01*
X69000Y192372D01*
D02*
G37*
G36*
X78040Y146730D02*
X70270D01*
Y138960D01*
X78040D01*
Y146730D01*
D02*
G37*
G36*
X67730D02*
X59960D01*
Y138960D01*
X67730D01*
Y146730D01*
D02*
G37*
G36*
X417814Y307158D02*
X411000D01*
X408643Y306689D01*
X408419Y306540D01*
X408274D01*
Y306443D01*
X406645Y305355D01*
X389645Y288355D01*
X388311Y286357D01*
X387842Y284000D01*
Y215268D01*
X344571Y171997D01*
X339878D01*
Y167072D01*
X339010Y165774D01*
X338542Y163417D01*
X339010Y161060D01*
X339878Y159762D01*
Y154837D01*
X349522D01*
Y159530D01*
X398355Y208362D01*
X399689Y210360D01*
X400158Y212717D01*
Y281449D01*
X413551Y294842D01*
X417814D01*
X420171Y295310D01*
X420395Y295460D01*
X427354D01*
Y306540D01*
X420395D01*
X420171Y306689D01*
X417814Y307158D01*
D02*
G37*
G36*
X324122Y162147D02*
X320570D01*
Y154837D01*
X324122D01*
Y162147D01*
D02*
G37*
G36*
X318030D02*
X314478D01*
Y154837D01*
X318030D01*
Y162147D01*
D02*
G37*
G36*
X472730Y320472D02*
X470988Y320243D01*
X468180Y319080D01*
X465770Y317230D01*
X463920Y314820D01*
X462757Y312013D01*
X462528Y310270D01*
X472730D01*
Y320472D01*
D02*
G37*
G36*
Y307730D02*
X462528D01*
X462757Y305987D01*
X463920Y303180D01*
X465770Y300770D01*
X468180Y298920D01*
X470988Y297757D01*
X472730Y297528D01*
Y307730D01*
D02*
G37*
G36*
X485472D02*
X475270D01*
Y297528D01*
X477012Y297757D01*
X479820Y298920D01*
X482230Y300770D01*
X484080Y303180D01*
X485243Y305987D01*
X485472Y307730D01*
D02*
G37*
G36*
X474000Y346040D02*
X470988Y345643D01*
X468180Y344480D01*
X465770Y342630D01*
X463920Y340220D01*
X462757Y337412D01*
X462360Y334400D01*
X462757Y331387D01*
X463920Y328580D01*
X465770Y326170D01*
X468180Y324320D01*
X470988Y323157D01*
X474000Y322760D01*
X477012Y323157D01*
X479820Y324320D01*
X482230Y326170D01*
X484080Y328580D01*
X485243Y331387D01*
X485639Y334400D01*
X485243Y337412D01*
X484080Y340220D01*
X482230Y342630D01*
X479820Y344480D01*
X477012Y345643D01*
X474000Y346040D01*
D02*
G37*
G36*
X292000Y467101D02*
X290162Y466859D01*
X288450Y466149D01*
X287720Y465590D01*
X277000D01*
X224000Y465590D01*
X223009Y465393D01*
X222169Y464831D01*
X221607Y463991D01*
X221410Y463000D01*
Y461040D01*
X214770D01*
Y452000D01*
Y442960D01*
X221410D01*
X221410Y437040D01*
X214770D01*
Y428000D01*
X213500D01*
Y426730D01*
X204460D01*
Y421590D01*
X198000D01*
X197009Y421393D01*
X196169Y420831D01*
X195607Y419991D01*
X195410Y419000D01*
Y408557D01*
X190312D01*
Y397000D01*
Y385443D01*
X192530D01*
X193016Y384270D01*
X106337Y297590D01*
X16000D01*
X15009Y297393D01*
X14169Y296831D01*
X13607Y295991D01*
X13410Y295000D01*
Y287590D01*
X13410D01*
Y264510D01*
X13410D01*
Y251408D01*
X13311Y250650D01*
X13410Y249892D01*
Y238000D01*
X13607Y237009D01*
X14169Y236169D01*
X15009Y235607D01*
X16000Y235410D01*
X17148D01*
X17579Y234140D01*
X16720Y233480D01*
X14870Y231070D01*
X13707Y228263D01*
X13311Y225250D01*
X13707Y222237D01*
X14870Y219430D01*
X16720Y217020D01*
X19130Y215170D01*
X21937Y214007D01*
X24950Y213610D01*
X27963Y214007D01*
X30770Y215170D01*
X33180Y217020D01*
X34770Y219092D01*
X147199D01*
X162702Y203588D01*
X164700Y202253D01*
X167057Y201785D01*
X206104D01*
X208461Y202253D01*
X210459Y203588D01*
X218766Y211896D01*
X219858Y211443D01*
Y211443D01*
X236058D01*
Y216842D01*
X248000D01*
X250357Y217311D01*
X252355Y218645D01*
X255000Y221291D01*
X256150Y220141D01*
X256851Y218450D01*
X257979Y216979D01*
X259450Y215851D01*
X261162Y215141D01*
X263000Y214899D01*
X264838Y215141D01*
X266550Y215851D01*
X268021Y216979D01*
X269149Y218450D01*
X269859Y220162D01*
X270101Y222000D01*
X269859Y223838D01*
X269149Y225550D01*
X268021Y227021D01*
X266550Y228149D01*
X264859Y228850D01*
X261158Y232551D01*
Y235460D01*
X264540D01*
Y246540D01*
X257581D01*
X257357Y246689D01*
X255000Y247158D01*
X252643Y246689D01*
X252419Y246540D01*
X245460D01*
Y235460D01*
X248842D01*
Y232551D01*
X245449Y229158D01*
X236058D01*
Y234557D01*
X222158D01*
Y239443D01*
X236100D01*
Y254833D01*
X244287Y263020D01*
X245460Y262533D01*
Y255460D01*
X264540D01*
Y266540D01*
X249467D01*
X248981Y267713D01*
X256384Y275117D01*
X257357Y275310D01*
X257581Y275460D01*
X264540D01*
Y286218D01*
X264761Y286366D01*
X270674Y292279D01*
X270931Y292663D01*
X294128Y315861D01*
X408274D01*
Y315460D01*
X427354D01*
Y315861D01*
X434632D01*
X435950Y314851D01*
X437662Y314141D01*
X439500Y313899D01*
X441338Y314141D01*
X443050Y314851D01*
X444521Y315979D01*
X445649Y317450D01*
X446359Y319162D01*
X446601Y321000D01*
X446359Y322838D01*
X445649Y324550D01*
X444521Y326021D01*
X443050Y327149D01*
X441338Y327859D01*
X439500Y328101D01*
X437662Y327859D01*
X435950Y327149D01*
X434632Y326139D01*
X427354D01*
Y326540D01*
X412281D01*
X411795Y327713D01*
X419541Y335460D01*
X427354D01*
Y346540D01*
X408274D01*
Y338727D01*
X404685Y335139D01*
X285000D01*
X283034Y334748D01*
X281366Y333634D01*
X266621Y318889D01*
X263750D01*
Y324343D01*
X321824Y382416D01*
X322652Y383657D01*
X322943Y385120D01*
Y404855D01*
X328495D01*
Y411195D01*
Y417555D01*
Y423895D01*
Y430255D01*
Y438105D01*
X328495D01*
Y442165D01*
X329285D01*
Y445610D01*
X308955D01*
Y442165D01*
X309745D01*
Y436595D01*
X309745D01*
Y425303D01*
X309147D01*
X307684Y425013D01*
X307027Y424573D01*
X306750D01*
X305287Y424282D01*
X304046Y423454D01*
X304046Y423453D01*
X298296Y417704D01*
X297468Y416463D01*
X297435Y416297D01*
X297343Y416219D01*
X296044Y415815D01*
X294439Y416887D01*
X292000Y417372D01*
X290275Y417029D01*
X289183Y418046D01*
X289372Y419000D01*
X288887Y421438D01*
X287506Y423506D01*
X285439Y424887D01*
X283000Y425372D01*
X281587Y425091D01*
X280520Y425303D01*
X275045D01*
Y426550D01*
X264880D01*
Y429090D01*
X275045D01*
Y429354D01*
X275284Y429514D01*
X275549Y429632D01*
X298497Y445887D01*
X298648Y446046D01*
X298831Y446169D01*
X298992Y446410D01*
X299192Y446620D01*
X299270Y446826D01*
X299393Y447009D01*
X299449Y447293D01*
X299553Y447564D01*
X299547Y447784D01*
X299590Y448000D01*
Y463000D01*
X299393Y463991D01*
X298831Y464831D01*
X297991Y465393D01*
X297000Y465590D01*
X296280D01*
X295550Y466149D01*
X293838Y466859D01*
X292000Y467101D01*
D02*
G37*
G36*
X475270Y320472D02*
Y310270D01*
X485472D01*
X485243Y312013D01*
X484080Y314820D01*
X482230Y317230D01*
X479820Y319080D01*
X477012Y320243D01*
X475270Y320472D01*
D02*
G37*
G36*
X485472Y282330D02*
X475270D01*
Y272128D01*
X477012Y272357D01*
X479820Y273520D01*
X482230Y275370D01*
X484080Y277780D01*
X485243Y280587D01*
X485472Y282330D01*
D02*
G37*
G36*
X426564Y285750D02*
X409064D01*
Y279987D01*
X408561Y279887D01*
X406494Y278506D01*
X405113Y276439D01*
X404628Y274000D01*
X405113Y271561D01*
X406494Y269494D01*
X408561Y268113D01*
X410083Y267810D01*
X409958Y266540D01*
X408274D01*
Y255460D01*
X411715D01*
X412341Y254190D01*
X411851Y253550D01*
X411141Y251838D01*
X410899Y250000D01*
X411141Y248162D01*
X411376Y247596D01*
X410670Y246540D01*
X408274D01*
Y235460D01*
X427354D01*
Y246540D01*
X425330D01*
X424624Y247596D01*
X424859Y248162D01*
X425101Y250000D01*
X424859Y251838D01*
X424241Y253329D01*
X424473Y254124D01*
X424827Y254753D01*
X425414Y254878D01*
X425450Y254851D01*
X427162Y254141D01*
X429000Y253899D01*
X430838Y254141D01*
X432550Y254851D01*
X434021Y255979D01*
X435149Y257450D01*
X435859Y259162D01*
X436101Y261000D01*
X435859Y262838D01*
X435149Y264550D01*
X434021Y266021D01*
X432550Y267149D01*
X430838Y267859D01*
X429000Y268101D01*
X427162Y267859D01*
X425450Y267149D01*
X424655Y266540D01*
X412043D01*
X411917Y267810D01*
X413439Y268113D01*
X415506Y269494D01*
X416887Y271561D01*
X417373Y274000D01*
X417182Y274960D01*
X418471Y276250D01*
X426564D01*
Y285750D01*
D02*
G37*
G36*
X485540Y269740D02*
X462460D01*
Y246660D01*
X485540D01*
Y269740D01*
D02*
G37*
G36*
X475270Y295072D02*
Y284870D01*
X485472D01*
X485243Y286612D01*
X484080Y289420D01*
X482230Y291830D01*
X479820Y293680D01*
X477012Y294843D01*
X475270Y295072D01*
D02*
G37*
G36*
X472730Y295072D02*
X470988Y294843D01*
X468180Y293680D01*
X465770Y291830D01*
X463920Y289420D01*
X462757Y286612D01*
X462528Y284870D01*
X472730D01*
Y295072D01*
D02*
G37*
G36*
Y282330D02*
X462528D01*
X462757Y280587D01*
X463920Y277780D01*
X465770Y275370D01*
X468180Y273520D01*
X470988Y272357D01*
X472730Y272128D01*
Y282330D01*
D02*
G37*
G36*
X152961Y473164D02*
X145699Y465902D01*
X152961Y458641D01*
X160222Y465902D01*
X152961Y473164D01*
D02*
G37*
G36*
X249380Y478780D02*
X239178D01*
X239407Y477038D01*
X240570Y474230D01*
X242419Y471820D01*
X244830Y469970D01*
X247637Y468807D01*
X249380Y468578D01*
Y478780D01*
D02*
G37*
G36*
X236722D02*
X226520D01*
Y468578D01*
X228263Y468807D01*
X231070Y469970D01*
X233480Y471820D01*
X235330Y474230D01*
X236493Y477038D01*
X236722Y478780D01*
D02*
G37*
G36*
X335700Y485144D02*
X328438Y477882D01*
X335700Y470620D01*
X342962Y477882D01*
X335700Y485144D01*
D02*
G37*
G36*
X262122Y478780D02*
X251920D01*
Y468578D01*
X253662Y468807D01*
X256470Y469970D01*
X258880Y471820D01*
X260730Y474230D01*
X261893Y477038D01*
X262122Y478780D01*
D02*
G37*
G36*
X223980D02*
X213778D01*
X214007Y477038D01*
X215170Y474230D01*
X217020Y471820D01*
X219430Y469970D01*
X222237Y468807D01*
X223980Y468578D01*
Y478780D01*
D02*
G37*
G36*
X143903Y482223D02*
X136641Y474961D01*
X143903Y467699D01*
X151165Y474961D01*
X143903Y482223D01*
D02*
G37*
G36*
X344758Y476086D02*
X337496Y468824D01*
X344758Y461562D01*
X352020Y468824D01*
X344758Y476086D01*
D02*
G37*
G36*
X162019Y482223D02*
X154757Y474961D01*
X162019Y467699D01*
X169280Y474961D01*
X162019Y482223D01*
D02*
G37*
G36*
X287590Y478780D02*
X277320D01*
Y468510D01*
X287590D01*
Y478780D01*
D02*
G37*
G36*
X274780D02*
X264510D01*
Y468510D01*
X274780D01*
Y478780D01*
D02*
G37*
G36*
X226520Y491522D02*
Y481320D01*
X236722D01*
X236493Y483063D01*
X235330Y485870D01*
X233480Y488280D01*
X231070Y490130D01*
X228263Y491293D01*
X226520Y491522D01*
D02*
G37*
G36*
X249380Y491522D02*
X247637Y491293D01*
X244830Y490130D01*
X242419Y488280D01*
X240570Y485870D01*
X239407Y483063D01*
X239178Y481320D01*
X249380D01*
Y491522D01*
D02*
G37*
G36*
X287590Y491590D02*
X277320D01*
Y481320D01*
X287590D01*
Y491590D01*
D02*
G37*
G36*
X251920Y491522D02*
Y481320D01*
X262122D01*
X261893Y483063D01*
X260730Y485870D01*
X258880Y488280D01*
X256470Y490130D01*
X253662Y491293D01*
X251920Y491522D01*
D02*
G37*
G36*
X223980Y491522D02*
X222237Y491293D01*
X219430Y490130D01*
X217020Y488280D01*
X215170Y485870D01*
X214007Y483063D01*
X213778Y481320D01*
X223980D01*
Y491522D01*
D02*
G37*
G36*
X152961Y491281D02*
X145698Y484019D01*
X152961Y476757D01*
X160222Y484019D01*
X152961Y491281D01*
D02*
G37*
G36*
X353816Y485144D02*
X346554Y477882D01*
X353816Y470620D01*
X361078Y477882D01*
X353816Y485144D01*
D02*
G37*
G36*
X344758Y494202D02*
X337496Y486940D01*
X344758Y479678D01*
X352020Y486940D01*
X344758Y494202D01*
D02*
G37*
G36*
X274780Y491590D02*
X264510D01*
Y481320D01*
X274780D01*
Y491590D01*
D02*
G37*
%LPD*%
G36*
X297000Y448000D02*
X274052Y431745D01*
X255505D01*
Y423895D01*
X255505D01*
Y419045D01*
X255505D01*
Y411195D01*
Y404855D01*
X257722D01*
X258764Y403585D01*
X258507Y402296D01*
X258993Y399858D01*
X260374Y397790D01*
X262441Y396409D01*
X264880Y395924D01*
X267319Y396409D01*
X269386Y397790D01*
X270767Y399858D01*
X271252Y402296D01*
X271002Y403555D01*
X271835Y404441D01*
X273000Y404025D01*
Y387000D01*
X251286Y368000D01*
X245000Y368000D01*
Y352000D01*
X220000Y327000D01*
Y302828D01*
X211645Y294473D01*
X210310Y292476D01*
X209842Y290119D01*
Y220390D01*
X203553Y214101D01*
X169608D01*
X154105Y229605D01*
X152107Y230940D01*
X150801Y231199D01*
X144000Y238000D01*
X16000D01*
Y295000D01*
X107409D01*
X198000Y385591D01*
Y419000D01*
X204460D01*
Y418960D01*
X222540D01*
Y419000D01*
X224000D01*
X224000Y463000D01*
X277000Y463000D01*
X297000D01*
Y448000D01*
D02*
G37*
%LPC*%
G36*
X274255Y457145D02*
X255505D01*
Y449295D01*
Y442955D01*
X274255D01*
Y449295D01*
Y457145D01*
D02*
G37*
%LPD*%
D10*
X336000Y40958D02*
D03*
Y11042D02*
D03*
D11*
X417814Y321000D02*
X439500D01*
X406814Y330000D02*
X417814Y341000D01*
X285000Y330000D02*
X406814D01*
X268750Y313750D02*
X285000Y330000D01*
X243750Y313750D02*
X268750D01*
X239000Y290000D02*
X261128D01*
X267040Y295912D01*
Y296040D02*
X292000Y321000D01*
X267040Y295912D02*
Y296040D01*
X292000Y321000D02*
X417814D01*
X228000Y279000D02*
X239000Y290000D01*
X243750Y313750D02*
Y318000D01*
X235958D02*
X243750D01*
X306958Y46000D02*
X319300Y58342D01*
Y94583D01*
X418000Y241186D02*
Y250000D01*
X417814Y241000D02*
X418000Y241186D01*
X417814Y261000D02*
X429000D01*
X434042Y361000D02*
X434042Y361000D01*
X417814Y361000D02*
X434042D01*
X255000Y300943D02*
Y301000D01*
X228000Y254000D02*
X255000Y281000D01*
X256940Y67000D02*
X277042Y46898D01*
X417130Y113000D02*
X451565Y147435D01*
X303840Y13840D02*
X313000Y23000D01*
X435951Y104460D02*
X465000Y133508D01*
Y134000D01*
X435460Y104460D02*
X435951D01*
X430565Y99565D02*
X435460Y104460D01*
X430435Y99565D02*
X430565D01*
X417000Y112435D02*
Y113000D01*
X413550Y108985D02*
X417000Y112435D01*
X412985Y108985D02*
X413550D01*
X402425Y71441D02*
X430435Y99452D01*
X389441Y71441D02*
X402425D01*
X430435Y99452D02*
Y99565D01*
X417814Y261000D02*
X417814Y261000D01*
X417000Y113000D02*
X417130D01*
X365841Y61276D02*
Y61841D01*
X412985Y108985D01*
X336000Y18000D02*
X389441Y71441D01*
X336000Y11042D02*
Y18000D01*
Y40958D02*
X345523D01*
X365841Y61276D01*
X306958Y41000D02*
X307000Y40958D01*
X306958Y46000D02*
X317000D01*
X322042Y40958D01*
X336000D01*
X313000Y23000D02*
X324958Y11042D01*
X336000D01*
X238525Y13840D02*
X303840D01*
X277042Y40465D02*
Y46000D01*
Y40465D02*
X294507Y23000D01*
X277042Y46000D02*
Y46898D01*
X199060Y34255D02*
Y67000D01*
Y34255D02*
X219475Y13840D01*
D12*
X410814Y274000D02*
X411000D01*
X410814D02*
X417814Y281000D01*
X334120Y105163D02*
X344700Y94583D01*
X267617Y105163D02*
X334120D01*
X229000Y66547D02*
X267617Y105163D01*
X264880Y402296D02*
Y408780D01*
Y401880D02*
Y402296D01*
X306750Y420750D02*
X308417D01*
X229000Y34160D02*
Y66547D01*
X319120Y414705D02*
Y415120D01*
Y385120D02*
Y408780D01*
X255000Y361000D02*
X258000D01*
X229000Y34160D02*
X229583Y34743D01*
X308417Y420750D02*
X309147Y421480D01*
X319120D01*
X255000Y321000D02*
X319120Y385120D01*
X356000Y404919D02*
X366541Y415459D01*
X264880Y415120D02*
X265295Y414705D01*
X309942D02*
X319120D01*
X265295D02*
X274058D01*
X258000Y361000D02*
X301000Y404000D01*
X255000Y341000D02*
X307000Y393000D01*
Y411763D01*
X309942Y414705D01*
X301000Y404000D02*
Y415000D01*
X306750Y420750D01*
X283000Y419000D02*
Y419961D01*
X291750Y410750D02*
X292000Y411000D01*
X278014Y410750D02*
X291750D01*
X274058Y414705D02*
X278014Y410750D01*
X280520Y421480D02*
X283000Y419000D01*
X264880Y421480D02*
X280520D01*
D13*
X411000Y301000D02*
X417814D01*
X394000Y284000D02*
X411000Y301000D01*
X394000Y212717D02*
Y284000D01*
X344700Y163417D02*
X394000Y212717D01*
X134000Y401750D02*
X134546Y402296D01*
X149296D01*
X255000Y230000D02*
X263000Y222000D01*
X255000Y230000D02*
Y241000D01*
X216000Y217839D02*
Y290119D01*
X167057Y207943D02*
X206104D01*
X216000Y217839D01*
Y290119D02*
X225961Y300080D01*
X149750Y225250D02*
X167057Y207943D01*
X24950Y225250D02*
X149750D01*
X225961Y300080D02*
X254080D01*
X255000Y301000D01*
X248000Y223000D02*
X255000Y230000D01*
X227958Y223000D02*
X248000D01*
X228000Y251000D02*
Y254000D01*
X433435Y116000D02*
X433999D01*
X408990Y91555D02*
X433435Y116000D01*
X475050Y199350D02*
X476192D01*
X492690Y182852D01*
Y163690D02*
Y182852D01*
X475499Y146499D02*
X492690Y163690D01*
X464064Y146499D02*
X475499D01*
X443555Y125990D02*
X464064Y146499D01*
X252958Y281000D02*
X255000D01*
X69000Y166500D02*
Y186000D01*
D15*
X727000Y406000D02*
X778500Y457500D01*
X492500Y570500D02*
X505000Y558000D01*
X492500Y570500D02*
Y578000D01*
X550000Y428000D02*
X572000Y406000D01*
X727000D01*
X609940Y461000D02*
X716237D01*
X771270Y516033D01*
X513000Y604000D02*
X523000Y594000D01*
X771270Y516033D02*
X807033D01*
D17*
X436000Y571000D02*
D03*
Y534000D02*
D03*
D18*
X435000Y713000D02*
D03*
X435000Y738000D02*
D03*
D19*
X24950Y225250D02*
D03*
Y250650D02*
D03*
X850000Y600800D02*
D03*
Y575400D02*
D03*
X400000Y599200D02*
D03*
Y624600D02*
D03*
X599200Y855000D02*
D03*
X624600D02*
D03*
X474000Y334400D02*
D03*
Y309000D02*
D03*
Y283600D02*
D03*
X398639Y424000D02*
D03*
X380679Y441960D02*
D03*
X362719Y459921D02*
D03*
X225250Y480050D02*
D03*
X250650D02*
D03*
X475050Y224750D02*
D03*
Y199350D02*
D03*
X135000Y457000D02*
D03*
D20*
X24950Y276050D02*
D03*
X850000Y550000D02*
D03*
X400000Y650000D02*
D03*
X474000Y258200D02*
D03*
X475050Y173950D02*
D03*
D21*
X640800Y527000D02*
D03*
X695400D02*
D03*
X750000D02*
D03*
X551000Y500000D02*
D03*
X605600D02*
D03*
X660200D02*
D03*
D22*
X650000Y855000D02*
D03*
X276050Y480050D02*
D03*
D23*
X600000Y428000D02*
D03*
X550000D02*
D03*
X707000D02*
D03*
X657000D02*
D03*
D24*
X753967Y462967D02*
D03*
X807000Y516000D02*
D03*
D25*
X344758Y477882D02*
D03*
D26*
X152961Y474961D02*
D03*
D27*
X411000Y274000D02*
D03*
X439500Y321000D02*
D03*
X149296Y402296D02*
D03*
X263000Y222000D02*
D03*
X418000Y250000D02*
D03*
X429000Y261000D02*
D03*
X264880Y402296D02*
D03*
X433999Y116000D02*
D03*
X292000Y460000D02*
D03*
Y450000D02*
D03*
X356000Y404919D02*
D03*
X292000Y411000D02*
D03*
X283000Y419000D02*
D03*
X299000Y437000D02*
D03*
X318000Y471000D02*
D03*
X198000Y452000D02*
D03*
Y436000D02*
D03*
X343000Y439000D02*
D03*
X318000Y490000D02*
D03*
X69000Y186000D02*
D03*
D28*
X483000Y610000D02*
D03*
Y601000D02*
D03*
X474000Y610000D02*
D03*
Y601000D02*
D03*
X508000Y627000D02*
D03*
X497000Y642000D02*
D03*
X503000Y713000D02*
D03*
X508000Y615000D02*
D03*
X545000Y580000D02*
D03*
X521000Y579000D02*
D03*
D29*
X523000Y594000D02*
D03*
D30*
X505000Y558000D02*
D03*
D31*
X353459Y428541D02*
D03*
X366541Y415459D02*
D03*
D32*
X134000Y401750D02*
D03*
Y420250D02*
D03*
X69000Y166500D02*
D03*
Y148000D02*
D03*
D33*
X189042Y397000D02*
D03*
X218958D02*
D03*
X228000Y251000D02*
D03*
X198084D02*
D03*
X227958Y223000D02*
D03*
X198042D02*
D03*
X463958Y361000D02*
D03*
X434042D02*
D03*
X306958Y46000D02*
D03*
X277042D02*
D03*
X228000Y279000D02*
D03*
X198084D02*
D03*
X235958Y318000D02*
D03*
X206042D02*
D03*
X496958Y627000D02*
D03*
X467042D02*
D03*
X490958Y713000D02*
D03*
X461042D02*
D03*
D34*
X311493Y23000D02*
D03*
X294507D02*
D03*
D35*
X451565Y147435D02*
D03*
X465000Y134000D02*
D03*
X443555Y125990D02*
D03*
X417000Y113000D02*
D03*
X430435Y99565D02*
D03*
X408990Y91555D02*
D03*
D36*
X229000Y34160D02*
D03*
X219475Y13840D02*
D03*
X238525D02*
D03*
D37*
X199060Y67000D02*
D03*
X256940D02*
D03*
X552060Y461000D02*
D03*
X609940D02*
D03*
D38*
X379276Y47841D02*
D03*
X365841Y61276D02*
D03*
X389441Y71441D02*
D03*
D39*
X463077Y683700D02*
D03*
Y652300D02*
D03*
D40*
Y668000D02*
D03*
D41*
X492500Y578000D02*
D03*
Y604000D02*
D03*
X502000D02*
D03*
X511500D02*
D03*
Y578000D02*
D03*
D42*
X778423Y457423D02*
D03*
X799577Y478577D02*
D03*
D43*
X344700Y163417D02*
D03*
X319300D02*
D03*
X319300Y94583D02*
D03*
X344700D02*
D03*
D44*
X319120Y408780D02*
D03*
Y415120D02*
D03*
Y421480D02*
D03*
Y427820D02*
D03*
Y434180D02*
D03*
X319120Y440520D02*
D03*
X319120Y446880D02*
D03*
Y453220D02*
D03*
X264880Y453220D02*
D03*
Y446880D02*
D03*
Y440520D02*
D03*
X264880Y434180D02*
D03*
Y427820D02*
D03*
X264880Y421480D02*
D03*
X264880Y415120D02*
D03*
Y408780D02*
D03*
D45*
X232000Y452000D02*
D03*
X213500Y452000D02*
D03*
X232000Y428000D02*
D03*
X213500Y428000D02*
D03*
D46*
X417814Y261000D02*
D03*
X417814Y281000D02*
D03*
X417814Y301000D02*
D03*
X417814Y321000D02*
D03*
X417814Y341000D02*
D03*
X417814Y361000D02*
D03*
X255000Y241000D02*
D03*
X255000Y261000D02*
D03*
X255000Y281000D02*
D03*
Y301000D02*
D03*
X255000Y321000D02*
D03*
Y341000D02*
D03*
X255000Y361000D02*
D03*
X417814Y241000D02*
D03*
Y380996D02*
D03*
X255000Y380996D02*
D03*
D47*
X461042Y685735D02*
X463077Y683700D01*
X461042Y685735D02*
Y713000D01*
X435000D02*
X461042D01*
D48*
X799577Y478577D02*
X850000Y529000D01*
Y550000D01*
M02*
