G04 Layer_Physical_Order=1*
G04 Layer_Color=255*
%FSLAX44Y44*%
%MOMM*%
G71*
G01*
G75*
%ADD10R,1.1572X0.5426*%
%ADD11R,1.1120X1.8034*%
%ADD12R,3.2004X1.0128*%
%ADD13R,0.4032X0.3556*%
%ADD14R,1.8034X1.1120*%
%ADD15R,0.9144X0.5588*%
%ADD16R,0.5680X1.2588*%
%ADD17R,1.4000X0.6000*%
%ADD18C,2.0000*%
%ADD19C,1.1000*%
%ADD20C,1.0000*%
%ADD21C,0.5000*%
%ADD22C,0.4000*%
%ADD23C,0.7000*%
%ADD24C,1.8000*%
%ADD25R,1.8000X1.8000*%
%ADD26P,2.5456X4X90.0*%
%ADD27R,1.8000X1.8000*%
%ADD28C,1.1684*%
%ADD29C,2.0000*%
%ADD30C,2.1590*%
%ADD31R,2.0000X2.0000*%
%ADD32R,2.0000X3.0000*%
%ADD33C,1.5000*%
%ADD34C,0.7000*%
%ADD35C,1.2700*%
G36*
X274360Y381697D02*
X272920Y379820D01*
X271757Y377012D01*
X271360Y374000D01*
X271757Y370987D01*
X272039Y370306D01*
X256366Y354634D01*
X255252Y352966D01*
X254861Y351000D01*
Y346540D01*
X252953D01*
Y362085D01*
X273403Y382536D01*
X274360Y381697D01*
D02*
G37*
G36*
X790000Y480000D02*
X725000Y415000D01*
X695000D01*
X695000Y471250D01*
X739517Y542000D01*
X790000D01*
Y480000D01*
D02*
G37*
G36*
X387443Y375858D02*
X399833D01*
X401824Y373866D01*
X403491Y372752D01*
X405458Y372361D01*
X408256D01*
X408782Y371091D01*
X399833Y362142D01*
X387443D01*
Y353139D01*
X382047D01*
X381867Y353488D01*
X381710Y354409D01*
X383340Y355660D01*
X384765Y357517D01*
X385661Y359679D01*
X385967Y362000D01*
X385661Y364321D01*
X384765Y366483D01*
X383469Y368173D01*
X383628Y368829D01*
X383990Y369443D01*
X384058D01*
Y375861D01*
X387443D01*
Y375858D01*
D02*
G37*
G36*
X454441Y581401D02*
X456948Y579478D01*
X459867Y578269D01*
X463000Y577856D01*
X472144D01*
X488344Y561656D01*
X488246Y561333D01*
X487917Y558000D01*
X488246Y554667D01*
X489218Y551463D01*
X490796Y548510D01*
X492921Y545921D01*
X509921Y528921D01*
X509921Y528921D01*
X512509Y526797D01*
X515463Y525218D01*
X518667Y524246D01*
X522000Y523918D01*
X526082D01*
X537905Y512095D01*
X536132Y509934D01*
X534480Y506843D01*
X533462Y503488D01*
X533119Y500000D01*
X533462Y496511D01*
X534480Y493157D01*
X536132Y490066D01*
X538356Y487356D01*
X541066Y485132D01*
X544157Y483480D01*
X547512Y482462D01*
X551000Y482119D01*
X554488Y482462D01*
X557843Y483480D01*
X560934Y485132D01*
X563095Y486905D01*
X600089Y449911D01*
X672919Y449911D01*
X672988Y384240D01*
X672091Y383341D01*
X528455D01*
X480898Y430898D01*
X479171Y432224D01*
X478497Y432503D01*
X432503Y478497D01*
X432224Y479171D01*
X430898Y480898D01*
X400000Y511796D01*
Y583123D01*
X403136Y583432D01*
X406153Y584346D01*
X408932Y585832D01*
X410473Y587096D01*
X448746D01*
X454441Y581401D01*
D02*
G37*
G36*
X455896Y384104D02*
X455370Y382834D01*
X442826D01*
Y382639D01*
X410557D01*
Y392058D01*
X387443D01*
Y386139D01*
X384058D01*
Y392557D01*
X367858D01*
Y369443D01*
X370010D01*
X370372Y368829D01*
X370531Y368173D01*
X369235Y366483D01*
X368339Y364321D01*
X368033Y362000D01*
X368339Y359679D01*
X369235Y357517D01*
X370660Y355660D01*
X372517Y354235D01*
X374078Y353588D01*
X373937Y352318D01*
X373937D01*
Y350711D01*
X367481Y344256D01*
X366306Y344694D01*
X366103Y345807D01*
X366255Y346034D01*
X366646Y348000D01*
X366255Y349967D01*
X366063Y350253D01*
Y352318D01*
X364456D01*
X361201Y355574D01*
X359534Y356688D01*
X357567Y357079D01*
X342542D01*
Y359544D01*
X333513D01*
X333027Y360717D01*
X341752Y369443D01*
X354142D01*
Y392557D01*
X337942D01*
Y380167D01*
X320366Y362592D01*
X319252Y360924D01*
X318978Y359544D01*
X305458D01*
Y344336D01*
X342542D01*
Y346801D01*
X355438D01*
X356951Y345289D01*
Y343682D01*
X358898D01*
X359540Y343252D01*
X361507Y342861D01*
X363474Y343252D01*
X363938Y343563D01*
X364892Y343373D01*
X365341Y342116D01*
X357046Y333821D01*
X355933Y332154D01*
X355541Y330187D01*
Y329778D01*
X352354D01*
Y319272D01*
X369006D01*
Y329778D01*
X369006D01*
X368576Y330816D01*
X380622Y342861D01*
X392958D01*
X394925Y343252D01*
X396592Y344366D01*
X398167Y345942D01*
X410557D01*
Y358332D01*
X415087Y362861D01*
X418950D01*
Y362666D01*
X420861D01*
Y323662D01*
X411120D01*
Y317648D01*
X410811Y317185D01*
X410533Y315792D01*
X409134Y315265D01*
X408483Y315765D01*
X406320Y316661D01*
X403999Y316966D01*
X401678Y316661D01*
X399516Y315765D01*
X397659Y314340D01*
X396234Y312483D01*
X395338Y310320D01*
X395033Y307999D01*
X395338Y305679D01*
X396234Y303516D01*
X397659Y301659D01*
X398861Y300737D01*
Y297001D01*
X399252Y295034D01*
X400366Y293367D01*
X401620Y292113D01*
Y285166D01*
X410342D01*
Y282500D01*
X410811Y280143D01*
X412145Y278145D01*
X463510Y226781D01*
Y212410D01*
X486590D01*
Y235490D01*
X472219D01*
X470227Y237482D01*
X470946Y238559D01*
X472037Y238107D01*
X475050Y237710D01*
X478063Y238107D01*
X480870Y239270D01*
X483280Y241120D01*
X485130Y243530D01*
X486293Y246338D01*
X486689Y249350D01*
X486293Y252362D01*
X485130Y255170D01*
X483280Y257580D01*
X480870Y259430D01*
X478063Y260593D01*
X475050Y260989D01*
X472461Y260649D01*
X470227Y262882D01*
X470946Y263959D01*
X472037Y263507D01*
X473780Y263278D01*
Y274750D01*
Y286222D01*
X472037Y285993D01*
X469230Y284830D01*
X467428Y283447D01*
X466158Y284074D01*
Y304000D01*
X465690Y306357D01*
X465380Y306820D01*
Y312834D01*
X454620D01*
Y306820D01*
X454310Y306357D01*
X453842Y304000D01*
Y264400D01*
X454310Y262043D01*
X455645Y260045D01*
X463751Y251940D01*
X463410Y249350D01*
X463807Y246338D01*
X464259Y245246D01*
X463182Y244527D01*
X423813Y283896D01*
X424339Y285166D01*
X431380D01*
Y302834D01*
X431139D01*
Y319689D01*
X445120D01*
Y315994D01*
X455880D01*
Y329521D01*
X457053Y330008D01*
X464120Y322941D01*
Y315994D01*
X474880D01*
Y333662D01*
X467933D01*
X460962Y340634D01*
X459295Y341748D01*
X457328Y342139D01*
X446261D01*
X445340Y343340D01*
X444138Y344262D01*
Y353166D01*
X457050D01*
Y363834D01*
X445335D01*
X444809Y365104D01*
X451871Y372166D01*
X457050D01*
Y381154D01*
X458320Y381680D01*
X496115Y343885D01*
Y150877D01*
X349123Y3885D01*
X151609D01*
X136120Y19373D01*
Y64599D01*
X137580Y65720D01*
X139430Y68130D01*
X140593Y70938D01*
X140990Y73950D01*
X140593Y76963D01*
X140542Y77087D01*
X141498Y78043D01*
X142707Y79618D01*
X143466Y81452D01*
X143726Y83420D01*
Y210543D01*
X143466Y212511D01*
X142707Y214345D01*
X141498Y215920D01*
X95528Y261890D01*
X95588Y262292D01*
X96028Y263186D01*
X96704Y263321D01*
X97545Y263882D01*
X187831Y354169D01*
X188125Y354608D01*
X189395Y354223D01*
Y290417D01*
X189654Y288448D01*
X190414Y286614D01*
X191622Y285039D01*
X238274Y238387D01*
Y235460D01*
X241251D01*
X242614Y234414D01*
X244448Y233654D01*
X246417Y233395D01*
X247814D01*
X249782Y233654D01*
X251616Y234414D01*
X252980Y235460D01*
X257354D01*
Y246540D01*
X252980D01*
X251616Y247586D01*
X249857Y248315D01*
X245913Y252259D01*
X246368Y253599D01*
X246782Y253654D01*
X248617Y254414D01*
X249980Y255460D01*
X257354D01*
Y266540D01*
X249980D01*
X248617Y267586D01*
X248110Y267796D01*
X242251Y273655D01*
X243090Y274612D01*
X243348Y274414D01*
X245182Y273654D01*
X247151Y273395D01*
X249119Y273654D01*
X250953Y274414D01*
X252317Y275460D01*
X257354D01*
Y281926D01*
X258624Y282775D01*
X259679Y282338D01*
X261999Y282033D01*
X264320Y282338D01*
X266483Y283234D01*
X268340Y284659D01*
X269765Y286516D01*
X270661Y288679D01*
X270966Y290999D01*
X270661Y293320D01*
X269765Y295483D01*
X268340Y297340D01*
X266483Y298765D01*
X264320Y299661D01*
X261999Y299966D01*
X259679Y299661D01*
X258624Y299224D01*
X257354Y300072D01*
Y303273D01*
X286634Y332552D01*
X287748Y334219D01*
X288139Y336186D01*
Y338238D01*
X288820Y338520D01*
X291230Y340370D01*
X293080Y342780D01*
X294243Y345588D01*
X294639Y348600D01*
X294243Y351613D01*
X293080Y354420D01*
X291230Y356830D01*
X288820Y358680D01*
X286012Y359843D01*
X283000Y360240D01*
X279988Y359843D01*
X277180Y358680D01*
X275303Y357240D01*
X274464Y358197D01*
X279306Y363039D01*
X279988Y362757D01*
X283000Y362360D01*
X286012Y362757D01*
X288820Y363920D01*
X291230Y365770D01*
X293080Y368180D01*
X294243Y370987D01*
X294639Y374000D01*
X294243Y377012D01*
X293080Y379820D01*
X291230Y382230D01*
X288820Y384080D01*
X286012Y385243D01*
X283000Y385639D01*
X279988Y385243D01*
X277180Y384080D01*
X275303Y382640D01*
X274464Y383596D01*
X279306Y388439D01*
X279988Y388157D01*
X283000Y387761D01*
X286012Y388157D01*
X288820Y389320D01*
X291230Y391170D01*
X293080Y393580D01*
X294243Y396387D01*
X294639Y399400D01*
X294243Y402413D01*
X293080Y405220D01*
X291230Y407630D01*
X288820Y409480D01*
X286012Y410643D01*
X283000Y411040D01*
X279988Y410643D01*
X277180Y409480D01*
X274770Y407630D01*
X272920Y405220D01*
X271757Y402413D01*
X271360Y399400D01*
X271757Y396387D01*
X272039Y395706D01*
X244180Y367848D01*
X243066Y366180D01*
X242675Y364214D01*
Y346540D01*
X238605D01*
Y391850D01*
X252378Y405622D01*
X253586Y407197D01*
X254346Y409032D01*
X254466Y409942D01*
X258557D01*
Y422410D01*
X261000D01*
X261991Y422607D01*
X262831Y423169D01*
X263393Y424009D01*
X263590Y425000D01*
Y458000D01*
X263393Y458991D01*
X262831Y459831D01*
X261991Y460393D01*
X261000Y460590D01*
X183000Y460590D01*
X182009Y460393D01*
X181169Y459831D01*
X131927Y410590D01*
X111706D01*
X111180Y411860D01*
X126360Y427039D01*
X110040Y443359D01*
X93720Y427039D01*
X108899Y411860D01*
X108373Y410590D01*
X67743Y410590D01*
X67257Y411763D01*
X151609Y496115D01*
X343885D01*
X455896Y384104D01*
D02*
G37*
G36*
X261000Y425000D02*
X258557D01*
Y426142D01*
X235443D01*
Y425000D01*
X233557D01*
Y426142D01*
X210443D01*
Y425000D01*
X208557D01*
Y426142D01*
X185443D01*
Y409942D01*
X186000D01*
Y356000D01*
X95713Y265713D01*
X94540Y266199D01*
Y266540D01*
X90829D01*
X89466Y267586D01*
X87632Y268346D01*
X85663Y268605D01*
X82000D01*
X80032Y268346D01*
X78197Y267586D01*
X76834Y266540D01*
X75460D01*
Y264863D01*
X75414Y264802D01*
X74654Y262968D01*
X74395Y261000D01*
X74654Y259032D01*
X75414Y257197D01*
X75460Y257137D01*
Y255460D01*
X76834D01*
X78197Y254414D01*
X80032Y253654D01*
X81646Y253442D01*
X82081Y252576D01*
X82125Y252125D01*
X80000Y250000D01*
Y248333D01*
X78197Y247586D01*
X76834Y246540D01*
X75460D01*
Y244863D01*
X75414Y244802D01*
X74654Y242968D01*
X74395Y241000D01*
X74654Y239032D01*
X75414Y237197D01*
X75460Y237137D01*
Y235460D01*
X76834D01*
X78197Y234414D01*
X80000Y233667D01*
Y228333D01*
X78197Y227586D01*
X76834Y226540D01*
X75460D01*
Y224863D01*
X75414Y224802D01*
X74654Y222968D01*
X74395Y221000D01*
X74654Y219032D01*
X75414Y217197D01*
X75460Y217137D01*
Y215460D01*
X76834D01*
X78197Y214414D01*
X80000Y213667D01*
Y212125D01*
X89000Y206500D01*
Y189151D01*
X85134Y185139D01*
X83930Y185720D01*
X83967Y186000D01*
X83661Y188321D01*
X82765Y190483D01*
X81340Y192340D01*
X79483Y193765D01*
X77321Y194661D01*
X76383Y194785D01*
X74926Y195388D01*
X72958Y195647D01*
X67557D01*
Y196142D01*
X44443D01*
Y179942D01*
X67557D01*
X67557Y179942D01*
X68698Y179630D01*
X70517Y178235D01*
X72679Y177339D01*
X75000Y177033D01*
X75641Y177118D01*
X76247Y175917D01*
X67913Y167269D01*
X59131Y158487D01*
X58350Y158590D01*
X55338Y158193D01*
X52530Y157030D01*
X50120Y155180D01*
X48270Y152770D01*
X47107Y149963D01*
X46710Y146950D01*
X47107Y143938D01*
X48270Y141130D01*
X50120Y138720D01*
X52530Y136870D01*
X55338Y135707D01*
X58350Y135310D01*
X61363Y135707D01*
X64170Y136870D01*
X66580Y138720D01*
X68430Y141130D01*
X69593Y143938D01*
X69693Y144696D01*
X70896Y145105D01*
X72821Y143179D01*
X73670Y141130D01*
X75520Y138720D01*
X77930Y136870D01*
X79979Y136021D01*
X92688Y123312D01*
X92280Y122109D01*
X91168Y121962D01*
X88361Y120800D01*
X85950Y118950D01*
X84100Y116539D01*
X82937Y113732D01*
X82541Y110720D01*
X82937Y107707D01*
X84100Y104900D01*
X85950Y102489D01*
X88361Y100639D01*
X91168Y99477D01*
X94180Y99080D01*
X97193Y99477D01*
X100000Y100639D01*
X102411Y102489D01*
X104261Y104900D01*
X105423Y107707D01*
X105548Y108656D01*
X106889Y109111D01*
X108369Y107631D01*
X109500Y104900D01*
X111350Y102489D01*
X113761Y100639D01*
X116492Y99508D01*
X128264Y87736D01*
Y86319D01*
X127259Y85314D01*
X126337Y85193D01*
X123530Y84030D01*
X121120Y82180D01*
X119270Y79770D01*
X118107Y76963D01*
X117710Y73950D01*
X118107Y70938D01*
X119270Y68130D01*
X120030Y67139D01*
X119469Y66000D01*
X89494D01*
X3885Y151609D01*
Y348391D01*
X63494Y408000D01*
X133000Y408000D01*
X183000Y458000D01*
X261000Y458000D01*
Y425000D01*
D02*
G37*
G36*
X871115Y723391D02*
Y526609D01*
X859506Y515000D01*
X836979D01*
Y527299D01*
X836566Y530431D01*
X835357Y533350D01*
X833434Y535857D01*
X833104Y536187D01*
Y548482D01*
X837017D01*
Y573602D01*
X804983D01*
Y548482D01*
X808896D01*
Y531174D01*
X809309Y528041D01*
X810518Y525122D01*
X810614Y524997D01*
X809813Y523954D01*
X809221Y524199D01*
X807033Y524487D01*
X806027Y524355D01*
X805073Y525192D01*
Y542000D01*
X804783Y544940D01*
X803925Y547768D01*
X802532Y550374D01*
X800658Y552658D01*
X798374Y554532D01*
X795768Y555925D01*
X792941Y556783D01*
X790000Y557073D01*
X739517D01*
X739311Y557052D01*
X739104Y557067D01*
X737841Y556908D01*
X736576Y556783D01*
X736378Y556723D01*
X736172Y556697D01*
X734965Y556294D01*
X733749Y555925D01*
X733566Y555827D01*
X733369Y555762D01*
X732264Y555132D01*
X731143Y554532D01*
X730983Y554401D01*
X730803Y554298D01*
X729842Y553465D01*
X728859Y552658D01*
X728727Y552497D01*
X728571Y552362D01*
X727792Y551357D01*
X726984Y550374D01*
X726887Y550191D01*
X726760Y550027D01*
X704720Y515000D01*
X675521D01*
X674403Y517090D01*
X672279Y519679D01*
X672279Y519679D01*
X656407Y535551D01*
X655668Y536934D01*
X653444Y539644D01*
X650734Y541868D01*
X647643Y543520D01*
X645380Y544206D01*
X626641Y555597D01*
X625461Y556165D01*
X624305Y556782D01*
X623954Y556889D01*
X623623Y557048D01*
X622354Y557374D01*
X621101Y557754D01*
X620736Y557790D01*
X620380Y557882D01*
X619072Y557954D01*
X617768Y558082D01*
X529075D01*
X517079Y570079D01*
X514490Y572203D01*
X511537Y573782D01*
X508332Y574754D01*
X505000Y575082D01*
X501667Y574754D01*
X498463Y573782D01*
X497857Y573458D01*
X490134Y581182D01*
X490620Y582355D01*
X518960D01*
X520928Y582614D01*
X521872Y583005D01*
X522762Y583374D01*
X524338Y584582D01*
X525060Y585304D01*
X525321Y585339D01*
X527483Y586235D01*
X529340Y587660D01*
X530765Y589517D01*
X531661Y591679D01*
X531967Y594000D01*
X531661Y596321D01*
X530765Y598483D01*
X529340Y600340D01*
X527483Y601765D01*
X525321Y602661D01*
X523000Y602967D01*
X520679Y602661D01*
X518517Y601765D01*
X516660Y600340D01*
X515235Y598483D01*
X514854Y597565D01*
X497590D01*
Y609000D01*
Y617000D01*
X497393Y617991D01*
X496831Y618831D01*
X487831Y627831D01*
X451590Y664073D01*
Y700000D01*
Y723000D01*
X451393Y723991D01*
X450831Y724831D01*
X449991Y725393D01*
X449000Y725590D01*
X422000D01*
X421009Y725393D01*
X420169Y724831D01*
X419607Y723991D01*
X419410Y723000D01*
Y644000D01*
X419607Y643009D01*
X420169Y642169D01*
X438086Y624252D01*
X451666Y607955D01*
X451128Y606805D01*
X408710D01*
X408230Y607430D01*
X405820Y609280D01*
X403013Y610443D01*
X400000Y610840D01*
X396987Y610443D01*
X394180Y609280D01*
X391770Y607430D01*
X389920Y605020D01*
X388757Y602212D01*
X388360Y599200D01*
X388757Y596188D01*
X389650Y594033D01*
X389342Y593781D01*
X388872Y593208D01*
X388349Y592685D01*
X387937Y592069D01*
X387468Y591497D01*
X387119Y590844D01*
X386707Y590228D01*
X386424Y589544D01*
X386075Y588891D01*
X385860Y588182D01*
X385576Y587498D01*
X385432Y586772D01*
X385217Y586063D01*
X385145Y585326D01*
X385000Y584600D01*
Y583859D01*
X384927Y583123D01*
Y545114D01*
X378885D01*
Y723391D01*
X526609Y871115D01*
X723391D01*
X871115Y723391D01*
D02*
G37*
G36*
X274360Y356297D02*
X272920Y354420D01*
X271757Y351613D01*
X271360Y348600D01*
X271757Y345588D01*
X272920Y342780D01*
X274770Y340370D01*
X276665Y338915D01*
X276921Y337374D01*
X258527Y318981D01*
X257354Y319466D01*
Y323273D01*
X263634Y329552D01*
X264748Y331219D01*
X265139Y333186D01*
Y348871D01*
X273403Y357136D01*
X274360Y356297D01*
D02*
G37*
G36*
X206517Y395235D02*
X208679Y394339D01*
X210395Y394113D01*
Y289436D01*
X209222Y288950D01*
X204605Y293567D01*
Y395101D01*
X205875Y395727D01*
X206517Y395235D01*
D02*
G37*
G36*
X449000Y700000D02*
Y663000D01*
X486000Y626000D01*
X495000Y617000D01*
Y609000D01*
Y597565D01*
X466150D01*
X459138Y604578D01*
X457562Y605786D01*
X456466Y606240D01*
X440000Y626000D01*
X422000Y644000D01*
Y723000D01*
X449000D01*
Y700000D01*
D02*
G37*
%LPC*%
G36*
X550000Y445082D02*
X546667Y444754D01*
X543463Y443782D01*
X540510Y442203D01*
X537921Y440079D01*
X535797Y437490D01*
X534218Y434537D01*
X533246Y431333D01*
X532918Y428000D01*
X533246Y424667D01*
X534218Y421463D01*
X535797Y418510D01*
X537921Y415921D01*
X540510Y413797D01*
X543463Y412218D01*
X546667Y411246D01*
X550000Y410918D01*
X553333Y411246D01*
X556537Y412218D01*
X559490Y413797D01*
X562079Y415921D01*
X564203Y418510D01*
X565782Y421463D01*
X566754Y424667D01*
X567082Y428000D01*
X566754Y431333D01*
X565782Y434537D01*
X564203Y437490D01*
X562079Y440079D01*
X559490Y442203D01*
X556537Y443782D01*
X553333Y444754D01*
X550000Y445082D01*
D02*
G37*
G36*
X453000Y556000D02*
X419000D01*
Y512000D01*
X453000D01*
Y556000D01*
D02*
G37*
G36*
X128000Y443204D02*
X120786Y435990D01*
X122180Y434920D01*
X124987Y433757D01*
X128000Y433360D01*
X131012Y433757D01*
X133820Y434920D01*
X135214Y435990D01*
X128000Y443204D01*
D02*
G37*
G36*
X294540Y436340D02*
X284270D01*
Y426070D01*
X294540D01*
Y436340D01*
D02*
G37*
G36*
X118990Y452214D02*
X117920Y450820D01*
X116757Y448013D01*
X116360Y445000D01*
X116757Y441987D01*
X117920Y439180D01*
X118990Y437786D01*
X126204Y445000D01*
X118990Y452214D01*
D02*
G37*
G36*
X137010D02*
X129796Y445000D01*
X137010Y437786D01*
X138080Y439180D01*
X139243Y441987D01*
X139640Y445000D01*
X139243Y448013D01*
X138080Y450820D01*
X137010Y452214D01*
D02*
G37*
G36*
X281730Y423530D02*
X271460D01*
Y413260D01*
X281730D01*
Y423530D01*
D02*
G37*
G36*
Y436340D02*
X271460D01*
Y426070D01*
X281730D01*
Y436340D01*
D02*
G37*
G36*
X294540Y423530D02*
X284270D01*
Y413260D01*
X294540D01*
Y423530D01*
D02*
G37*
G36*
X284557Y200142D02*
X274270D01*
Y193312D01*
X284557D01*
Y200142D01*
D02*
G37*
G36*
Y190772D02*
X274270D01*
Y183942D01*
X284557D01*
Y190772D01*
D02*
G37*
G36*
X246544Y206544D02*
X238274D01*
Y202274D01*
X246544D01*
Y206544D01*
D02*
G37*
G36*
X271730Y200142D02*
X261443D01*
Y197181D01*
X258905D01*
X257354Y198731D01*
Y199734D01*
X247814D01*
X238274D01*
Y195464D01*
X246087D01*
X253142Y188408D01*
X254809Y187294D01*
X256776Y186903D01*
X261443D01*
Y183942D01*
X271730D01*
Y192042D01*
Y200142D01*
D02*
G37*
G36*
X166222Y72680D02*
X156020D01*
Y62478D01*
X157762Y62707D01*
X160570Y63870D01*
X162980Y65720D01*
X164830Y68130D01*
X165993Y70938D01*
X166222Y72680D01*
D02*
G37*
G36*
X153480D02*
X143278D01*
X143507Y70938D01*
X144670Y68130D01*
X146520Y65720D01*
X148930Y63870D01*
X151737Y62707D01*
X153480Y62478D01*
Y72680D01*
D02*
G37*
G36*
X156020Y85422D02*
Y75220D01*
X166222D01*
X165993Y76963D01*
X164830Y79770D01*
X162980Y82180D01*
X160570Y84030D01*
X157762Y85193D01*
X156020Y85422D01*
D02*
G37*
G36*
X153480D02*
X151737Y85193D01*
X148930Y84030D01*
X146520Y82180D01*
X144670Y79770D01*
X143507Y76963D01*
X143278Y75220D01*
X153480D01*
Y85422D01*
D02*
G37*
G36*
X476320Y286222D02*
Y276020D01*
X486522D01*
X486293Y277763D01*
X485130Y280570D01*
X483280Y282980D01*
X480870Y284830D01*
X478063Y285993D01*
X476320Y286222D01*
D02*
G37*
G36*
X389326Y320253D02*
X372674D01*
Y309747D01*
X376371D01*
Y307917D01*
X370179Y301726D01*
X369006Y302212D01*
Y310728D01*
X352354D01*
Y304729D01*
X346824Y299199D01*
X342542D01*
Y301664D01*
X305458D01*
Y286456D01*
X342542D01*
Y288921D01*
X348952D01*
X350919Y289312D01*
X352586Y290426D01*
X354032Y291873D01*
X355235Y291465D01*
X355338Y290679D01*
X356234Y288516D01*
X357659Y286659D01*
X359516Y285234D01*
X361679Y284338D01*
X363999Y284033D01*
X366320Y284338D01*
X368483Y285234D01*
X370340Y286659D01*
X371765Y288516D01*
X372660Y290679D01*
X372727Y291180D01*
X384273Y302727D01*
X384273Y302727D01*
X385277Y304229D01*
X385629Y306000D01*
X385629Y306000D01*
Y309747D01*
X389326D01*
Y320253D01*
D02*
G37*
G36*
X257354Y206544D02*
X249084D01*
Y202274D01*
X257354D01*
Y206544D01*
D02*
G37*
G36*
X486522Y273480D02*
X476320D01*
Y263278D01*
X478063Y263507D01*
X480870Y264670D01*
X483280Y266520D01*
X485130Y268930D01*
X486293Y271737D01*
X486522Y273480D01*
D02*
G37*
G36*
X284557Y230058D02*
X261443D01*
Y227097D01*
X248772D01*
X246805Y226706D01*
X246558Y226540D01*
X238274D01*
Y215460D01*
X257354D01*
Y216819D01*
X261443D01*
Y213858D01*
X284557D01*
Y230058D01*
D02*
G37*
G36*
X226520Y486522D02*
Y476320D01*
X236722D01*
X236493Y478063D01*
X235330Y480870D01*
X233480Y483280D01*
X231070Y485130D01*
X228263Y486293D01*
X226520Y486522D01*
D02*
G37*
G36*
X287590Y473780D02*
X277320D01*
Y463510D01*
X287590D01*
Y473780D01*
D02*
G37*
G36*
X274780D02*
X264510D01*
Y463510D01*
X274780D01*
Y473780D01*
D02*
G37*
G36*
X249380D02*
X239178D01*
X239407Y472037D01*
X240570Y469230D01*
X242420Y466820D01*
X244830Y464970D01*
X247638Y463807D01*
X249380Y463578D01*
Y473780D01*
D02*
G37*
G36*
X223980D02*
X213778D01*
X214007Y472037D01*
X215170Y469230D01*
X217020Y466820D01*
X219430Y464970D01*
X222237Y463807D01*
X223980Y463578D01*
Y473780D01*
D02*
G37*
G36*
X145961Y461165D02*
X138746Y453950D01*
X140141Y452880D01*
X142948Y451718D01*
X145961Y451321D01*
X148973Y451718D01*
X151780Y452880D01*
X153175Y453950D01*
X145961Y461165D01*
D02*
G37*
G36*
X128000Y456640D02*
X124987Y456243D01*
X122180Y455080D01*
X120786Y454010D01*
X128000Y446796D01*
X135214Y454010D01*
X133820Y455080D01*
X131012Y456243D01*
X128000Y456640D01*
D02*
G37*
G36*
X136950Y470175D02*
X135880Y468780D01*
X134718Y465973D01*
X134321Y462961D01*
X134718Y459948D01*
X135880Y457141D01*
X136950Y455746D01*
X144164Y462961D01*
X136950Y470175D01*
D02*
G37*
G36*
X154971Y470175D02*
X147757Y462961D01*
X154971Y455746D01*
X156041Y457141D01*
X157203Y459948D01*
X157600Y462961D01*
X157203Y465973D01*
X156041Y468780D01*
X154971Y470175D01*
D02*
G37*
G36*
X236722Y473780D02*
X226520D01*
Y463578D01*
X228263Y463807D01*
X231070Y464970D01*
X233480Y466820D01*
X235330Y469230D01*
X236493Y472037D01*
X236722Y473780D01*
D02*
G37*
G36*
X223980Y486522D02*
X222237Y486293D01*
X219430Y485130D01*
X217020Y483280D01*
X215170Y480870D01*
X214007Y478063D01*
X213778Y476320D01*
X223980D01*
Y486522D01*
D02*
G37*
G36*
X249380D02*
X247638Y486293D01*
X244830Y485130D01*
X242420Y483280D01*
X240570Y480870D01*
X239407Y478063D01*
X239178Y476320D01*
X249380D01*
Y486522D01*
D02*
G37*
G36*
X251920Y486522D02*
Y476320D01*
X262122D01*
X261893Y478063D01*
X260730Y480870D01*
X258880Y483280D01*
X256470Y485130D01*
X253663Y486293D01*
X251920Y486522D01*
D02*
G37*
G36*
X287590Y486590D02*
X277320D01*
Y476320D01*
X287590D01*
Y486590D01*
D02*
G37*
G36*
X145961Y474600D02*
X142948Y474203D01*
X140141Y473041D01*
X138746Y471971D01*
X145961Y464757D01*
X153175Y471971D01*
X151780Y473041D01*
X148973Y474203D01*
X145961Y474600D01*
D02*
G37*
G36*
X262122Y473780D02*
X251920D01*
Y463578D01*
X253663Y463807D01*
X256470Y464970D01*
X258880Y466820D01*
X260730Y469230D01*
X261893Y472037D01*
X262122Y473780D01*
D02*
G37*
G36*
X274780Y486590D02*
X264510D01*
Y476320D01*
X274780D01*
Y486590D01*
D02*
G37*
G36*
X163921Y492561D02*
X160909Y492164D01*
X158101Y491001D01*
X155691Y489151D01*
X153841Y486741D01*
X152678Y483934D01*
X152282Y480921D01*
X152678Y477909D01*
X153841Y475101D01*
X155691Y472691D01*
X158101Y470841D01*
X160909Y469678D01*
X163921Y469282D01*
X166934Y469678D01*
X169741Y470841D01*
X172151Y472691D01*
X174001Y475101D01*
X175164Y477909D01*
X175561Y480921D01*
X175164Y483934D01*
X174001Y486741D01*
X172151Y489151D01*
X169741Y491001D01*
X166934Y492164D01*
X163921Y492561D01*
D02*
G37*
G36*
X73000Y363967D02*
X70679Y363661D01*
X68517Y362765D01*
X66660Y361340D01*
X65235Y359483D01*
X64339Y357321D01*
X64033Y355000D01*
X64339Y352679D01*
X65106Y350827D01*
X64535Y349557D01*
X54858D01*
Y326443D01*
X71058D01*
Y335861D01*
X75460D01*
Y335460D01*
X94540D01*
Y346540D01*
X79112D01*
X78887Y346770D01*
X78995Y348395D01*
X79340Y348660D01*
X80765Y350517D01*
X81661Y352679D01*
X81967Y355000D01*
X81661Y357321D01*
X80765Y359483D01*
X79340Y361340D01*
X77483Y362765D01*
X75321Y363661D01*
X73000Y363967D01*
D02*
G37*
G36*
X94540Y326540D02*
X75460D01*
Y315460D01*
X94540D01*
Y326540D01*
D02*
G37*
G36*
X65000Y289967D02*
X62679Y289661D01*
X60517Y288765D01*
X58660Y287340D01*
X57235Y285483D01*
X56339Y283321D01*
X56033Y281000D01*
X56339Y278679D01*
X57235Y276517D01*
X58660Y274660D01*
X60517Y273235D01*
X62679Y272339D01*
X65000Y272033D01*
X67321Y272339D01*
X69483Y273235D01*
X71340Y274660D01*
X72263Y275861D01*
X75460D01*
Y275460D01*
X94540D01*
Y286540D01*
X75460D01*
Y286139D01*
X72263D01*
X71340Y287340D01*
X69483Y288765D01*
X67321Y289661D01*
X65000Y289967D01*
D02*
G37*
G36*
X71058Y319557D02*
X54858D01*
Y296443D01*
X67706D01*
X67991Y296252D01*
X69958Y295861D01*
X75460D01*
Y295460D01*
X94540D01*
Y306540D01*
X75460D01*
Y306139D01*
X72087D01*
X71058Y307167D01*
Y319557D01*
D02*
G37*
G36*
X24950Y236890D02*
X21937Y236493D01*
X19130Y235330D01*
X16720Y233480D01*
X14870Y231070D01*
X13707Y228263D01*
X13311Y225250D01*
X13707Y222237D01*
X14870Y219430D01*
X16720Y217020D01*
X19130Y215170D01*
X21937Y214007D01*
X24950Y213610D01*
X27963Y214007D01*
X30770Y215170D01*
X33180Y217020D01*
X35030Y219430D01*
X36193Y222237D01*
X36590Y225250D01*
X36193Y228263D01*
X35030Y231070D01*
X33180Y233480D01*
X30770Y235330D01*
X27963Y236493D01*
X24950Y236890D01*
D02*
G37*
G36*
X646500Y846500D02*
X638460D01*
Y838460D01*
X646500D01*
Y846500D01*
D02*
G37*
G36*
X411540Y661540D02*
X388460D01*
Y638460D01*
X411540D01*
Y661540D01*
D02*
G37*
G36*
X595700Y846500D02*
X588159D01*
X589120Y844180D01*
X590970Y841770D01*
X593380Y839920D01*
X595700Y838959D01*
Y846500D01*
D02*
G37*
G36*
X661540D02*
X653500D01*
Y838460D01*
X661540D01*
Y846500D01*
D02*
G37*
G36*
X850000Y637039D02*
X846987Y636643D01*
X844180Y635480D01*
X841770Y633630D01*
X841677Y633509D01*
X840400D01*
X838301Y633233D01*
X836345Y632423D01*
X834666Y631134D01*
X815266Y611734D01*
X813977Y610055D01*
X813167Y608099D01*
X812891Y606000D01*
Y599058D01*
X809443D01*
Y582858D01*
X820929D01*
X821000Y582849D01*
X821071Y582858D01*
X832557D01*
Y599058D01*
X829109D01*
Y602641D01*
X837190Y610722D01*
X838460Y610196D01*
Y588460D01*
X861540D01*
Y611540D01*
X839804D01*
X839278Y612810D01*
X842827Y616358D01*
X844180Y615320D01*
X846987Y614157D01*
X850000Y613760D01*
X853012Y614157D01*
X855820Y615320D01*
X858230Y617170D01*
X860080Y619580D01*
X861243Y622388D01*
X861639Y625400D01*
X861243Y628413D01*
X860080Y631220D01*
X858230Y633630D01*
X855820Y635480D01*
X853012Y636643D01*
X850000Y637039D01*
D02*
G37*
G36*
X400000Y636240D02*
X396987Y635843D01*
X394180Y634680D01*
X391770Y632830D01*
X389920Y630420D01*
X388757Y627612D01*
X388360Y624600D01*
X388757Y621587D01*
X389920Y618780D01*
X391770Y616370D01*
X394180Y614520D01*
X396987Y613357D01*
X400000Y612960D01*
X403013Y613357D01*
X405820Y614520D01*
X408230Y616370D01*
X410080Y618780D01*
X411243Y621587D01*
X411640Y624600D01*
X411243Y627612D01*
X410080Y630420D01*
X408230Y632830D01*
X405820Y634680D01*
X403013Y635843D01*
X400000Y636240D01*
D02*
G37*
G36*
X621100Y846500D02*
X613559D01*
X614520Y844180D01*
X616370Y841770D01*
X618780Y839920D01*
X621100Y838959D01*
Y846500D01*
D02*
G37*
G36*
X661540Y861540D02*
X653500D01*
Y853500D01*
X661540D01*
Y861540D01*
D02*
G37*
G36*
X621100Y861041D02*
X618780Y860080D01*
X616370Y858230D01*
X614520Y855820D01*
X613559Y853500D01*
X621100D01*
Y861041D01*
D02*
G37*
G36*
X628100Y861041D02*
Y853500D01*
X635641D01*
X634680Y855820D01*
X632830Y858230D01*
X630420Y860080D01*
X628100Y861041D01*
D02*
G37*
G36*
X602700D02*
Y853500D01*
X610241D01*
X609280Y855820D01*
X607430Y858230D01*
X605020Y860080D01*
X602700Y861041D01*
D02*
G37*
G36*
X635641Y846500D02*
X628100D01*
Y838959D01*
X630420Y839920D01*
X632830Y841770D01*
X634680Y844180D01*
X635641Y846500D01*
D02*
G37*
G36*
X610241D02*
X602700D01*
Y838959D01*
X605020Y839920D01*
X607430Y841770D01*
X609280Y844180D01*
X610241Y846500D01*
D02*
G37*
G36*
X595700Y861041D02*
X593380Y860080D01*
X590970Y858230D01*
X589120Y855820D01*
X588159Y853500D01*
X595700D01*
Y861041D01*
D02*
G37*
G36*
X646500Y861540D02*
X638460D01*
Y853500D01*
X646500D01*
Y861540D01*
D02*
G37*
%LPD*%
D10*
X360680Y324525D02*
D03*
Y305475D02*
D03*
X381000Y315000D02*
D03*
D11*
X346042Y381000D02*
D03*
X375958D02*
D03*
X33042Y338000D02*
D03*
X62958D02*
D03*
X33042Y308000D02*
D03*
X62958D02*
D03*
D12*
X324000Y351940D02*
D03*
Y294060D02*
D03*
D13*
X361507Y348000D02*
D03*
X378493D02*
D03*
D14*
X247000Y447958D02*
D03*
Y418042D02*
D03*
X399000Y354042D02*
D03*
Y383958D02*
D03*
X821000Y590958D02*
D03*
Y561042D02*
D03*
X197000Y447958D02*
D03*
Y418042D02*
D03*
X222000Y447958D02*
D03*
Y418042D02*
D03*
X56000Y217958D02*
D03*
Y188042D02*
D03*
X273000Y221958D02*
D03*
Y192042D02*
D03*
D15*
X426062Y368000D02*
D03*
X449938Y377500D02*
D03*
Y358500D02*
D03*
D16*
X460000Y304000D02*
D03*
X450500Y324828D02*
D03*
X469500D02*
D03*
X416500Y314828D02*
D03*
X426000Y294000D02*
D03*
X407000D02*
D03*
D17*
X85000Y201004D02*
D03*
X247814Y201004D02*
D03*
Y341000D02*
D03*
X85000Y221000D02*
D03*
Y241000D02*
D03*
X85000Y261000D02*
D03*
X85000Y281000D02*
D03*
Y301000D02*
D03*
X85000Y321000D02*
D03*
X85000Y341000D02*
D03*
X247814Y221000D02*
D03*
Y241000D02*
D03*
X247814Y261000D02*
D03*
X247814Y281000D02*
D03*
X247814Y301000D02*
D03*
X247814Y321000D02*
D03*
D18*
X640800Y527000D02*
X660200Y507600D01*
Y500000D02*
Y507600D01*
X505000Y558000D02*
X522000Y541000D01*
X617768D01*
X640800Y527000D01*
D19*
X840400Y625400D02*
X850000D01*
X821000Y606000D02*
X840400Y625400D01*
X821000Y590958D02*
Y606000D01*
D20*
X197000Y290417D02*
Y413084D01*
Y290417D02*
X246417Y241000D01*
X211000Y403000D02*
X215000D01*
X218000Y406000D01*
X247000Y411000D02*
Y418042D01*
X231000Y395000D02*
X247000Y411000D01*
X231000Y297151D02*
Y395000D01*
X82000Y261000D02*
X85000D01*
X82000Y241000D02*
X85000D01*
X82000Y221000D02*
X85000D01*
X218000Y406000D02*
Y414042D01*
X222000Y418042D01*
X218000Y287151D02*
X244151Y261000D01*
X136120Y83420D02*
Y210543D01*
X518960Y589960D02*
X523000Y594000D01*
X463000Y589960D02*
X518960D01*
X244151Y261000D02*
X244814D01*
X85000Y261000D02*
X85663D01*
X85000Y241000D02*
X85663D01*
X114000Y212663D01*
X87194Y221000D02*
X99540Y208654D01*
X85000Y221000D02*
X87194D01*
X99540Y188140D02*
Y208654D01*
X246417Y241000D02*
X247814D01*
X237151Y290999D02*
X247151Y281000D01*
X231000Y297151D02*
X235151Y293000D01*
X58350Y146950D02*
X99540Y188140D01*
X114000Y129000D02*
Y212663D01*
X94180Y110720D02*
X95720D01*
X114000Y129000D01*
X128000Y75300D02*
X129350Y73950D01*
X56000Y188042D02*
X72958D01*
X75000Y186000D01*
X128000Y75300D02*
X136120Y83420D01*
X85663Y261000D02*
X136120Y210543D01*
X824875Y493642D02*
Y527299D01*
X821000Y531174D02*
X824875Y527299D01*
X821000Y531174D02*
Y561042D01*
X665000Y405000D02*
X670000Y400000D01*
X731233D01*
X824875Y493642D01*
X218000Y287151D02*
Y406000D01*
X453760Y599200D02*
X463000Y589960D01*
X400000Y599200D02*
X453760D01*
D21*
X62958Y338000D02*
X65958Y341000D01*
X62958Y308000D02*
X69958Y301000D01*
X85000D01*
X283000Y336186D02*
Y348600D01*
X247814Y301000D02*
X283000Y336186D01*
X260000Y333186D02*
Y351000D01*
X283000Y374000D01*
X247814Y321000D02*
X260000Y333186D01*
X247814Y341000D02*
Y364214D01*
X283000Y399400D01*
X360367Y305475D02*
X360680D01*
X348952Y294060D02*
X360367Y305475D01*
X324000Y294060D02*
X348952D01*
X360680Y330187D02*
X378493Y348000D01*
X360680Y324525D02*
Y330187D01*
X357567Y351940D02*
X361507Y348000D01*
X324000Y351940D02*
X357567D01*
X324000D02*
Y358958D01*
X399000Y354042D02*
X412958Y368000D01*
X426062D01*
X399000Y383958D02*
X405458Y377500D01*
X449938D01*
X396042Y381000D02*
X399000Y383958D01*
X375958Y381000D02*
X396042D01*
X392958Y348000D02*
X399000Y354042D01*
X378493Y348000D02*
X392958D01*
X324000Y358958D02*
X346042Y381000D01*
X375958D02*
X377000Y379958D01*
Y362000D02*
Y379958D01*
X438999Y336999D02*
Y366561D01*
X449938Y377500D01*
X426000Y367938D02*
X426062Y368000D01*
X426000Y324000D02*
Y367938D01*
X438999Y336999D02*
X439000Y337000D01*
X426828Y324828D02*
X450500D01*
X426000Y324000D02*
X426828Y324828D01*
X439000Y337000D02*
X457328D01*
X469500Y324828D01*
X426000Y294000D02*
Y324000D01*
X403999Y307999D02*
X404999D01*
X403999Y297001D02*
Y307999D01*
Y297001D02*
X407000Y294000D01*
X65000Y281000D02*
X81000D01*
X248772Y221958D02*
X273000D01*
X247814Y221000D02*
X248772Y221958D01*
X256776Y192042D02*
X273000D01*
X247814Y201004D02*
X256776Y192042D01*
X237151Y290999D02*
X261999D01*
X235151Y293000D02*
X237151Y290999D01*
X85000Y341000D02*
X85000Y341000D01*
X65958Y341000D02*
X73000D01*
Y355000D01*
Y341000D02*
X85000D01*
D22*
X363999Y292999D02*
X367999D01*
X381000Y306000D01*
Y315000D01*
D23*
X416500Y282500D02*
Y314828D01*
X460000Y264400D02*
Y304000D01*
X475050Y249350D02*
X476192D01*
X460000Y264400D02*
X475050Y249350D01*
X416500Y282500D02*
X475050Y223950D01*
D24*
X250650Y475050D02*
D03*
X225250D02*
D03*
X128000Y445000D02*
D03*
X145961Y462961D02*
D03*
X163921Y480921D02*
D03*
X283000Y399400D02*
D03*
Y374000D02*
D03*
Y348600D02*
D03*
X475050Y249350D02*
D03*
Y274750D02*
D03*
X624600Y850000D02*
D03*
X599200D02*
D03*
X400000Y624600D02*
D03*
Y599200D02*
D03*
X850000Y625400D02*
D03*
Y650800D02*
D03*
X24950Y250650D02*
D03*
Y225250D02*
D03*
X58350Y146950D02*
D03*
X83750D02*
D03*
X94180Y110720D02*
D03*
X119580D02*
D03*
X129350Y73950D02*
D03*
X154750D02*
D03*
D25*
X276050Y475050D02*
D03*
X650000Y850000D02*
D03*
X32950Y146950D02*
D03*
X68780Y110720D02*
D03*
X103950Y73950D02*
D03*
D26*
X110040Y427039D02*
D03*
D27*
X283000Y424800D02*
D03*
X475050Y223950D02*
D03*
X400000Y650000D02*
D03*
X850000Y600000D02*
D03*
X24950Y276050D02*
D03*
D28*
X807033Y516033D02*
D03*
X754000Y463000D02*
D03*
D29*
X657000Y428000D02*
D03*
X707000D02*
D03*
X550000D02*
D03*
X600000D02*
D03*
D30*
X660200Y500000D02*
D03*
X605600D02*
D03*
X551000D02*
D03*
X750000Y527000D02*
D03*
X695400D02*
D03*
X640800D02*
D03*
D31*
X435000Y738000D02*
D03*
X435000Y713000D02*
D03*
D32*
X436000Y534000D02*
D03*
Y571000D02*
D03*
D33*
X505000Y558000D02*
D03*
D34*
X166000Y458000D02*
D03*
X521000Y579000D02*
D03*
X545000Y580000D02*
D03*
X508000Y615000D02*
D03*
X503000Y713000D02*
D03*
X497000Y642000D02*
D03*
X508000Y627000D02*
D03*
X130000Y420000D02*
D03*
X90000D02*
D03*
X170000Y320000D02*
D03*
X150000Y300000D02*
D03*
X130000Y280000D02*
D03*
X290000Y220000D02*
D03*
X273000Y205000D02*
D03*
X289000Y192000D02*
D03*
X273000Y179000D02*
D03*
X248000Y210000D02*
D03*
X247000Y184000D02*
D03*
X230000Y200000D02*
D03*
Y220000D02*
D03*
X290000Y250000D02*
D03*
Y280000D02*
D03*
Y310000D02*
D03*
X310000D02*
D03*
Y330000D02*
D03*
Y380000D02*
D03*
Y400000D02*
D03*
X273000Y254000D02*
D03*
X474000Y601000D02*
D03*
Y610000D02*
D03*
X483000Y601000D02*
D03*
Y610000D02*
D03*
X325000Y310000D02*
D03*
Y330000D02*
D03*
Y400000D02*
D03*
Y380000D02*
D03*
D35*
X211000Y403000D02*
D03*
X363999Y292999D02*
D03*
X377000Y362000D02*
D03*
X438999Y336999D02*
D03*
X403999Y307999D02*
D03*
X523000Y594000D02*
D03*
X65000Y281000D02*
D03*
X261999Y290999D02*
D03*
X73000Y355000D02*
D03*
X75000Y186000D02*
D03*
M02*
