G04 Layer_Color=32896*
%FSLAX44Y44*%
%MOMM*%
G71*
G01*
G75*
%ADD44C,0.1524*%
%ADD46C,0.2540*%
%ADD49C,0.0762*%
%ADD53C,0.2500*%
%ADD54C,0.2000*%
D44*
X769327Y447565D02*
G03*
X769327Y447565I-762J0D01*
G01*
X705295Y500000D02*
G03*
X705295Y500000I-1270J0D01*
G01*
X505662Y713000D02*
G03*
X505662Y713000I-762J0D01*
G01*
X463061Y632313D02*
G03*
X463061Y632313I-1270J0D01*
G01*
X511662Y627000D02*
G03*
X511662Y627000I-762J0D01*
G01*
X281727Y299181D02*
Y302812D01*
Y263188D02*
X332273Y263188D01*
X281727Y263188D02*
Y266819D01*
Y302812D02*
X332273Y302812D01*
X332273Y299181D02*
X332273Y302812D01*
X332273Y292219D02*
X332273Y273781D01*
X332273Y263188D02*
Y266819D01*
X281727Y273781D02*
Y292219D01*
X777255Y470803D02*
X786197Y479745D01*
X791803Y456255D02*
X800745Y465197D01*
X560200Y443728D02*
X601800Y443728D01*
X560200Y478272D02*
X601800Y478272D01*
X685600Y487300D02*
Y519050D01*
X524310D02*
X685600D01*
X524310Y487300D02*
Y519050D01*
Y487300D02*
X685600D01*
X469678Y723287D02*
X482323D01*
X469678Y702713D02*
X482323D01*
X497224Y643743D02*
Y655279D01*
X468776Y643743D02*
Y646560D01*
Y692257D02*
X497224D01*
Y680721D02*
Y692257D01*
X468776Y643743D02*
X497224D01*
X468776Y658040D02*
Y661879D01*
Y674121D02*
Y677960D01*
Y689440D02*
Y692257D01*
X475677Y616713D02*
X488322D01*
X475677Y637287D02*
X488322D01*
D46*
X377000Y290235D02*
Y277539D01*
X374461Y275000D01*
X369383D01*
X366843Y277539D01*
Y290235D01*
X361765Y275000D02*
X356687D01*
X359226D01*
Y290235D01*
X361765Y287696D01*
X569000Y439000D02*
Y423765D01*
X576618D01*
X579157Y426304D01*
Y431382D01*
X576618Y433922D01*
X569000D01*
X574078D02*
X579157Y439000D01*
X584235Y426304D02*
X586774Y423765D01*
X591853D01*
X594392Y426304D01*
Y428843D01*
X591853Y431382D01*
X594392Y433922D01*
Y436461D01*
X591853Y439000D01*
X586774D01*
X584235Y436461D01*
Y433922D01*
X586774Y431382D01*
X584235Y428843D01*
Y426304D01*
X586774Y431382D02*
X591853D01*
X786172Y486385D02*
X775399Y497158D01*
X770012Y491771D01*
Y488180D01*
X773603Y484589D01*
X777194D01*
X782581Y489976D01*
X778990Y486385D02*
Y479203D01*
X775399Y475612D02*
X771808Y472021D01*
X773603Y473816D01*
X762831Y484589D01*
X766421D01*
X674843Y467539D02*
Y477696D01*
X677383Y480235D01*
X682461D01*
X685000Y477696D01*
Y467539D01*
X682461Y465000D01*
X677383D01*
X679922Y470078D02*
X674843Y465000D01*
X677383D02*
X674843Y467539D01*
X669765Y465000D02*
X664687D01*
X667226D01*
Y480235D01*
X669765Y477696D01*
X444235Y648000D02*
Y653078D01*
Y650539D01*
X429000D01*
Y648000D01*
Y653078D01*
X441696Y670853D02*
X444235Y668313D01*
Y663235D01*
X441696Y660696D01*
X431539D01*
X429000Y663235D01*
Y668313D01*
X431539Y670853D01*
X441696Y675931D02*
X444235Y678470D01*
Y683549D01*
X441696Y686088D01*
X439157D01*
X436618Y683549D01*
Y681009D01*
Y683549D01*
X434078Y686088D01*
X431539D01*
X429000Y683549D01*
Y678470D01*
X431539Y675931D01*
X466765Y589000D02*
Y583922D01*
Y586461D01*
X482000D01*
Y589000D01*
Y583922D01*
X469304Y566147D02*
X466765Y568687D01*
Y573765D01*
X469304Y576304D01*
X479461D01*
X482000Y573765D01*
Y568687D01*
X479461Y566147D01*
X482000Y550912D02*
Y561069D01*
X471843Y550912D01*
X469304D01*
X466765Y553451D01*
Y558530D01*
X469304Y561069D01*
X482157Y732304D02*
X479618Y729765D01*
X474539D01*
X472000Y732304D01*
Y742461D01*
X474539Y745000D01*
X479618D01*
X482157Y742461D01*
X497392Y729765D02*
X492313Y732304D01*
X487235Y737383D01*
Y742461D01*
X489774Y745000D01*
X494853D01*
X497392Y742461D01*
Y739922D01*
X494853Y737383D01*
X487235D01*
X438157Y621304D02*
X435617Y618765D01*
X430539D01*
X428000Y621304D01*
Y631461D01*
X430539Y634000D01*
X435617D01*
X438157Y631461D01*
X453392Y618765D02*
X443235D01*
Y626382D01*
X448313Y623843D01*
X450853D01*
X453392Y626382D01*
Y631461D01*
X450853Y634000D01*
X445774D01*
X443235Y631461D01*
D49*
X347132Y309574D02*
X338668Y301110D01*
X347132D02*
X338668Y309574D01*
X347132Y305342D02*
X338668D01*
X342900Y301110D02*
Y309574D01*
D53*
X493750Y614750D02*
G03*
X493750Y614750I-1250J0D01*
G01*
D54*
X517000Y586750D02*
Y595250D01*
X499750Y582500D02*
X504250D01*
X487000Y586750D02*
Y595250D01*
M02*
