M48
;Layer_Color=9474304
;FILE_FORMAT=4:4
METRIC,LZ
;TYPE=PLATED
T1F00S00C0.3000
T2F00S00C0.6604
T3F00S00C0.7112
T4F00S00C1.0000
T5F00S00C1.2000
T6F00S00C1.6510
%
T01
X00642Y00478
X00661Y00474
X0068Y00479
X0032Y004
X0031
Y0038
X0032
Y0033
X0031
Y0031
X0032
X0029
Y0028
Y0025
X00273Y00254
Y00205
Y00179
X00289Y00192
X0029Y0022
X00248Y0021
X00247Y00184
X0023Y002
Y0022
X0017Y0032
X0015Y003
X0013Y0028
Y0042
X00166Y00458
X0009Y0042
X00474Y00621
Y0063
X00483
Y00621
X00508Y00635
Y00647
X00497Y00662
X00503Y00733
X00521Y00599
X00545Y0062
X00553Y0055
X00573
X00533
X00518
T02
X00754Y00463
X00807033Y00516033
T03
X00261999Y00290999
X00363999Y00292999
X00403999Y00307999
X00438999Y00336999
X00377Y00362
X00211Y00403
X00073Y00355
X00065Y00281
X00075Y00186
X00523Y00614
T04
X00435Y00733
Y00758
X00505Y00577999
T05
X0010395Y0007395
X0012935
X0015475
X0055Y00428
X006
X00657
X00707
X0047505Y0027475
Y0024935
Y0022395
X00283Y003486
Y00374
Y003994
Y004248
X0027605Y0047505
X0025065
X0022525
X00163921Y00480921
X00145961Y00462961
X00128Y00445
X0011004Y00427039
X0011958Y0011072
X0009418
X0006878
X0005835Y0014695
X0008375
X0003295Y0014695
X0002495Y0022525
Y0025065
Y0027605
X00434Y00527
Y00578
X004Y005992
Y006246
Y0065
X005992Y0085
X006246
X0065
X0085Y006508
Y006254
Y006
T06
X00551Y005
X006056
X006602
X006408Y00527
X006954
X0075
M30
