G04 Layer_Color=16711935*
%FSLAX44Y44*%
%MOMM*%
G71*
G01*
G75*
%ADD11R,1.1120X1.8034*%
%ADD30C,1.1684*%
%ADD32C,2.1590*%
%ADD36R,1.2080X0.4564*%
G04:AMPARAMS|DCode=37|XSize=1.112mm|YSize=1.8034mm|CornerRadius=0mm|HoleSize=0mm|Usage=FLASHONLY|Rotation=45.000|XOffset=0mm|YOffset=0mm|HoleType=Round|Shape=Rectangle|*
%AMROTATEDRECTD37*
4,1,4,0.2445,-1.0308,-1.0308,0.2445,-0.2445,1.0308,1.0308,-0.2445,0.2445,-1.0308,0.0*
%
%ADD37ROTATEDRECTD37*%

%ADD38R,1.0128X3.2004*%
%ADD39R,0.7000X1.0000*%
%ADD40R,1.3938X0.4826*%
%ADD41R,1.3938X0.5588*%
%ADD45C,0.2540*%
%ADD50C,2.0032*%
%ADD51R,2.0032X2.0032*%
%ADD52P,2.8329X4X90.0*%
%ADD53R,2.0032X2.0032*%
%ADD54R,2.2032X2.2032*%
%ADD55R,2.2032X3.2032*%
%ADD56C,2.2032*%
%ADD57C,1.7032*%
%ADD58C,0.9032*%
%ADD59C,1.4732*%
G36*
X502526Y678856D02*
X479952D01*
X473602Y685206D01*
X470046D01*
Y690794D01*
X473602D01*
X479952Y697144D01*
X502526D01*
Y678856D01*
D02*
G37*
D11*
X461042Y733000D02*
D03*
X490958D02*
D03*
X467042Y647000D02*
D03*
X496958D02*
D03*
D30*
X807033Y516033D02*
D03*
X754000Y463000D02*
D03*
D32*
X660200Y500000D02*
D03*
X605600D02*
D03*
X551000D02*
D03*
X750000Y527000D02*
D03*
X695400D02*
D03*
X640800D02*
D03*
D36*
X341417Y295700D02*
D03*
Y270300D02*
D03*
X272583Y270300D02*
D03*
Y295700D02*
D03*
D37*
X799577Y478577D02*
D03*
X778423Y457423D02*
D03*
D38*
X609940Y461000D02*
D03*
X552060D02*
D03*
D39*
X511500Y598000D02*
D03*
Y624000D02*
D03*
X502000D02*
D03*
X492500D02*
D03*
Y598000D02*
D03*
D40*
X463077Y672300D02*
D03*
Y703700D02*
D03*
D41*
Y688000D02*
D03*
D45*
X540000Y440000D02*
Y490000D01*
Y492500D01*
Y437500D02*
Y440000D01*
X547500Y480000D02*
Y487500D01*
X552500Y480000D02*
Y487500D01*
X557500Y480000D02*
Y487500D01*
X562500Y440000D02*
Y492500D01*
X560000Y437500D02*
X562500Y440000D01*
X535000Y495000D02*
X537500Y497500D01*
X535000Y435000D02*
Y495000D01*
Y435000D02*
X537500Y432500D01*
X535000Y502500D02*
X537500D01*
X530000Y497500D02*
X535000Y502500D01*
X530000Y432500D02*
Y497500D01*
Y432500D02*
X532500Y430000D01*
X535000Y427500D01*
X532500Y507500D02*
X537500D01*
X525000Y500000D02*
X532500Y507500D01*
X525000Y467500D02*
Y500000D01*
Y432500D02*
Y467500D01*
Y430000D02*
Y432500D01*
Y430000D02*
X532500Y422500D01*
X537500D01*
D50*
X250650Y475050D02*
D03*
X225250D02*
D03*
X128000Y445000D02*
D03*
X145961Y462961D02*
D03*
X163921Y480921D02*
D03*
X283000Y399400D02*
D03*
Y374000D02*
D03*
Y348600D02*
D03*
X475050Y249350D02*
D03*
Y274750D02*
D03*
X624600Y850000D02*
D03*
X599200D02*
D03*
X400000Y624600D02*
D03*
Y599200D02*
D03*
X850000Y625400D02*
D03*
Y650800D02*
D03*
X24950Y250650D02*
D03*
Y225250D02*
D03*
X58350Y146950D02*
D03*
X83750D02*
D03*
X94180Y110720D02*
D03*
X119580D02*
D03*
X129350Y73950D02*
D03*
X154750D02*
D03*
D51*
X276050Y475050D02*
D03*
X650000Y850000D02*
D03*
X32950Y146950D02*
D03*
X68780Y110720D02*
D03*
X103950Y73950D02*
D03*
D52*
X110040Y427039D02*
D03*
D53*
X283000Y424800D02*
D03*
X475050Y223950D02*
D03*
X400000Y650000D02*
D03*
X850000Y600000D02*
D03*
X24950Y276050D02*
D03*
D54*
X435000Y758000D02*
D03*
Y733000D02*
D03*
D55*
X436000Y534000D02*
D03*
Y571000D02*
D03*
D56*
X657000Y428000D02*
D03*
X707000D02*
D03*
X550000D02*
D03*
X600000D02*
D03*
D57*
X505000Y577999D02*
D03*
D58*
X166000Y458000D02*
D03*
X521000Y599000D02*
D03*
X545000Y620000D02*
D03*
X508000Y635000D02*
D03*
X503000Y733000D02*
D03*
X497000Y662000D02*
D03*
X508000Y647000D02*
D03*
X130000Y420000D02*
D03*
X90000D02*
D03*
X170000Y320000D02*
D03*
X150000Y300000D02*
D03*
X130000Y280000D02*
D03*
X290000Y220000D02*
D03*
X273000Y205000D02*
D03*
X289000Y192000D02*
D03*
X273000Y179000D02*
D03*
X248000Y210000D02*
D03*
X247000Y184000D02*
D03*
X230000Y200000D02*
D03*
Y220000D02*
D03*
X290000Y250000D02*
D03*
Y280000D02*
D03*
Y310000D02*
D03*
X310000D02*
D03*
Y330000D02*
D03*
Y380000D02*
D03*
Y400000D02*
D03*
X273000Y254000D02*
D03*
X474000Y621000D02*
D03*
Y630000D02*
D03*
X483000Y621000D02*
D03*
Y630000D02*
D03*
X320000Y310000D02*
D03*
Y330000D02*
D03*
Y400000D02*
D03*
Y380000D02*
D03*
X533000Y550000D02*
D03*
X553000D02*
D03*
X573000D02*
D03*
X518000D02*
D03*
X642000Y478000D02*
D03*
X680000Y479000D02*
D03*
X661000Y474000D02*
D03*
D59*
X211000Y403000D02*
D03*
X363999Y292999D02*
D03*
X377000Y362000D02*
D03*
X438999Y336999D02*
D03*
X403999Y307999D02*
D03*
X523000Y614000D02*
D03*
X65000Y281000D02*
D03*
X261999Y290999D02*
D03*
X73000Y355000D02*
D03*
X75000Y186000D02*
D03*
M02*
