G04 Layer_Color=32896*
%FSLAX44Y44*%
%MOMM*%
G71*
G01*
G75*
%ADD43C,0.1524*%
%ADD45C,0.2540*%
%ADD48C,0.0762*%
%ADD60C,0.2500*%
%ADD61C,0.2000*%
D43*
X769327Y447565D02*
G03*
X769327Y447565I-762J0D01*
G01*
X705295Y500000D02*
G03*
X705295Y500000I-1270J0D01*
G01*
X505662Y733000D02*
G03*
X505662Y733000I-762J0D01*
G01*
X463061Y652313D02*
G03*
X463061Y652313I-1270J0D01*
G01*
X511662Y647000D02*
G03*
X511662Y647000I-762J0D01*
G01*
X281727Y299181D02*
Y302812D01*
Y263188D02*
X332273Y263188D01*
X281727Y263188D02*
Y266819D01*
Y302812D02*
X332273Y302812D01*
X332273Y299181D02*
X332273Y302812D01*
X332273Y292219D02*
X332273Y273781D01*
X332273Y263188D02*
Y266819D01*
X281727Y273781D02*
Y292219D01*
X777255Y470803D02*
X786197Y479745D01*
X791803Y456255D02*
X800745Y465197D01*
X560200Y443728D02*
X601800Y443728D01*
X560200Y478272D02*
X601800Y478272D01*
X685600Y487300D02*
Y519050D01*
X524310D02*
X685600D01*
X524310Y487300D02*
Y519050D01*
Y487300D02*
X685600D01*
X469678Y743287D02*
X482323D01*
X469678Y722713D02*
X482323D01*
X497224Y663743D02*
Y675279D01*
X468776Y663743D02*
Y666560D01*
Y712257D02*
X497224D01*
Y700721D02*
Y712257D01*
X468776Y663743D02*
X497224D01*
X468776Y678040D02*
Y681879D01*
Y694121D02*
Y697960D01*
Y709440D02*
Y712257D01*
X475677Y636713D02*
X488322D01*
X475677Y657287D02*
X488322D01*
D45*
X377000Y290235D02*
Y277539D01*
X374461Y275000D01*
X369383D01*
X366843Y277539D01*
Y290235D01*
X361765Y275000D02*
X356687D01*
X359226D01*
Y290235D01*
X361765Y287696D01*
X569000Y439000D02*
Y423765D01*
X576618D01*
X579157Y426304D01*
Y431382D01*
X576618Y433922D01*
X569000D01*
X574078D02*
X579157Y439000D01*
X584235Y426304D02*
X586774Y423765D01*
X591853D01*
X594392Y426304D01*
Y428843D01*
X591853Y431382D01*
X594392Y433922D01*
Y436461D01*
X591853Y439000D01*
X586774D01*
X584235Y436461D01*
Y433922D01*
X586774Y431382D01*
X584235Y428843D01*
Y426304D01*
X586774Y431382D02*
X591853D01*
X786172Y486385D02*
X775399Y497158D01*
X770012Y491771D01*
Y488180D01*
X773603Y484589D01*
X777194D01*
X782581Y489976D01*
X778990Y486385D02*
Y479203D01*
X775399Y475612D02*
X771808Y472021D01*
X773603Y473816D01*
X762831Y484589D01*
X766421D01*
X700843Y495539D02*
Y505696D01*
X703382Y508235D01*
X708461D01*
X711000Y505696D01*
Y495539D01*
X708461Y493000D01*
X703382D01*
X705922Y498078D02*
X700843Y493000D01*
X703382D02*
X700843Y495539D01*
X695765Y493000D02*
X690687D01*
X693226D01*
Y508235D01*
X695765Y505696D01*
X444235Y668000D02*
Y673078D01*
Y670539D01*
X429000D01*
Y668000D01*
Y673078D01*
X441696Y690853D02*
X444235Y688313D01*
Y683235D01*
X441696Y680696D01*
X431539D01*
X429000Y683235D01*
Y688313D01*
X431539Y690853D01*
X441696Y695931D02*
X444235Y698470D01*
Y703549D01*
X441696Y706088D01*
X439157D01*
X436618Y703549D01*
Y701009D01*
Y703549D01*
X434078Y706088D01*
X431539D01*
X429000Y703549D01*
Y698470D01*
X431539Y695931D01*
X466765Y609000D02*
Y603922D01*
Y606461D01*
X482000D01*
Y609000D01*
Y603922D01*
X469304Y586147D02*
X466765Y588687D01*
Y593765D01*
X469304Y596304D01*
X479461D01*
X482000Y593765D01*
Y588687D01*
X479461Y586147D01*
X482000Y570912D02*
Y581069D01*
X471843Y570912D01*
X469304D01*
X466765Y573451D01*
Y578530D01*
X469304Y581069D01*
X482157Y752304D02*
X479618Y749765D01*
X474539D01*
X472000Y752304D01*
Y762461D01*
X474539Y765000D01*
X479618D01*
X482157Y762461D01*
X497392Y749765D02*
X492313Y752304D01*
X487235Y757383D01*
Y762461D01*
X489774Y765000D01*
X494853D01*
X497392Y762461D01*
Y759922D01*
X494853Y757383D01*
X487235D01*
X438157Y641304D02*
X435617Y638765D01*
X430539D01*
X428000Y641304D01*
Y651461D01*
X430539Y654000D01*
X435617D01*
X438157Y651461D01*
X453392Y638765D02*
X443235D01*
Y646382D01*
X448313Y643843D01*
X450853D01*
X453392Y646382D01*
Y651461D01*
X450853Y654000D01*
X445774D01*
X443235Y651461D01*
D48*
X347132Y309574D02*
X338668Y301110D01*
X347132D02*
X338668Y309574D01*
X347132Y305342D02*
X338668D01*
X342900Y301110D02*
Y309574D01*
D60*
X493750Y634750D02*
G03*
X493750Y634750I-1250J0D01*
G01*
D61*
X517000Y606750D02*
Y615250D01*
X499750Y602500D02*
X504250D01*
X487000Y606750D02*
Y615250D01*
M02*
