G04 Layer_Color=16711935*
%FSLAX44Y44*%
%MOMM*%
G71*
G01*
G75*
%ADD43C,0.1524*%
%ADD45C,0.2540*%
D43*
X350000Y0D02*
X500000Y150000D01*
D45*
X118750Y31250D02*
X150000Y0D01*
Y-0D02*
X350000D01*
X500000Y150000D02*
Y350000D01*
X0Y350000D02*
X150000Y500000D01*
X150000D02*
X350000D01*
X525000Y375000D02*
X725000D01*
X375000Y525000D02*
Y725000D01*
X875000Y525000D02*
Y725000D01*
X525000Y875000D02*
X725000D01*
X725000Y375000D02*
X875000Y525000D01*
X375000Y725000D02*
X525000Y875000D01*
X725000D02*
X875000Y725000D01*
X0Y150000D02*
Y350000D01*
Y150000D02*
X118750Y31250D01*
X500000Y350000D02*
X500000D01*
X525000Y375000D02*
Y375000D01*
X375000Y525000D02*
Y525000D01*
Y525000D02*
X425000Y475000D01*
X400000Y450000D02*
X425000Y475000D01*
X400000Y450000D02*
Y450000D01*
X350000Y500000D02*
X400000Y450000D01*
X450000Y400000D02*
X475000Y425000D01*
X450000Y400000D02*
X450000D01*
X500000Y350000D01*
X525000Y375000D02*
X525000D01*
X475000Y425000D02*
X525000Y375000D01*
M02*
