M48
;Layer_Color=9474304
;FILE_FORMAT=4:4
METRIC,LZ
;TYPE=PLATED
T1F00S00C0.3000
T2F00S00C0.4000
T3F00S00C0.6604
T4F00S00C0.7112
T5F00S00C1.0000
T6F00S00C1.2000
T7F00S00C1.6510
%
T01
X00474Y00601
Y0061
X00483
Y00601
X00508Y00615
Y00627
X00497Y00642
X00503Y00713
X00521Y00579
X00545Y0058
T02
X00163Y00181
X00192Y00225
X00213Y00297
X00136Y00364
X00116Y0041
X00196Y0044
Y00452
X00292Y00448
Y00458
X00297Y00427
X00286Y00415
X00273Y00397042
X00258Y00397
X00346Y00413
X00331999Y00427999
X00459Y00368
X00439Y0032
X00401Y00289
X00418Y0025
X00429Y00261
X00336Y0023
X00261Y0018
X00433999Y00116
X00091Y00411
T03
X00753967Y00462967
X00807Y00516
T04
X00523Y00594
T05
X00435Y00713
X00435Y00738
X00505Y00558
T06
X0055Y00428
X006
X00657
X00707
X00398639Y00424
X00380679Y0044196
X00362719Y00459921
X00344758Y00477882
X0027605Y0048005
X0025065
X0022525
X00476Y003374
Y00312
Y002866
Y002612
X0047505Y0022475
Y0019935
Y0017395
X0002495Y0022525
Y0025065
Y0027605
X00434Y00527
Y00578
X004Y005992
Y006246
Y0065
X005992Y00855
X006246
X0065
X0085Y006008
Y005754
Y0055
T07
X00551Y005
X006056
X006602
X006408Y00527
X006954
X0075
M30
