M48
;Layer_Color=9474304
;FILE_FORMAT=4:4
METRIC,LZ
;TYPE=PLATED
T1F00S00C0.3000
T2F00S00C0.4000
T3F00S00C0.6604
T4F00S00C0.7112
T5F00S00C0.7620
T6F00S00C1.0000
T7F00S00C1.2000
T8F00S00C1.6510
%
T01
X00474Y00601
X00483
Y0061
X00474
X00508Y00615
Y00627
X00497Y00642
X00503Y00713
X00521Y00579
X00545Y0058
T02
X0041Y00078
X00401Y00124
X004Y00138
X00399Y00151
X00418Y0025
X00431Y00261
Y00276
X0040425Y002705
X0041677Y00310765
X00433Y00321
X004225Y003975
X004Y0042
X00362Y00409
X00373Y00447
X003525Y004675
X00329Y00438
X00296Y00444
X00286Y00394
X0031525
X00262Y0041025
X002465Y00425
X00201022Y00419045
X00198813Y0040675
X00196Y00339
X00214Y0035125
X0023075Y003385
X0024775Y00351
X00243Y00301
X0026625Y0031125
X00268Y00281
X00288Y00251
X00232Y002425
X00207Y0028525
X00214Y0030875
X0018125Y00273
X001375Y00235
X00089Y00401
X0085Y00576778
T03
X00753967Y00462967
X00807Y00516
T04
X00523Y00594
T05
X00103Y00425
X00163Y00481
T06
X00435Y00713
X00435Y00738
X00505Y00558
T07
X0055Y00428
X006
X00657
X00707
X0047925Y00331
Y003056
X0047925Y00274
Y002486
Y002169
Y001915
X00474921Y00154921
X0045696Y0013696
X00439Y00119
X0042104Y00101039
X0027605Y0048005
X0025065
X0022525
X0002495Y0027605
Y0025065
Y0022525
X00434Y00527
Y00578
X004Y005992
Y006246
Y0065
X005992Y00855
X006246
X0065
T08
X00551Y005
X006056
X006602
X006408Y00527
X006954
X0075
M30
