M48
;Layer_Color=9474304
;FILE_FORMAT=4:4
METRIC,LZ
;TYPE=PLATED
T1F00S00C0.3000
T2F00S00C0.4000
T3F00S00C0.6604
T4F00S00C0.7112
T5F00S00C1.0000
T6F00S00C1.2000
T7F00S00C1.6510
%
T01
X00474Y00601
X00483
Y0061
X00474
X00508Y00615
Y00627
X00497Y00642
X00503Y00713
X00521Y00579
X00545Y0058
T02
X00263Y00222
X0026488Y00402296
X00283Y00419
X00292Y00411
X00299Y00437
X00292Y0045
Y0046
X00318Y00471
Y0049
X00343Y00439
X00356Y00404919
X004395Y00321
X00429Y00261
X00418Y0025
X00411Y00274
X00433999Y00116
X00198Y00436
Y00452
X00149296Y00402296
X00069Y00186
T03
X00753967Y00462967
X00807Y00516
T04
X00523Y00594
T05
X00435Y00713
X00435Y00738
X00505Y00558
T06
X0055Y00428
X006
X00657
X00707
X00398639Y00424
X00380679Y0044196
X00362719Y00459921
X00344758Y00477882
X0027605Y0048005
X0025065
X0022525
X00152961Y00474961
X00135Y00457
X00474Y003344
Y00309
Y002836
Y002582
X0047505Y0022475
Y0019935
Y0017395
X0002495Y0022525
Y0025065
Y0027605
X00434Y00527
Y00578
X004Y005992
Y006246
Y0065
X005992Y00855
X006246
X0065
X0085Y006008
Y005754
Y0055
T07
X00551Y005
X006056
X006602
X006408Y00527
X006954
X0075
M30
